<?xml version="1.0" encoding="UTF-8"?><svg id="Layer_2" xmlns="http://www.w3.org/2000/svg" xmlns:xlink="http://www.w3.org/1999/xlink" viewBox="0 0 308.48 592.98"><defs><linearGradient id="Degradado_sin_nombre_2" x1="155.63" y1="378.47" x2="155.63" y2="152.04" gradientUnits="userSpaceOnUse"><stop offset=".15" stop-color="#ab7cb0"/><stop offset="1" stop-color="#b68080" stop-opacity="0"/></linearGradient><linearGradient id="Degradado_sin_nombre_5" x1="103.56" y1="228.33" x2="128.45" y2="146.81" gradientUnits="userSpaceOnUse"><stop offset="0" stop-color="#ab7cb0"/><stop offset="1" stop-color="#b68080" stop-opacity="0"/></linearGradient><linearGradient id="Degradado_sin_nombre_5-2" x1="220.48" y1="227.1" x2="182.4" y2="150.85" xlink:href="#Degradado_sin_nombre_5"/><linearGradient id="Degradado_sin_nombre_72" x1="156.79" y1="555.86" x2="156.79" y2="297.36" gradientUnits="userSpaceOnUse"><stop offset="0" stop-color="#32677f"/><stop offset=".28" stop-color="#346d84"/><stop offset=".65" stop-color="#3b7e94"/><stop offset="1" stop-color="#4595a9"/></linearGradient><radialGradient id="Degradado_sin_nombre_23" cx="120.1" cy="264.8" fx="120.1" fy="264.8" r="7.56" gradientTransform="translate(63.77 -195.58) scale(1.02)" gradientUnits="userSpaceOnUse"><stop offset="0" stop-color="#c58a80" stop-opacity=".95"/><stop offset=".46" stop-color="#c58a80" stop-opacity=".65"/><stop offset=".5" stop-color="#c58a80" stop-opacity=".57"/><stop offset=".61" stop-color="#c58a80" stop-opacity=".37"/><stop offset=".71" stop-color="#c58a80" stop-opacity=".21"/><stop offset=".82" stop-color="#c58a80" stop-opacity=".09"/><stop offset=".91" stop-color="#c58a80" stop-opacity=".02"/><stop offset="1" stop-color="#c58a80" stop-opacity="0"/></radialGradient><radialGradient id="Degradado_sin_nombre_23-2" cx="60.72" fx="60.72" r="7.56" xlink:href="#Degradado_sin_nombre_23"/></defs><g id="Capa_1"><ellipse cx="154.24" cy="541.64" rx="154.24" ry="51.35" style="fill:#95a89f; stroke-width:0px;"/><path d="M87.76,560.94s18.35,10.01,52.26,3.22c0,0,2.55-28.03-24.4-29.7-26.96-1.66-27.85,26.48-27.85,26.48Z" style="fill:#4c4b4b; stroke-width:0px;"/><path d="M118.25,569.77c-16.64,0-29.01-6.19-29.72-6.55-1.87-.95-2.61-3.24-1.66-5.11.95-1.88,3.22-2.62,5.1-1.67.21.11,21.52,10.67,44.44,2.72,1.98-.68,4.14.37,4.83,2.35.69,1.99-.37,4.15-2.35,4.84-7.23,2.51-14.26,3.42-20.65,3.42Z" style="fill:#1e1e1e; stroke-width:0px;"/><path d="M179.94,562.97s19.52,7.45,52.22-3.85c0,0-1.23-28.12-28.17-26.14-26.94,1.99-24.05,29.99-24.05,29.99Z" style="fill:#4c4b4b; stroke-width:0px;"/><path d="M211.34,567.6c-16.49,2.24-29.58-2.22-30.33-2.48-1.98-.69-3.02-2.86-2.33-4.84.69-1.99,2.84-3.03,4.83-2.34.22.08,22.76,7.68,44.4-3.3,1.87-.94,4.15-.19,5.1,1.68.95,1.88.19,4.17-1.68,5.11-6.83,3.46-13.67,5.31-20.01,6.17Z" style="fill:#1e1e1e; stroke-width:0px;"/><path d="M158.61,16.48c1.79-.31,3.67.14,5.33.9,1.68.77,3.17,1.86,4.59,2.96,1.44,1.09,2.8,2.2,4.31,3.07,1.5.89,3.1,1.66,4.72,2.42,1.61.78,3.25,1.55,4.83,2.48,1.57.94,3.1,2.04,4.35,3.43,2.55,2.74,3.83,6.56,3.47,10.16-.27-3.59-1.81-6.97-4.29-9.35-1.24-1.19-2.67-2.19-4.22-3.02-1.53-.85-3.14-1.6-4.77-2.36-1.62-.78-3.26-1.58-4.81-2.56-1.56-.99-2.97-2.18-4.31-3.37-1.35-1.17-2.68-2.33-4.2-3.21-1.5-.89-3.19-1.52-5-1.54Z" style="fill:#848383; stroke-width:0px;"/><path d="M186.76,15.19c2.24,1.26,4.25,2.96,5.96,4.92,1.72,1.95,3.14,4.18,4.24,6.55,1.08,2.38,1.85,4.9,2.21,7.49.37,2.58.36,5.21-.15,7.74-.11-2.57-.42-5.08-.98-7.53-.57-2.44-1.37-4.82-2.42-7.08-1.03-2.27-2.32-4.42-3.79-6.45-1.49-2.02-3.19-3.89-5.07-5.64Z" style="fill:#9c9a99; stroke-width:0px;"/><path d="M116.02,24.14c-.66,1.45-1.07,2.91-1.21,4.38-.14,1.49.03,2.89.38,4.39.15.75.31,1.55.42,2.33.09.79.18,1.58.18,2.38.04,1.59-.09,3.18-.47,4.73-.23-1.57-.43-3.1-.68-4.62-.26-1.52-.54-2.99-.9-4.52-.15-.77-.3-1.58-.33-2.42-.02-.83.06-1.67.26-2.47.38-1.6,1.18-3.1,2.34-4.19Z" style="fill:#9c9a99; stroke-width:0px;"/><path d="M124.28,30.79c.41-1.64,10.92-7.84,10.92-7.84,0,0,11.74-.83,12.98-3.92,1.24-3.1,8.61-6.4,8.61-6.4l12.76,8.05,13.65,10.53s5.97,8.74,7.21,10.97c1.24,2.23,4.33,14.82,4.33,14.82l3.12.39c4.96-6.09,8.01-14.34,8.01-23.44,0-18.75-15.92-33.95-31.9-33.95-5.48,0-10.25.29-14.16,3.02-.97.68-2.26.68-3.23,0-3.91-2.73-8.68-3.02-14.16-3.02-15.98,0-31.9,15.2-31.9,33.95,0,7.5,2.07,14.42,5.58,20.04,2.38-6.61,7.86-21.92,8.19-23.2Z" style="fill:#aaabaa; stroke-width:0px;"/><path d="M113.57,84.86c.58.11.99.23,1.45.34.45.12.91.21,1.44.49-.5.31-1.07.36-1.62.23-.54-.14-1.07-.49-1.27-1.06Z" style="fill:#956a59; stroke-width:0px;"/><path d="M199.15,84.86c-.2.56-.73.91-1.27,1.06-.55.13-1.12.08-1.62-.23.52-.27.99-.36,1.44-.49.46-.1.87-.23,1.45-.34Z" style="fill:#956a59; stroke-width:0px;"/><path d="M197.47,48.77c-.05-2.24-.3-4.41-.78-6.53-.49-2.11-1.19-4.16-2.13-6.1-.91-1.95-2.07-3.78-3.39-5.5-1.34-1.71-2.87-3.27-4.57-4.72,2.04.93,3.88,2.32,5.44,3.97,1.58,1.64,2.86,3.56,3.85,5.62.97,2.07,1.65,4.28,1.93,6.54.29,2.25.21,4.56-.35,6.73Z" style="fill:#9c9a99; stroke-width:0px;"/><path d="M123.75,34.88c-1.1,2.05-.8,4.09-1.06,6.41-.13,1.17-.49,2.32-.98,3.36-.49,1.05-1.09,2.01-1.83,2.9.18-1.15.48-2.23.75-3.29.27-1.07.47-2.09.6-3.15.13-1.06.22-2.21.55-3.36.32-1.13.95-2.28,1.97-2.88Z" style="fill:#9c9a99; stroke-width:0px;"/><path d="M154.27,341.55c-59.65,0-105.11-59.71-105.11-59.71-13.11-21.73-20.08-47.03-20.08-72.86,0-73.96,57.13-134.82,126.55-134.82s126.55,60.86,126.55,134.82c0,25.89-7,51.24-20.16,73.01,0,0-37.82,59.56-107.75,59.56Z" style="fill:#b282b7; stroke-width:0px;"/><path d="M155.59,320.94c-64.38,0-93.17-23.58-93.17-23.58-.38-3.65-.56-7.33-.56-11,0-55.15,42.33-100.53,93.78-100.53s93.78,45.38,93.78,100.53c0,3.87-.21,7.74-.63,11.59,0,0-30.55,22.99-93.19,22.99Z" style="fill:url(#Degradado_sin_nombre_2); stroke-width:0px;"/><path d="M248.46,297.62h.02c.32-3.29.51-6.6.53-9.9-.03-3.4-.13-6.81-.45-10.19-.61-6.77-1.87-13.48-3.76-20.01-3.77-13.05-10.18-25.31-18.71-35.82-8.55-10.47-19.12-19.36-31.21-25.39-12.05-6.07-25.48-9.35-38.95-9.37-13.48-.11-26.93,3.12-39.01,9.11-12.12,5.96-22.78,14.75-31.37,25.19-8.59,10.47-15.06,22.69-18.93,35.71-3.51,11.86-4.9,24.36-4.14,36.75h185.98v3.92Z" style="fill:none; stroke-width:0px;"/><path d="M248.79,297.62h-.31c0,.1-.01.2-.02.29l.33-.29Z" style="fill:#7f77a9; stroke-width:0px;"/><path d="M248.46,297.92c0-.1.01-.2.02-.29h-.02v.29Z" style="fill:#7f77a9; stroke-width:0px;"/><path d="M249.48,277.45c-.52-6.84-1.71-13.63-3.54-20.25-3.65-13.25-9.97-25.77-18.52-36.57-4.27-5.4-9.08-10.38-14.4-14.77-5.3-4.4-11.08-8.24-17.24-11.35-12.28-6.27-26.03-9.71-39.85-9.78-13.82-.04-27.59,3.33-39.91,9.52-12.35,6.16-23.22,15.15-31.79,25.92-8.6,10.75-15,23.23-18.74,36.45-3.73,13.22-4.89,27.15-3.39,40.77l.03.3h.29s.04,0,.04,0v-.62l-.04-.03h.04v-3.34h.02c-.77-12.38.62-24.88,4.14-36.75,3.87-13.02,10.34-25.25,18.93-35.71,8.59-10.44,19.25-19.24,31.37-25.19,12.08-5.99,25.53-9.22,39.01-9.11,13.47.02,26.9,3.29,38.95,9.37,12.09,6.03,22.66,14.92,31.21,25.39,8.53,10.51,14.94,22.77,18.71,35.82,1.9,6.52,3.16,13.23,3.76,20.01.32,3.39.42,6.79.45,10.19-.02,3.3-.2,6.61-.53,9.9h.31l-.33.29v.36h.33s.3,0,.3,0l.03-.3c.39-3.4.62-6.83.68-10.26.02-3.43-.04-6.86-.32-10.28Z" style="fill:#7f77a9; stroke-width:0px;"/><polygon points="62.42 297.04 62.46 297.07 62.46 297.04 62.42 297.04" style="fill:#7f77a9; stroke-width:0px;"/><path d="M62.72,297.04h-.26s0,.03,0,.03l.29.26c0-.1-.01-.2-.02-.29Z" style="fill:#7f77a9; stroke-width:0px;"/><path d="M62.48,293.7h-.02v3.34h.26c-.1-1.11-.17-2.22-.24-3.34Z" style="fill:#7f77a9; stroke-width:0px;"/><path d="M200.64,87.3c0-24.22-19.6-43.85-43.77-43.85s-43.77,19.63-43.77,43.85c0,3.11.33,6.15.94,9.08-1.82,4.39-2.82,9.15-2.82,14.11,0,4.08.68,8.02,1.93,11.73,5.54,16.47,22.42,28.45,42.4,28.45s36.86-11.98,42.4-28.45c1.25-3.71,1.93-7.65,1.93-11.73,0-3.37-.46-6.64-1.32-9.76,1.36-4.23,2.1-8.74,2.1-13.43Z" style="fill:#aa7e67; stroke-width:0px;"/><path d="M197.94,122.23c-5.54,16.47-22.42,28.45-42.4,28.45s-36.86-11.98-42.4-28.45l17.29,19.03,17.09,50.74,11.17,10.91,17.63-52.23,21.6-28.45Z" style="fill:#ccc7c7; stroke-width:0px;"/><path d="M93.63,119.11c1.46,26.02-11.96,44.72-14.88,50.67-2.92,5.95-2.58,11.89-1.63,18.79.95,6.89-.17,8.75-1.75,11.19-5.71,8.85-6.27,18.09-2.07,25.38,8.25,14.32,34.12,15.93,56.69,1.79,7.95-4.98,17.55-11.88,25.65-27.39" style="fill:#b282b7; stroke-width:0px;"/><path d="M93.63,119.11c.24,4.41.23,8.85-.32,13.24-.55,4.39-1.45,8.74-2.71,13-1.28,4.25-2.94,8.37-4.83,12.38-.95,2-1.96,3.98-3.02,5.92-1.05,1.95-2.17,3.86-3.18,5.79-1.01,1.91-1.69,3.96-2.08,6.08-.37,2.12-.47,4.28-.37,6.46.09,2.17.36,4.35.66,6.53.29,2.21.53,4.47.2,6.79-.18,1.15-.56,2.32-1.13,3.34-.28.51-.58.99-.88,1.46l-.84,1.39c-1.08,1.87-1.98,3.85-2.64,5.89-1.33,4.08-1.62,8.52-.5,12.64,1.08,4.12,3.52,7.86,6.95,10.42,3.4,2.6,7.53,4.18,11.78,4.98,4.26.78,8.65.85,12.98.36,4.33-.49,8.6-1.49,12.73-2.91,2.06-.72,4.1-1.51,6.08-2.45,1-.44,1.97-.96,2.95-1.44.96-.53,1.94-1.02,2.87-1.59,3.78-2.22,7.45-4.67,10.84-7.45,6.83-5.53,12.26-12.67,16.48-20.41-3.93,7.9-9.27,15.18-16.01,20.96-3.38,2.87-7.04,5.39-10.83,7.7-.94.59-1.92,1.11-2.89,1.66-.99.5-1.96,1.05-2.97,1.51-2,.98-4.06,1.81-6.14,2.58-4.18,1.51-8.53,2.6-12.96,3.11-4.43.52-8.94.48-13.36-.31-4.4-.81-8.75-2.42-12.39-5.18-1.82-1.37-3.42-3.04-4.7-4.95-1.27-1.91-2.22-4.01-2.82-6.22-1.19-4.43-.84-9.17.58-13.45.7-2.15,1.66-4.21,2.79-6.15l.88-1.44c.3-.46.58-.91.84-1.37.51-.91.83-1.87.99-2.9.31-2.06.1-4.25-.17-6.41-.29-2.2-.55-4.41-.63-6.65-.09-2.24.01-4.51.44-6.74.44-2.22,1.2-4.39,2.29-6.37,1.07-1.97,2.21-3.84,3.28-5.77,1.08-1.92,2.11-3.86,3.08-5.83,1.94-3.94,3.63-8.01,4.98-12.19,1.35-4.18,2.35-8.48,3.01-12.83l.4-3.28c.13-1.09.14-2.2.22-3.3l.1-1.65c.02-.55,0-1.1,0-1.65l-.02-3.31Z" style="fill:#7f6eab; stroke-width:0px;"/><path d="M217.64,119.11c-1.46,26.02,11.96,44.72,14.88,50.67,2.92,5.95,2.58,11.89,1.63,18.79-.95,6.89.17,8.75,1.75,11.19,5.71,8.85,6.27,18.09,2.07,25.38-8.25,14.32-34.12,15.93-56.69,1.79-7.95-4.98-17.55-11.88-25.65-27.39" style="fill:#b282b7; stroke-width:0px;"/><path d="M217.64,119.11l-.02,3.31c0,.55-.02,1.1,0,1.65l.1,1.65c.08,1.1.09,2.2.22,3.3l.4,3.28c.66,4.35,1.66,8.65,3.01,12.83,1.35,4.18,3.05,8.25,4.98,12.19.97,1.97,2.01,3.91,3.08,5.83,1.07,1.92,2.21,3.8,3.28,5.77,1.08,1.98,1.84,4.15,2.29,6.37.43,2.23.53,4.5.44,6.74-.08,2.24-.34,4.46-.63,6.65-.27,2.15-.48,4.34-.17,6.41.17,1.03.48,1.99.99,2.9.25.46.54.91.84,1.37l.88,1.44c1.13,1.94,2.09,4,2.79,6.15,1.42,4.29,1.77,9.02.58,13.45-.59,2.21-1.55,4.32-2.82,6.22-1.27,1.91-2.88,3.58-4.7,4.95-3.64,2.76-7.99,4.37-12.39,5.18-4.42.78-8.94.83-13.36.31-4.43-.51-8.78-1.59-12.96-3.11-2.09-.77-4.15-1.6-6.14-2.58-1.01-.46-1.98-1-2.97-1.51-.96-.55-1.95-1.07-2.89-1.66-3.78-2.3-7.44-4.82-10.83-7.7-6.75-5.78-12.09-13.07-16.01-20.96,4.22,7.74,9.65,14.87,16.48,20.41,3.39,2.78,7.05,5.23,10.84,7.45.93.57,1.91,1.06,2.87,1.59.98.48,1.95,1,2.95,1.44,1.98.93,4.02,1.72,6.08,2.45,4.13,1.41,8.4,2.42,12.73,2.91,4.32.49,8.72.42,12.98-.36,4.24-.8,8.38-2.37,11.78-4.98,3.42-2.57,5.87-6.3,6.95-10.42,1.12-4.12.83-8.55-.5-12.64-.66-2.05-1.56-4.02-2.64-5.89l-.84-1.39c-.3-.47-.6-.95-.88-1.46-.57-1.02-.95-2.19-1.13-3.34-.33-2.32-.08-4.58.2-6.79.3-2.18.57-4.35.66-6.53.1-2.17,0-4.34-.37-6.46-.39-2.11-1.07-4.16-2.08-6.08-1.01-1.93-2.13-3.84-3.18-5.79-1.06-1.95-2.07-3.92-3.02-5.92-1.89-4.01-3.55-8.14-4.84-12.38-1.26-4.25-2.16-8.61-2.71-13-.55-4.4-.56-8.84-.32-13.24Z" style="fill:#7f6eab; stroke-width:0px;"/><path d="M93.63,119.11c1.46,26.02-11.96,44.72-14.88,50.67-2.92,5.95-2.58,11.89-1.63,18.79.95,6.89-.17,8.75-1.75,11.19-5.71,8.85-6.27,18.09-2.07,25.38,8.25,14.32,34.12,15.93,56.69,1.79,7.95-4.98,17.55-11.88,25.65-27.39" style="fill:url(#Degradado_sin_nombre_5); stroke-width:0px;"/><path d="M93.63,119.11c.28,4.4.3,8.85-.22,13.26-.52,4.4-1.4,8.77-2.63,13.04-1.27,4.26-2.92,8.4-4.8,12.43-.95,2.01-1.95,3.99-3,5.94-1.04,1.95-2.16,3.88-3.15,5.8-.99,1.9-1.65,3.92-2.03,6-.36,2.09-.45,4.23-.35,6.39.1,2.15.37,4.32.67,6.49.3,2.23.55,4.5.22,6.9-.18,1.19-.57,2.42-1.16,3.47-.29.53-.6,1.02-.9,1.48l-.83,1.38c-1.07,1.85-1.96,3.8-2.61,5.82-1.31,4.03-1.6,8.39-.5,12.42,1.06,4.05,3.46,7.7,6.82,10.22,3.34,2.56,7.42,4.1,11.62,4.91,4.21.78,8.57.87,12.87.4,4.3-.47,8.55-1.45,12.67-2.85,2.05-.71,4.09-1.49,6.07-2.41,1-.43,1.96-.95,2.94-1.42.95-.53,1.93-1.01,2.87-1.58,3.78-2.2,7.45-4.63,10.84-7.39,6.85-5.47,12.3-12.57,16.6-20.27-3.85,7.93-9.17,15.25-15.9,21.1-3.38,2.9-7.04,5.43-10.82,7.76-.94.6-1.93,1.12-2.89,1.68-.99.51-1.96,1.06-2.98,1.52-2,.99-4.07,1.84-6.16,2.62-2.09.78-4.24,1.41-6.41,1.97-2.17.54-4.39.92-6.61,1.2-4.45.54-9,.51-13.47-.27-4.45-.8-8.85-2.45-12.55-5.25-1.85-1.39-3.48-3.1-4.78-5.04-1.29-1.94-2.26-4.08-2.86-6.33-1.21-4.51-.86-9.33.58-13.67.71-2.18,1.68-4.26,2.82-6.23l.89-1.45c.3-.46.58-.9.82-1.35.49-.88.79-1.78.96-2.77.3-1.99.11-4.16-.15-6.3-.28-2.2-.54-4.43-.61-6.69-.08-2.26.03-4.55.46-6.81.46-2.25,1.24-4.45,2.34-6.44,1.08-1.98,2.23-3.84,3.31-5.76,1.08-1.91,2.12-3.84,3.1-5.8,1.95-3.93,3.65-7.98,5.02-12.14,1.38-4.17,2.4-8.45,3.09-12.79l.42-3.27c.14-1.09.16-2.19.24-3.29l.12-1.65c.02-.55,0-1.1.02-1.65v-3.31Z" style="fill:#7f77a9; stroke-width:0px;"/><path d="M217.64,119.11c-1.46,26.02,11.96,44.72,14.88,50.67,2.92,5.95,2.58,11.89,1.63,18.79-.95,6.89.17,8.75,1.75,11.19,5.71,8.85,6.27,18.09,2.07,25.38-8.25,14.32-34.12,15.93-56.69,1.79-7.95-4.98-17.55-11.88-25.65-27.39" style="fill:url(#Degradado_sin_nombre_5-2); stroke-width:0px;"/><path d="M217.64,119.11v3.31c.02.55,0,1.1.03,1.65l.12,1.65c.09,1.1.11,2.2.24,3.29l.42,3.27c.68,4.35,1.71,8.63,3.09,12.79,1.37,4.17,3.07,8.22,5.02,12.14.98,1.96,2.02,3.89,3.1,5.8,1.08,1.92,2.22,3.78,3.31,5.76,1.1,1.99,1.88,4.2,2.34,6.44.44,2.26.55,4.55.46,6.81-.07,2.26-.33,4.48-.61,6.69-.26,2.14-.46,4.31-.15,6.3.16.99.47,1.89.96,2.77.24.44.52.89.82,1.35l.89,1.45c1.14,1.97,2.11,4.05,2.82,6.23,1.44,4.34,1.79,9.16.58,13.67-.6,2.25-1.57,4.39-2.86,6.33-1.3,1.94-2.93,3.64-4.78,5.04-3.7,2.8-8.1,4.45-12.55,5.25-4.47.78-9.02.81-13.47.27-2.23-.28-4.44-.66-6.61-1.2-2.17-.56-4.32-1.19-6.41-1.97-2.09-.78-4.16-1.63-6.16-2.62-1.01-.47-1.99-1.01-2.98-1.52-.96-.56-1.95-1.08-2.89-1.68-3.78-2.32-7.44-4.86-10.82-7.76-6.73-5.85-12.04-13.17-15.9-21.1,4.3,7.7,9.74,14.8,16.6,20.27,3.39,2.75,7.06,5.19,10.84,7.39.93.57,1.91,1.05,2.87,1.58.98.48,1.94.99,2.94,1.42,1.98.92,4.01,1.7,6.07,2.41,4.12,1.39,8.37,2.37,12.67,2.85,4.3.47,8.66.38,12.87-.4,4.19-.8,8.28-2.35,11.62-4.91,3.36-2.52,5.75-6.18,6.82-10.22,1.1-4.04.81-8.4-.5-12.42-.65-2.02-1.54-3.97-2.61-5.82l-.83-1.38c-.3-.47-.61-.96-.9-1.48-.59-1.05-.98-2.28-1.16-3.47-.33-2.4-.07-4.67.22-6.9.3-2.17.58-4.34.67-6.49.11-2.15.01-4.3-.35-6.39-.38-2.09-1.04-4.11-2.03-6-.99-1.91-2.11-3.84-3.15-5.8-1.05-1.95-2.06-3.93-3-5.94-1.88-4.03-3.53-8.17-4.8-12.43-1.24-4.27-2.11-8.64-2.63-13.04-.53-4.41-.5-8.85-.22-13.26Z" style="fill:#7f77a9; stroke-width:0px;"/><path d="M159.1,215.45c-.54,0-1.08-.07-1.63-.22-3.35-.9-5.33-4.35-4.44-7.7.33-1.25,8.22-30.69,11.83-41.76.99-3.04,1.79-5.71,2.56-8.29,1.96-6.53,3.65-12.18,7.05-18.51,1.64-3.06,5.45-4.21,8.5-2.56,3.05,1.64,4.2,5.46,2.56,8.51-2.8,5.22-4.18,9.81-6.08,16.18-.76,2.53-1.62,5.39-2.66,8.58-3.51,10.75-11.56,40.81-11.64,41.11-.75,2.81-3.29,4.66-6.06,4.66Z" style="fill:#8b7eb5; stroke-width:0px;"/><path d="M147.35,251.29c.19,22.71,2.96,65.95,3.26,69.65h13.72c0-.15-2.43-23.96-2.44-24.11-.02-.21-1.77-21.01-1.98-45.65-.2-23.67,5.08-39.88,5.13-40.03.69-2.06.27-4.33-1.11-6-.15-.18-14.94-18.4-19.11-41.32-3.49-19.15-7.87-30.08-13.02-32.48-3.14-1.46-6.88-.09-8.34,3.06-1.26,2.72-.41,5.88,1.87,7.64.65.86,3.82,5.84,7.14,24.04,3.82,20.98,15.01,37.97,19.7,44.36-1.69,6.3-4.98,21.13-4.82,40.84Z" style="fill:#8b7eb5; stroke-width:0px;"/><path d="M113.09,82.69s-10.39-4.8-12.99,13.69c-2.97,21.08,1.87,47.7,1.87,47.7,0,0,18.24,1.25,23.4-2.2,5.16-3.45,8.6-6.2,9.29-4.48.69,1.72-.34,5.18,0,6.9.34,1.72,4.04-3.32,5.08-.74,0,0-2.46-5.49-6.06-11.38-2.39-3.91-11.74-14.48-20.58-49.5Z" style="fill:#a994c4; stroke-width:0px;"/><path d="M198.99,82.69s10.39-4.8,12.99,13.69c2.97,21.08-1.87,47.7-1.87,47.7,0,0-18.24,1.25-23.4-2.2-5.16-3.45-8.6-6.2-9.29-4.48-.69,1.72.34,5.18,0,6.9-.34,1.72-4.04-3.32-5.08-.74,0,0,2.46-5.49,6.06-11.38,2.39-3.91,11.74-14.48,20.58-49.5Z" style="fill:#a994c4; stroke-width:0px;"/><path d="M122.71,139.78c-.02-1.81-.91-4.46-1.39-6.2-.04.11-.11.21-.15.32.05-.32.13-.64.15-.97.14-2.53-.72-5.46-2.35-7.4-.02.08-.07.17-.09.26.2-1.05.31-2.12.24-3.19-.09-1.41-.86-7.84-3.13-7.2,0,0,0,0,0,0,.21-.54.37-.98.4-1.13.4-1.97.96-5.68-.28-7.34.58-.71,1.02-1.27,1.07-1.41.65-1.99.27-6.36-.53-8.32-.06.02-.12.07-.18.09,1.15-2.63,1.65-5.71.17-8.3,0,0-.02.02-.03.02,0-.61-.04-1.23-.12-1.84-.18-1.51-.36-3.01-.54-4.52,1.59-2.68,2.54-5.75,2.58-8.87.07-5.49-2.58-10.95-6.93-14.3-1.77,6.13-3.2,13.89-2.55,20.73-1.52,2.41-2.3,5.38-2.11,8.31,0,.11.04.27.06.41,0,0-.01-.02-.02-.02-.29,2.48-.74,5.62-.42,8.53-.06-.11-.12-.23-.17-.33-.33,2.56-1.28,5-1.72,7.54-.21,1.23-.28,2.53-.12,3.78-.08-.06-.15-.12-.24-.18-.7,3.2-.58,6.7.85,9.64-1.39,3.24-1.26,7.1.37,10.22.22.41.52.77.78,1.15-.05-.02-.1-.06-.14-.08.33,2.67.76,6.27,2.36,9.06-.12-.08-.23-.18-.35-.26.12.08-.19,5.16-.12,5.75.09.77.25,1.54.43,2.3-.06-.12-.14-.22-.2-.34-1.72,1.85-2.78,4.48-2.98,7.11-.07-.22-.08-.39.02-.48-3.13,2.67-4.61,8.45-4.09,13.25-.49-.03-1.08.3-1.75,1.18-1.9,2.5-1.87,6.67-.66,9.42.67-.27,1.27-.69,1.82-1.16,1.61.6,3.47.5,4.98-.34.96-.54,2.3-1.93,2.51-3.01,1.42-.48,2.63-1.43,3.49-2.79,1.17-1.84,3.08-5.41,3.55-7.54-.17.78-.8,1.31-1.67,1.73,1.25-1.09,2.33-2.44,3.03-3.94.84-1.8.82-4.51.82-4.51,0,0-.04.02-.05.02,2.58-2.46,4.32-6.71,4.62-10.17t0,0c.58-1.47.79-3.32.78-4.72ZM112.76,121.44c-.03-.39-.08-.79-.16-1.2.14.17.28.34.42.51-.09.23-.17.46-.26.69ZM110.15,114s0,.02,0,.03c-.07-.1-.15-.2-.22-.3.12-.02.24-.05.36-.08-.04.12-.11.25-.14.36ZM111.62,124.62c-.1.28-.18.49-.25.68-.15-.19-.31-.37-.46-.56.25.03.48-.02.71-.12ZM114.42,128.66c-.7-.73-1.42-1.42-1.82-1.88.62.61,1.24,1.23,1.82,1.88ZM117.39,138.39h0s0,0,0,0h0ZM116.16,130.76c-.04.06-.08.13-.12.19-.05-.23-.18-.5-.37-.79.16.2.34.39.5.6ZM111.84,86.61c-.14.18-.23.37-.34.56-.14-.22-.27-.45-.41-.67.24.1.48.14.75.11ZM109.49,83.15c-.15-.49-.24-.99-.28-1.49.07.51.19,1,.28,1.49ZM111.47,102.94s0,0,0,0c.07.07.17.1.29.09-.42.56-.85,1.07-1.3,1.41.01.03.02.05.03.08-.07-.15-.14-.29-.21-.44.59.11.97-.37,1.18-1.15ZM114.57,133.75c-.02.16-.07.33-.06.48-.08-.05-.16-.12-.24-.17,0,0,0,0,0,0,.1-.09.21-.19.32-.31ZM112.66,151.68c-.04.06-.09.11-.14.17-.03-.05-.05-.09-.08-.13.07-.01.14-.02.21-.04ZM109.12,159s-.06.04-.08.06c-.04.04-.1.06-.14.09-.02-.05-.04-.11-.07-.16.1,0,.19.02.29.01ZM103.01,171.25s.01-.08.02-.12c.04.06.09.12.14.17-.08.05-.16.1-.24.16.02-.07.06-.14.08-.21ZM108.89,164.6s.06-.07.09-.11c0,.03,0,.06,0,.09-.03,0-.06.02-.08.03ZM112.12,157.07c.08-.15.17-.3.24-.47.02.02.02.06.05.08.07.05.14.07.22.11-.17.09-.34.18-.51.27ZM117.59,148.16s-.04-.05-.05-.08c.15-.05.3-.1.44-.15-.13.09-.26.15-.39.23Z" style="fill:#989795; stroke-width:0px;"/><path d="M102.39,178.29s-1.44-2.24-4.44-.5c0,0-1.72,1.83-1.43,4.96.3,3.13,4.51,5.97,2.73,9,0,0,3.61-.85,3.76-4.22.14-3.36,1.53-6.04.06-8.03-1.47-2-.67-1.2-.67-1.2Z" style="fill:#989795; stroke-width:0px;"/><path d="M97.98,173.54s-.8,3.81-.04,4.71c.76.9-.65-.34-.34,0s4.76.93,5.13,1.42c.37.48,2.08-3.67,1.93-4.55,0,0-3.77-1.47-6.68-1.57Z" style="fill:#b970a6; stroke-width:0px;"/><path d="M214.06,175.03c.55.47,1.15.88,1.82,1.16,1.21-2.75,1.23-6.92-.66-9.42-.67-.88-1.25-1.21-1.75-1.18.52-4.81-.97-10.58-4.09-13.25.1.09.09.26.02.48-.19-2.63-1.26-5.25-2.98-7.1-.06.12-.14.22-.2.34.17-.76.34-1.53.43-2.3.07-.6-.25-5.67-.12-5.75-.12.08-.23.18-.35.26,1.6-2.79,2.02-6.39,2.36-9.06-.05.02-.1.06-.14.08.26-.38.57-.74.78-1.15,1.63-3.13,1.76-6.98.37-10.22,1.43-2.94,1.55-6.44.85-9.64-.08.06-.15.12-.24.18.16-1.24.1-2.54-.12-3.78-.44-2.54-1.39-4.98-1.72-7.54-.05.1-.12.22-.17.33.32-2.91-.13-6.05-.42-8.53,0,0-.01.02-.02.02.02-.14.05-.3.06-.41.19-2.93-.59-5.9-2.1-8.31.64-6.83-.78-14.59-2.55-20.73-4.35,3.35-6.99,8.81-6.93,14.3.04,3.12.99,6.19,2.58,8.87-.18,1.51-.36,3.01-.54,4.52-.07.61-.12,1.22-.12,1.84,0,0-.02-.02-.03-.02-1.49,2.58-.98,5.67.17,8.3-.06-.02-.12-.08-.18-.09-.8,1.96-1.18,6.34-.53,8.32.05.14.48.7,1.07,1.41-1.23,1.66-.67,5.38-.28,7.34.03.15.19.58.4,1.13,0,0,0,0,0,0-2.27-.63-3.04,5.79-3.13,7.2-.07,1.07.05,2.14.24,3.19-.03-.08-.07-.18-.09-.26-1.62,1.94-2.49,4.87-2.35,7.4.02.33.1.65.15.97-.05-.11-.11-.21-.15-.32-.48,1.74-1.37,4.39-1.39,6.2-.02,1.4.2,3.25.78,4.72h0c.3,3.46,2.05,7.71,4.62,10.17,0,0-.05-.02-.05-.02,0,0-.03,2.71.82,4.51.71,1.51,1.78,2.85,3.03,3.94-.87-.42-1.5-.95-1.67-1.73.47,2.13,2.37,5.7,3.55,7.54.86,1.35,2.07,2.31,3.49,2.79.21,1.09,1.55,2.48,2.51,3.01,1.5.84,3.36.93,4.98.34ZM211.69,171.14s.01.08.02.12c.02.07.06.14.08.21-.08-.05-.16-.11-.24-.16.05-.05.1-.11.14-.17ZM203.35,125.3c-.07-.18-.15-.4-.25-.68.23.1.47.14.71.12-.15.19-.31.37-.46.56ZM204.58,114.03s0-.02,0-.03c-.03-.11-.09-.24-.14-.36.12.03.24.06.36.08-.07.1-.15.2-.22.3ZM201.96,121.44c-.09-.23-.17-.46-.26-.69.14-.17.28-.34.42-.51-.08.41-.13.81-.16,1.2ZM202.12,126.78c-.4.45-1.12,1.14-1.82,1.88.58-.65,1.2-1.27,1.82-1.88ZM197.33,138.39h0s0,0,0,0h0ZM205.82,159.15s-.1-.05-.14-.09c-.02-.02-.06-.04-.08-.06.1,0,.19-.01.29-.01-.02.05-.04.11-.07.16ZM202.19,151.86c-.04-.06-.09-.11-.14-.17.07.02.14.03.21.04-.03.05-.05.09-.08.13ZM200.46,134.06c-.09.04-.16.12-.24.17,0-.15-.04-.32-.06-.48.11.12.22.22.32.31,0,0,0,0-.01,0ZM204.22,104.52s.02-.05.03-.07c-.45-.34-.88-.85-1.3-1.41.12,0,.22-.02.29-.09,0,0,0,0,0,0,.21.78.59,1.26,1.18,1.15-.07.14-.14.29-.21.43ZM205.23,83.15c.1-.5.21-.98.28-1.49-.04.5-.13,1-.28,1.49ZM203.63,86.5c-.13.22-.27.45-.41.67-.11-.19-.21-.38-.34-.56.26.03.51,0,.75-.11ZM199.06,130.16c-.19.29-.32.56-.37.79-.04-.06-.08-.13-.12-.19.16-.21.33-.4.5-.6ZM196.74,147.93c.15.05.29.1.44.15-.02.03-.04.05-.05.08-.13-.08-.26-.15-.39-.23ZM202.31,156.68s.03-.06.05-.08c.07.17.16.32.24.47-.17-.09-.34-.19-.51-.27.07-.04.15-.06.22-.11ZM205.74,164.49s.06.08.09.11l-.08-.03s0-.06,0-.09Z" style="fill:#989795; stroke-width:0px;"/><path d="M216.77,177.79c-3-1.74-4.44.5-4.44.5,0,0,.79-.79-.67,1.2-1.47,2-.08,4.67.06,8.03.14,3.36,3.76,4.22,3.76,4.22-1.78-3.03,2.43-5.87,2.73-9,.3-3.13-1.43-4.96-1.43-4.96Z" style="fill:#989795; stroke-width:0px;"/><path d="M216.74,173.54s.8,3.81.04,4.71c-.76.9.65-.34.34,0s-4.76.93-5.13,1.42-2.08-3.67-1.93-4.55c0,0,3.77-1.47,6.68-1.57Z" style="fill:#b970a6; stroke-width:0px;"/><path d="M202.35,51.51c-4.61-1.23-6.14,0-6.14,0,0,0,1.22-18.08-7.34-22.37-8.56-4.29-18.04-5.21-21.71-9.19-2.36-2.56-6.48-6.64-9.13-9.23h-2.49c-2.65,2.59-6.77,6.66-9.13,9.23-3.67,3.98-13.15,4.9-21.71,9.19-8.56,4.29-7.34,22.37-7.34,22.37,0,0-1.53-1.23-6.14,0-4.61,1.23-3.96,8.27-2.12,12.87,1.83,4.6,5.81,10.39,3.99,15.93s4.26,5.82,4.26,5.82l38.19,36.53v2.38l1.24-1.19,1.24,1.19v-2.38l38.19-36.53s6.08-.27,4.26-5.82c-1.82-5.55,2.16-11.34,3.99-15.93,1.83-4.6,2.49-11.64-2.12-12.87Z" style="fill:#aa7e67; stroke-width:0px;"/><path d="M62.42,297.36c-14.92,68.86-17.65,159.62-25.37,244.21,9.95,3.82,20.27,6.67,30.77,8.51,5.81,1.01,11.83,1.71,17.57.33,4.05-.98,7.81-2.95,11.84-3.98,17.86-4.54,35.41,10.11,53.82,9.41,12.25-.46,23.45-7.7,35.69-8.4,10.7-.61,21.21,3.82,31.9,3.16,20.14-1.25,39.28-20.17,57.87-12.3-3.48-37.35-8.42-89.89-11.9-127.24-3.42-36.6-7.45-77.31-15.83-113.1,0,0-26.93,22.99-91.41,22.99-70.9,0-94.95-23.58-94.95-23.58Z" style="fill:url(#Degradado_sin_nombre_72); stroke-width:0px;"/><path d="M153.68,321.91c-32.19,0-55.15-6.34-68.88-11.75-15.38-6.06-22.66-12.15-22.96-12.41-.4-.34-.45-.94-.11-1.34.33-.4.93-.45,1.33-.12.29.25,29.61,24.52,93.56,23.69,63.98-.77,91.29-22.23,91.56-22.45.41-.33,1.01-.26,1.33.14.33.41.27,1.01-.14,1.34-.27.22-28.1,22.1-92.73,22.87-1,.01-1.99.02-2.97.02Z" style="fill:#7f77a9; stroke-width:0px;"/><ellipse cx="186.28" cy="75.04" rx="7.71" ry="7.73" style="fill:url(#Degradado_sin_nombre_23); stroke-width:0px;"/><ellipse cx="125.71" cy="75.04" rx="7.71" ry="7.73" style="fill:url(#Degradado_sin_nombre_23-2); stroke-width:0px;"/><path d="M118.12,67.41c-1.2,3.63-1.54,7.43-1.18,11.14.37,3.71,1.38,7.35,2.95,10.72,1.56,3.39,3.64,6.53,5.99,9.46,2.36,2.93,5.01,5.64,7.76,8.29-3.13-2.17-6.05-4.69-8.63-7.54-2.59-2.85-4.81-6.07-6.46-9.59-1.62-3.54-2.62-7.37-2.76-11.26-.16-3.87.56-7.82,2.33-11.22Z" style="fill:#956a59; stroke-width:0px;"/><path d="M194.59,67.41c1.77,3.4,2.48,7.35,2.33,11.22-.14,3.89-1.14,7.73-2.76,11.26-1.64,3.52-3.87,6.74-6.46,9.59-2.58,2.85-5.5,5.37-8.63,7.54,2.74-2.65,5.39-5.36,7.76-8.29,2.35-2.93,4.44-6.07,5.99-9.46,1.57-3.37,2.59-7.01,2.95-10.72.36-3.71.02-7.51-1.18-11.14Z" style="fill:#956a59; stroke-width:0px;"/><path d="M136.43,103.1c.8,1.78,2.12,3.23,3.6,4.41,1.49,1.18,3.2,2.03,4.97,2.68,3.56,1.28,7.39,1.74,11.21,1.73,3.81,0,7.66-.37,11.22-1.65,1.77-.64,3.49-1.48,4.96-2.68.72-.61,1.43-1.25,2.01-2.01.6-.74,1.13-1.56,1.48-2.47-.42,1.92-1.61,3.63-3.01,5.03-1.44,1.4-3.19,2.44-5.02,3.21-.91.43-1.87.69-2.82.99-.96.25-1.94.44-2.91.64-.98.12-1.97.26-2.95.33-.99.04-1.97.09-2.96.11-3.93-.01-7.95-.56-11.63-2.14-1.83-.78-3.57-1.83-5.02-3.2-1.42-1.38-2.64-3.05-3.13-4.96Z" style="fill:#956a59; stroke-width:0px;"/><path d="M199.53,63.76c-5.39-6.52-2.31-10.25-2.53-17.08s-.64-23.63-11.09-24.87c-10.45-1.24-17.71-11.15-20.46-13.4-2.57-2.1-8.52,2.09-9.31,2.67-1.69-1.29-6.25-4.45-8.58-2.77-2.88,2.08-10.71,11.54-21.22,12.16-10.51.62-10.71,17.34-11.33,24.15-.62,6.81,1.03,10.73-4.74,16.92-5.77,6.19-2.56,12.63-2.56,12.63.12-7.18-.53-6.85,4.42-10.36,4.94-3.51,4.12-8.05,7.31-11.76,3.19-3.71,3.61-4.33,6.49-12.18,2.88-7.84,10.3-8.67,10.3-8.67-5.36,3.1-8.86,11.35-8.86,11.35,0,0,4.94-9.91,16.75-11.14,8.41-.88,11.26-10.55,12.21-16.05.69,5.61,3.06,14.97,11.19,16.32,11.71,1.94,16.06,12.12,16.06,12.12,0,0-3.01-8.45-8.17-11.86,0,0,7.35,1.26,9.77,9.26,2.42,8,2.8,8.64,5.76,12.54,2.96,3.9,1.87,8.38,6.6,12.18,4.73,3.8,4.1,3.43,3.8,10.6,0,0,3.58-6.24-1.81-12.76Z" style="fill:#9c9a99; stroke-width:0px;"/></g></svg>