<?xml version="1.0" encoding="UTF-8"?><svg id="Layer_2" xmlns="http://www.w3.org/2000/svg" viewBox="0 0 97 97"><g id="Capa_1"><circle cx="48.5" cy="48.5" r="48.5" style="fill:#e24339; stroke-width:0px;"/><path d="M17.72,43.89c-.24.03-.39.05-.54.07-1.37.21-2.67-.07-3.59-1.08-.85-.93-1.63-2-2.14-3.15-.89-2-.14-4.27,1.65-5.68,4.25-3.34,8.52-6.68,12.77-10.02,6.19-4.85,12.39-9.7,18.58-14.57,2.49-1.96,5.47-1.96,7.97.01,2.72,2.14,5.45,4.28,8.17,6.41.15.12.31.22.6.42,0-.88-.03-1.64.01-2.39.03-.52.06-1.08.25-1.56.46-1.19,1.35-1.88,2.65-1.91,1.65-.04,3.31-.04,4.96,0,1.63.04,2.86,1.34,2.9,3.05.03,1.55,0,3.11,0,4.66,0,1.95.02,3.9-.02,5.85-.01.58.19.93.64,1.27,3.71,2.89,7.41,5.79,11.11,8.7,2.33,1.83,2.74,4.65,1.05,7.07-.23.32-.45.65-.68.97-1.11,1.55-2.59,2.23-4.5,1.91-.11-.02-.23,0-.43,0,.1,6.51.03,28.45,0,29.33-.09,4.4-2.85,8.29-6.99,9.71-1.02.35-2.15.57-3.23.57-13.66.04-27.32.04-40.98.02-5.66-.01-10.23-4.76-10.23-10.53,0-9.43,0-18.86,0-28.28,0-.27,0-.54,0-.86ZM48.46,77.33c1.59,0,3.19,0,4.78,0,5.16,0,10.31,0,15.47,0,2.72,0,4.6-1.91,4.61-4.61,0-.87,0-10.04,0-11.81,0-6.89,0-13.78,0-20.66,0-.47-.15-.75-.51-1.04-6.88-5.38-13.76-10.77-20.64-16.15-2.17-1.7-5.28-1.72-7.45-.02-6.91,5.41-13.82,10.82-20.73,16.23-.31.24-.43.49-.43.89.01,10.9,0,21.81.02,32.71,0,.5.08,1.03.24,1.5.61,1.83,2.3,2.96,4.38,2.96,6.75,0,13.5,0,20.25,0Z" style="fill:#b6d3db; stroke-width:0px;"/><path d="M64.46,60.5c-.98-1.15-1.36-2.46-1.33-3.97.02-.87,0-1.79-.27-2.61-.74-2.24-3.31-2.79-4.98-1.13-2.87,2.86-5.74,5.73-8.59,8.61-.17.17-.28.5-.26.75.04.64-.24,1.09-.66,1.51-2.87,2.86-5.74,5.73-8.61,8.59-.5.5-.99,1.01-1.51,1.5-.62.59-1.45.61-2.06.02-1.28-1.25-2.55-2.51-3.8-3.8-.63-.65-.62-1.47.01-2.11,3.41-3.43,6.84-6.85,10.27-10.27.37-.37.82-.5,1.34-.47.24.01.54-.09.71-.25,2.78-2.75,5.55-5.52,8.31-8.3.3-.3.57-.66.79-1.03.65-1.1.5-2.22-.37-3.14-.22-.23-.45-.44-.66-.67-.25-.28-.48-.41-.91-.31-.28.06-.71-.11-.94-.32-.87-.8-1.69-1.65-2.52-2.49-.5-.51-.51-1.06-.01-1.56,1.38-1.4,2.77-2.79,4.17-4.18.61-.61,1.11-.6,1.73.01.77.76,1.52,1.54,2.3,2.29.39.37.59.77.41,1.32-.04.12,0,.31.08.41.52.61,1.11,1.13,1.95,1.22,1.03.1,1.84.58,2.55,1.33,1.08,1.15,2.25,2.21,3.31,3.37,2.38,2.59,3.61,5.61,3.11,9.18-.35,2.53-1.6,4.62-3.38,6.41-.04.04-.1.05-.2.1Z" style="fill:#b6d3db; stroke-width:0px;"/><path d="M34.18,38.66c3.31-1.13,7.32.78,8.72,4.08.67,1.58.81,3.2.36,4.85-.14.52-.02.81.36,1.16,1.23,1.11,2.42,2.25,3.62,3.38.08.08.16.16.27.28-1.02,1.02-2.02,2.02-3.03,3.01-.1.09-.28.17-.41.15-.79-.12-1.43.14-2.02.82-.38-.41-.74-.8-1.09-1.18-.66-.71-1.33-1.4-1.96-2.12-.26-.29-.48-.34-.87-.24-3.94,1.07-7.85-1.04-9.05-4.87-.43-1.36-.45-2.73-.04-4.22.25.24.45.42.63.61,1.35,1.35,2.7,2.69,4.04,4.06.27.28.51.35.88.24,1.02-.3,2.05-.57,3.08-.82.33-.08.48-.24.56-.58.25-1.03.52-2.06.83-3.07.12-.39.02-.62-.25-.88-1.4-1.38-2.78-2.78-4.17-4.17-.14-.14-.27-.28-.45-.48Z" style="fill:#b6d3db; stroke-width:0px;"/><path d="M63.91,68.52c.12.18.53.68.57.88.34,1.68-.24,3.03-1.59,4.03-1.35,1-2.81,1.04-4.27.23-.44-.24-.85-.57-1.2-.94-2.57-2.71-5.13-5.43-7.68-8.16-.07-.07-.12-.15-.2-.26.17-.18.39-.32.48-.52.22-.49.48-.99.53-1.5.04-.38.12-.65.39-.91.98-.97,1.94-1.95,2.96-2.98,3.1,2.91,9.91,9.98,10.02,10.14ZM60.12,71.57c1.04,0,1.8-.77,1.81-1.83.01-1.02-.8-1.86-1.8-1.86-1,0-1.85.82-1.87,1.81-.02,1.03.81,1.87,1.85,1.88Z" style="fill:#b6d3db; stroke-width:0px;"/></g></svg>