<?xml version="1.0" encoding="UTF-8"?><svg id="Layer_2" xmlns="http://www.w3.org/2000/svg" viewBox="0 0 176.04 127.31"><g id="Capa_1"><path d="M4.82,127.31C1.27,126.03-.12,123.47,0,119.75c.17-4.97-.06-9.96.18-14.92.41-8.4,4.38-14.82,11.43-19.36.39-.25.76-.52,1.27-.86-.34-.3-.58-.53-.84-.73-7.37-5.68-10.21-13.06-8.32-22.21,1.76-8.53,10.03-15.72,18.75-16.07,2.06-.08,2.93-.76,3.8-2.67,3.62-7.91,9.99-12.04,18.65-12.65.81-.06,1.53.07,1.95-1.02,3.46-8.82,10.02-13.49,19.42-14.15,1.12-.08,1.58-.49,2-1.5C71.79,5.12,78.14.36,87.31.02c8.88-.33,15.62,3.74,19.52,11.66,1.35,2.73,2.84,3.34,5.56,3.74,7.62,1.13,13.12,5.43,16.24,12.51.68,1.53,1.29,2.29,3.2,2.46,8.79.75,15,5.29,18.37,13.5.48,1.18,1.08,1.55,2.31,1.62,11.81.67,20.38,9.5,20.4,21.25.01,6.64-2.76,12.13-7.92,16.37-.55.45-1.12.86-1.87,1.42,1.14.78,2.22,1.44,3.22,2.21,6.56,5.13,9.67,11.92,9.66,20.2,0,4.27-.12,8.54.03,12.8.13,3.72-1.26,6.28-4.81,7.56H4.82ZM84.94,121.19c0-5.3.03-10.44,0-15.58-.03-4.32-1.54-8.12-4.4-11.32-5.02-5.6-11.28-7.76-18.56-5.69-7.14,2.03-11.93,6.89-12.93,14.25-.8,5.93-.32,12.03-.4,18.06,0,.09.14.18.23.28h36.07ZM127.47,121.19c0-5-.01-9.84,0-14.68.02-4.69-1.41-8.87-4.57-12.34-5.12-5.63-11.49-7.71-18.79-5.5-7.16,2.17-11.83,7.21-12.73,14.67-.69,5.77-.2,11.69-.23,17.54,0,.09.13.17.25.31h36.05ZM6.12,121.12h36.37c0-5.27.08-10.41-.02-15.55-.14-7.39-5.07-14.11-12.05-16.64-11.38-4.12-23.71,4.1-24.24,16.2-.12,2.66-.05,5.32-.06,7.99,0,2.65,0,5.29,0,8ZM169.89,121.16c0-5.22.06-10.35-.02-15.48-.08-5.6-2.41-10.18-6.75-13.68-5.3-4.27-11.31-5.37-17.66-2.96-6.36,2.42-10.67,7.09-11.51,13.9-.69,5.6-.33,11.33-.42,17.01,0,.39.07.79.1,1.21h36.25ZM151.79,51.51c-8.42.04-15.18,6.77-15.16,15.1.02,8.62,6.73,15.27,15.38,15.21,8.25-.05,14.98-6.99,14.91-15.39-.06-8.3-6.81-14.96-15.13-14.93ZM24.22,51.51c-8.32-.03-15.07,6.67-15.1,14.96-.03,8.37,6.75,15.27,15.02,15.31,8.48.04,15.24-6.69,15.25-15.19.01-8.35-6.74-15.06-15.18-15.09ZM51.66,66.54c-.15,8.11,6.51,15.04,14.65,15.24,8.42.21,15.48-6.51,15.61-14.85.13-8.34-6.48-15.2-14.86-15.42-8.35-.22-15.25,6.5-15.41,15.03ZM109.41,51.52c-8.35-.11-15.22,6.69-15.32,15.16-.09,8.04,6.73,14.99,14.84,15.11,8.41.13,15.3-6.49,15.43-14.8.13-8.52-6.47-15.35-14.94-15.46ZM88.14,64.21c.67-4.18,2.11-7.78,4.64-10.93,2.53-3.15,5.83-5.24,9.49-6.76-2.48-6.59-8.49-10.6-15.07-10.19-6.24.38-12.01,4.8-13.29,10.18,9.52,5.34,9.68,5.54,14.23,17.7ZM59.71,46.54c-1.64-5.74-7.52-10.08-13.79-10.24-6.5-.16-12.56,4.04-14.6,10.22,8.25,3.38,13.06,9.48,14.21,18.76,1.17-9.27,5.95-15.36,14.17-18.75ZM116.26,46.54c8.37,3.42,13.08,9.55,14.25,18.8,1.11-9.38,6-15.45,14.22-18.84-2.27-6.24-7.99-10.24-14.38-10.2-6.29.04-12.01,4.15-14.09,10.24ZM73.83,16.16c7.68,3.92,9.75,6.05,13.03,13.17.19.4.84.85,1.24.82.41-.03.99-.55,1.15-.98,1.26-3.47,3.24-6.49,6.1-8.78,2.09-1.68,4.48-2.99,6.78-4.48-1.85-5.82-7.6-9.92-14.1-9.92-6.5,0-12.24,4.09-14.19,10.17ZM52.63,31.28c.08.09.13.22.23.26,6.13,2.51,10.46,6.76,12.78,13.03.14.37.83.86,1.11.78.5-.14,1.12-.6,1.3-1.07,2.15-5.66,6.02-9.68,11.48-12.22.51-.24,1-.5,1.48-.74-2.2-6.17-7.98-10.26-14.23-10.21-6.41.05-12.32,4.3-14.14,10.17ZM123.5,31.4c-2.26-6.41-8.63-10.75-14.84-10.26-6.63.52-12.54,5.01-13.47,10.23,1.35.71,2.76,1.32,4.05,2.14,4.07,2.59,7.01,6.13,8.72,10.67.19.49.85,1.2,1.19,1.15.52-.08,1.06-.67,1.4-1.17.39-.57.55-1.3.86-1.94,2.56-5.17,6.66-8.67,12.08-10.82ZM140.46,84.57c-4.22-2.88-7.14-6.48-8.78-11.1-.13-.36-.83-.82-1.14-.74-.5.12-1.14.57-1.32,1.03-1.18,3.09-2.91,5.81-5.28,8.1-.99.96-2.12,1.78-3.35,2.8,4.26,2.34,7.44,5.52,9.92,9.72,2.41-4.27,5.73-7.38,9.94-9.81ZM35.53,84.59c4.37,2.38,7.53,5.62,10.06,9.77,2.42-4.3,5.71-7.37,9.92-9.78-4.28-2.91-7.2-6.58-8.86-11.24-.12-.33-.83-.66-1.23-.62-.4.04-.96.46-1.1.84-1.64,4.55-4.51,8.13-8.8,11.03ZM97.92,84.67c-5.64-4.66-6.45-5.93-8.68-11.1-.18-.41-.84-.85-1.26-.84-.43.01-.99.5-1.22.92-.63,1.13-.91,2.49-1.69,3.49-2.04,2.63-4.26,5.12-6.49,7.76,3.76,2.04,6.92,5.3,9.47,9.42,2.49-4.23,5.66-7.35,9.86-9.65Z" style="fill:#32677f; stroke-width:0px;"/></g></svg>