<?xml version="1.0" encoding="UTF-8"?><svg id="Layer_2" xmlns="http://www.w3.org/2000/svg" viewBox="0 0 962 754.75"><g id="Capa_1"><path d="M591.56,59.78c77.36,0,140.07,62.71,140.07,140.07v254.81c0,77.36-62.71,140.07-140.07,140.07h0c-77.36,0-140.07-62.71-140.07-140.07v-254.81c0-77.36,62.71-140.07,140.07-140.07h0M591.56,47.78c-40.62,0-78.81,15.82-107.53,44.54-28.72,28.72-44.54,66.91-44.54,107.53v254.81c0,40.62,15.82,78.81,44.54,107.53,28.72,28.72,66.91,44.54,107.53,44.54s78.81-15.82,107.53-44.54c28.72-28.72,44.54-66.91,44.54-107.53v-254.81c0-40.62-15.82-78.81-44.54-107.53-28.72-28.72-66.91-44.54-107.53-44.54h0Z" style="fill:#32667e; stroke-width:0px;"/><circle cx="591.44" cy="52.44" r="46.44" style="fill:#b6d3db; stroke-width:0px;"/><path d="M591.44,12c22.34,0,40.44,18.11,40.44,40.44s-18.11,40.44-40.44,40.44-40.44-18.11-40.44-40.44,18.11-40.44,40.44-40.44M591.44,0c-28.92,0-52.44,23.53-52.44,52.44s23.53,52.44,52.44,52.44,52.44-23.53,52.44-52.44S620.36,0,591.44,0h0Z" style="fill:#32667e; stroke-width:0px;"/></g></svg>