<?xml version="1.0" encoding="UTF-8"?><svg id="Layer_2" xmlns="http://www.w3.org/2000/svg" viewBox="0 0 97 97"><g id="Capa_1"><circle cx="48.5" cy="48.5" r="48.5" style="fill:#e24339; stroke-width:0px;"/><path d="M14.89,76.05c0-1.2,0-2.41,0-3.63,0-1.02.44-1.47,1.46-1.47.61,0,1.22,0,1.82,0,.02,0,.05-.02.1-.04v-35.87c-.6,0-1.21,0-1.81,0-1.16,0-1.57-.4-1.57-1.56,0-1.23,0-2.46,0-3.69,0-.62.26-1.03.83-1.3,3.33-1.57,6.66-3.17,9.99-4.74.27-.13.57-.2.87-.23.63-.06,1.27-.14,1.9-.11.54.02,1.11.1,1.61.3,1.04.41,1.97.4,2.89-.29,1.2-.9,2.66-.91,4.06-1.12.45-.07.91-.11,1.35-.19.15-.03.29-.17.43-.26.02-.01.03-.05.04-.07,1.09-1.18,1.23-2.66,1.28-4.16.02-.52.29-.87.75-1.1,2.28-1.08,4.57-2.16,6.84-3.26.51-.24.97-.22,1.46.02,3.91,1.87,7.82,3.73,11.74,5.59.07.03.15.06.26.11v-2.13c-.33,0-.65,0-.98,0-.79-.02-1.26-.48-1.26-1.27,0-1.49,0-2.98,0-4.48,0-.8.47-1.27,1.26-1.27,3.52,0,7.05,0,10.57,0,.79,0,1.26.49,1.26,1.27,0,1.48,0,2.96,0,4.43,0,.84-.47,1.29-1.32,1.31-.3,0-.6,0-.95,0,0,.17-.02.32-.02.46,0,1.78,0,3.56,0,5.35,0,.31.11.46.38.59,3.67,1.73,7.33,3.48,11,5.22.6.28.87.7.87,1.36-.02,1.28,0,2.57,0,3.85,0,.88-.47,1.35-1.36,1.36-.64,0-1.27,0-1.91,0-.03,0-.05.01-.11.03v35.88c.42,0,.86,0,1.3,0,.25,0,.5,0,.75,0,.85,0,1.33.49,1.34,1.34,0,1.12,0,2.24,0,3.36,0,.14,0,.27,0,.48.59,0,1.15,0,1.71,0,.44,0,.82.13,1.08.5.26.38.3.79.09,1.21-.22.43-.58.65-1.07.65-1.09,0-2.18,0-3.27,0-22.41,0-44.81,0-67.22,0-1.02,0-1.62-.69-1.35-1.53.17-.52.57-.82,1.15-.84.57-.01,1.13-.01,1.7-.02.01,0,.02-.01.09-.06ZM76.18,35.07H20.71v35.86h5.2c-.27-.5-.57-.94-.76-1.41-.13-.33-.23-.72-.17-1.06.22-1.36.51-2.71.77-4.07.03-.18.04-.38.01-.57-.21-1.47-.47-2.94-.65-4.42-.1-.83-.22-1.69-.1-2.5.25-1.62.66-3.22.98-4.83.06-.29.06-.6,0-.9-.18-1.13-.41-2.25-.59-3.39-.05-.3-.04-.64.03-.94.41-1.92.85-3.83,1.26-5.74.22-1.01.57-1.3,1.59-1.3,5.32,0,10.64,0,15.95,0,1.14,0,1.55.4,1.55,1.54,0,9.71,0,19.42,0,29.13v.44h30.37v-35.85ZM75.4,28.4c-.2-.11-.3-.17-.41-.22-8.75-4.16-17.5-8.32-26.25-12.48-.22-.11-.39-.11-.61,0-1.53.74-3.05,1.51-4.61,2.17-.8.34-1.29.74-1.18,1.68.03.28-.01.58-.07.86-.05.28-.12.58-.26.81-.51.85-1.07,1.68-1.6,2.51-.23.36-.55.57-.98.62-.63.08-1.26.2-1.89.25-1.56.13-3.05.47-4.37,1.36-.22.15-.47.24-.69.37-.39.23-.79.28-1.23.14-.77-.23-1.53-.51-2.31-.64-.88-.14-1.79-.16-2.63.23-1.52.7-3.02,1.43-4.53,2.15-.08.04-.15.09-.31.18h53.92ZM79.59,73.37H17.3v2.73h62.29v-2.73ZM43.4,61.22c-.12-.01-.21-.03-.3-.03-2.89,0-5.77,0-8.66.01-.19,0-.42.13-.56.27-2.12,2.27-4.22,4.56-6.34,6.83-.18.19-.18.33-.06.54.33.56.66,1.12.94,1.7.16.32.36.41.7.41,4.56-.01,9.12,0,13.67,0,.19,0,.38,0,.6,0v-9.73ZM27.75,55.37c1.28,0,2.49,0,3.7,0,.11,0,.25-.11.34-.2,3.82-4.12,7.64-8.25,11.45-12.38.12-.13.16-.36.25-.57h-14.57c-.37,1.67-.74,3.31-1.1,4.96-.04.17-.02.36.01.53.14.84.31,1.68.44,2.53.11.7.32,1.39.13,2.13-.25.97-.43,1.97-.65,3.02ZM17.29,32.61h62.29v-1.76H17.29v1.76ZM69.65,12.22h-8.3v2.22h8.3v-2.22ZM43.4,57.79h-16.04c.03.35.06.68.09,1.01h15.95v-1.01ZM67.36,21.9v-5.03h-3.74c0,.83.05,1.65-.01,2.45-.05.61.16.93.73,1.16,1.01.42,1.99.93,3.03,1.42ZM34.84,55.38c.46,0,.8.02,1.13-.01.17-.02.38-.1.49-.22,2.26-2.42,4.51-4.85,6.76-7.28.08-.09.19-.2.19-.3.02-.45,0-.89,0-1.45-2.88,3.12-5.69,6.14-8.58,9.27ZM39.54,55.36h3.86v-4.17c-1.3,1.4-2.54,2.75-3.86,4.17ZM30.82,61.26c-1-.25-1.25-.08-2.25.85-.64.6-.51,1.18-.3,1.9.86-.93,1.7-1.84,2.55-2.75Z" style="fill:#b6d3db; stroke-width:0px;"/><path d="M48.76,51.9c0-3.56,0-7.13,0-10.69,0-.96.43-1.41,1.38-1.41,6.21,0,12.43,0,18.64,0,.86,0,1.33.48,1.33,1.34,0,7.18,0,14.36,0,21.54,0,.89-.47,1.34-1.37,1.34-6.21,0-12.43,0-18.64,0-.88,0-1.34-.47-1.34-1.37,0-3.59,0-7.18,0-10.77ZM51.16,61.66c.66,0,1.28.02,1.9-.01.18,0,.4-.11.52-.24.6-.65,1.16-1.34,1.76-1.98.77-.83,1.53-1.67,2.35-2.43.56-.52,1.22-.94,1.86-1.38.26-.18.38-.39.41-.71.11-1.06.25-2.11.35-3.17.06-.67.38-1.07.99-1.34,2.04-.87,4.07-1.78,6.11-2.66.26-.11.34-.25.34-.52-.01-1.55,0-3.09,0-4.64,0-.12-.02-.24-.03-.35h-16.54v9.26c1.01,0,1.99,0,2.97,0,.63,0,1.01.28,1.23.86.2.53.38,1.06.55,1.6.2.65-.12,1.29-.74,1.5-.6.21-1.24-.09-1.49-.7-.09-.22-.14-.45-.24-.66-.04-.09-.16-.21-.24-.22-.67-.02-1.35,0-2.04,0v7.79ZM62.36,54.78c.55,0,1.04,0,1.53,0,.52,0,.9.24,1.13.7.3.6.61,1.21.91,1.82.31.65.11,1.33-.49,1.63-.61.32-1.29.08-1.64-.57-.17-.32-.31-.65-.49-.96-.06-.11-.21-.21-.33-.22-.96-.1-1.87-.04-2.58.74-.03.03-.06.05-.1.07-1.47.89-2.51,2.22-3.61,3.5-.03.03-.04.09-.05.14h11.07v-11.43c-1.66.73-3.28,1.44-4.89,2.15-.09.04-.18.17-.2.27-.1.7-.17,1.4-.26,2.17Z" style="fill:#b6d3db; stroke-width:0px;"/></g></svg>