<?xml version="1.0" encoding="UTF-8"?><svg id="Layer_2" xmlns="http://www.w3.org/2000/svg" viewBox="0 0 97 97"><g id="Capa_1"><circle cx="48.5" cy="48.5" r="48.5" style="fill:#e24339; stroke-width:0px;"/><path d="M42.13,60.53c-.31-1.31-.61-2.62-.93-3.93-1.09-4.49-2.18-8.97-3.27-13.46-.24-.98-.47-1.95-.72-2.93-.18-.71-.76-1.14-1.49-1.12-.73.02-1.28.47-1.42,1.2-.41,2.12-.82,4.25-1.22,6.37-.31,1.63-.63,3.27-.93,4.9-.05.29-.17.38-.48.38-5.49-.01-10.97-.01-16.46,0-.33,0-.5-.08-.59-.42-.5-1.84-1.1-3.66-1.5-5.52-.32-1.47-.46-2.99-.55-4.49-.08-1.4-.1-2.83.04-4.22.52-5.04,2.62-9.34,6.29-12.85,2.72-2.61,5.93-4.31,9.63-5.07,1.97-.41,3.97-.5,5.96-.2,1.53.23,3.02.6,4.47,1.19,4.2,1.7,7.4,4.54,9.76,8.36.05.09.11.17.2.29.16-.24.29-.46.43-.68,2.34-3.63,5.52-6.27,9.53-7.86,3.53-1.41,7.18-1.81,10.92-.92,3.44.82,6.39,2.53,8.93,4.97,2.55,2.44,4.39,5.34,5.5,8.68.8,2.4,1.11,4.87,1.08,7.4-.05,3.75-.85,7.34-2.09,10.85-.13.39-.31.49-.7.49-6.56-.02-13.11-.02-19.67-.02-1.57,0-3.13.01-4.7.01-.72,0-1.22.36-1.46,1.06-.18.5-.35,1.01-.53,1.51,0,0-.02.01-.07.03-.16-.95-.33-1.9-.48-2.84-.5-3-.99-6-1.49-9-.47-2.81-.93-5.62-1.4-8.43-.12-.74-.64-1.21-1.37-1.25-.74-.04-1.34.39-1.54,1.1-1.03,3.58-2.06,7.16-3.09,10.75-1.45,5.06-2.91,10.12-4.36,15.18-.05.17-.11.33-.16.49-.03,0-.06,0-.09-.01Z" style="fill:#b6d3db; stroke-width:0px;"/><path d="M35.99,47.47c.36,1.46.73,2.91,1.07,4.37,1.18,4.96,2.34,9.93,3.51,14.89.17.72.69,1.15,1.41,1.17.71.02,1.29-.4,1.49-1.12.89-3.08,1.77-6.16,2.66-9.24,1.55-5.38,3.09-10.76,4.64-16.13.02-.06.04-.12.15-.18.09.51.18,1.03.26,1.54.57,3.46,1.15,6.92,1.72,10.39.4,2.45.81,4.89,1.2,7.34.2,1.26,1.23,1.87,2.27,1.33.36-.19.56-.49.69-.87.68-2,1.37-3.99,2.05-5.99.09-.26.21-.32.46-.32,7.31,0,14.61,0,21.92,0,.12,0,.25.01.44.02-.25.55-.48,1.06-.72,1.55-2.14,4.45-4.73,8.63-7.76,12.53-3.05,3.92-6.47,7.49-10.32,10.63-2.82,2.3-5.78,4.38-9,6.08-1.66.88-3.41,1.48-5.33,1.38-1.51-.08-2.93-.51-4.28-1.15-3.33-1.57-6.39-3.58-9.3-5.81-3.72-2.85-7.05-6.12-10.02-9.74-2.63-3.21-4.95-6.62-6.87-10.3-.78-1.5-1.49-3.04-2.23-4.56-.09-.18-.15-.37-.25-.62.2,0,.36-.02.52-.02,5.51,0,11.02,0,16.54,0,.22,0,.43,0,.65-.03.63-.08,1.08-.54,1.21-1.21.36-1.87.72-3.75,1.07-5.62.02-.11.05-.22.08-.33.02,0,.05,0,.07,0Z" style="fill:#b6d3db; stroke-width:0px;"/></g></svg>