<?xml version="1.0" encoding="UTF-8"?><svg id="Layer_2" xmlns="http://www.w3.org/2000/svg" viewBox="0 0 103 103"><g id="Capa_1"><circle cx="51.5" cy="51.5" r="51.5" style="fill:#32677f; stroke-width:0px;"/><path d="M28.99,54.91c0-10.94,0-21.88,0-32.82,0-.6.11-1.14.67-1.42.27-.13.6-.19.9-.19,5.43-.01,10.85,0,16.28,0,7.5,0,15.01,0,22.51,0,.52,0,.93.16,1.3.53,3.11,3.12,6.23,6.24,9.35,9.36.37.37.54.77.54,1.3,0,18.6,0,37.2,0,55.8,0,.23,0,.46,0,.69-.04.68-.56,1.2-1.25,1.24-.3.01-.6,0-.9,0-15.87,0-31.73,0-47.6,0-.24,0-.49.02-.73-.02-.58-.1-1-.59-1.06-1.2-.02-.21-.01-.43-.01-.64,0-10.87,0-21.74,0-32.61ZM68.24,23.17H31.68v63.53h46.18v-53.92c-.18,0-.34,0-.49,0-2.52,0-5.04,0-7.56,0-1.09,0-1.57-.48-1.57-1.57,0-2.38,0-4.75,0-7.13,0-.3,0-.59,0-.91ZM75.77,30.1c-1.59-1.6-3.23-3.25-4.84-4.88v4.88h4.84Z" style="fill:#b6d3db; stroke-width:0px;"/><path d="M25.1,16.27c0,.2,0,.35,0,.51,0,21.42,0,42.84,0,64.27,0,.87-.55,1.48-1.32,1.48-.8,0-1.33-.59-1.33-1.51,0-15.72,0-31.45,0-47.17,0-6.2,0-12.4,0-18.6,0-1.17.46-1.63,1.64-1.63,12.9,0,25.8,0,38.71,0,.86,0,1.4.39,1.52,1.08.14.79-.4,1.5-1.2,1.57-.19.02-.37,0-.56,0-12.29,0-24.57,0-36.86,0-.18,0-.36,0-.59,0Z" style="fill:#b6d3db; stroke-width:0px;"/><path d="M54.76,66.53c-5.61,0-11.23,0-16.84,0-.93,0-1.52-.56-1.48-1.4.03-.65.55-1.19,1.2-1.25.1,0,.2,0,.3,0,11.23,0,22.45,0,33.68,0,1,0,1.64.71,1.45,1.61-.12.58-.61,1-1.21,1.04-.19.01-.37,0-.56,0-5.51,0-11.03,0-16.54,0Z" style="fill:#b6d3db; stroke-width:0px;"/><path d="M54.8,73.17c-5.63,0-11.25,0-16.88,0-.9,0-1.48-.51-1.48-1.31,0-.65.43-1.19,1.08-1.31.2-.04.4-.04.6-.04,11.11,0,22.22,0,33.33,0,.97,0,1.5.36,1.63,1.12.14.76-.41,1.47-1.18,1.54-.16.01-.31,0-.47,0-5.54,0-11.08,0-16.62,0Z" style="fill:#b6d3db; stroke-width:0px;"/><path d="M54.79,57.24c5.61,0,11.23,0,16.84,0,1,0,1.61.67,1.45,1.57-.11.61-.61,1.05-1.26,1.09-.19.01-.37,0-.56,0-11.04,0-22.08,0-33.12,0-.23,0-.46,0-.68-.05-.67-.15-1.07-.75-1-1.45.06-.63.59-1.13,1.24-1.16.33-.02.66,0,.99,0,5.37,0,10.74,0,16.11,0h0Z" style="fill:#b6d3db; stroke-width:0px;"/><path d="M54.78,77.17c5.6,0,11.2,0,16.8,0,.57,0,1.05.15,1.35.66.47.81,0,1.81-.94,1.98-.15.03-.31.03-.47.03-11.17,0-22.34,0-33.51,0-.98,0-1.58-.53-1.56-1.37.01-.68.52-1.23,1.2-1.29.17-.01.34,0,.52,0,5.54,0,11.08,0,16.62,0Z" style="fill:#b6d3db; stroke-width:0px;"/><path d="M54.74,53.24c-5.54,0-11.08,0-16.62,0-.24,0-.49,0-.72-.05-.59-.15-.97-.7-.95-1.32.02-.62.44-1.13,1.05-1.24.18-.03.37-.04.55-.04,11.07,0,22.14,0,33.2,0,.23,0,.46,0,.69.02.7.09,1.2.68,1.17,1.36-.03.69-.57,1.23-1.27,1.27-.33.02-.66,0-.99,0-5.37,0-10.74,0-16.11,0Z" style="fill:#b6d3db; stroke-width:0px;"/><path d="M54.79,37.84c-3.22,0-6.44,0-9.66,0-.71,0-1.22-.37-1.38-1-.15-.59.1-1.21.65-1.49.22-.11.49-.17.74-.17,6.43,0,12.86,0,19.28,0,.84,0,1.43.56,1.42,1.33,0,.77-.59,1.32-1.44,1.32-3.21,0-6.41,0-9.62,0h0Z" style="fill:#b6d3db; stroke-width:0px;"/><path d="M54.72,44.47c-3.19,0-6.38,0-9.58,0-1.02,0-1.67-.84-1.37-1.74.16-.47.48-.78.97-.87.19-.04.4-.05.6-.05,6.3,0,12.6,0,18.89,0,.2,0,.4.01.6.05.63.14,1.05.72,1.01,1.36-.04.64-.53,1.17-1.17,1.23-.24.02-.49.01-.73.01-3.08,0-6.15,0-9.23,0Z" style="fill:#b6d3db; stroke-width:0px;"/></g></svg>