<?xml version="1.0" encoding="UTF-8"?><svg id="Layer_2" xmlns="http://www.w3.org/2000/svg" viewBox="0 0 113 113"><g id="Capa_1"><circle cx="56.5" cy="56.5" r="54.5" style="fill:none; stroke:#32677f; stroke-miterlimit:10; stroke-width:4px;"/><path d="M83.81,72.99c0-.45.03-.9,0-1.35-.04-.46-.18-.9-.13-1.37,0-.05.02-.12,0-.14-.25-.21-.09-.49-.14-.73-.06-.24-.17-.46-.14-.73.06-.63-.24-1.23-.14-1.86-.19-.29-.05-.66-.16-.93-.25-.61-.22-1.27-.39-1.9-.14-.51-.17-1.06-.28-1.59-.09-.44-.18-.88-.25-1.32-.07-.47-.13-.94-.2-1.41-.03-.17-.11-.34-.13-.51-.02-.21.07-.47-.02-.63-.16-.29-.1-.58-.13-.87-.03-.29-.12-.58-.14-.87-.06-.95.02-1.9-.12-2.86-.16-1.13.04-2.28-.15-3.43-.15-.91.05-1.85-.14-2.79-.13-.65-.02-1.33-.14-2-.13-.75.04-1.52-.15-2.29-.11-.41.02-.86-.14-1.3-.11-.31-.03-.66-.14-1.01-.1-.31-.01-.67-.15-1.01-.09-.24-.04-.52-.14-.8-.1-.26-.11-.58-.13-.86-.04-.63-.34-1.15-.56-1.7-.13-.33-.34-.66-.6-.88-.61-.5-1.35-.75-2.15-.82-.69-.05-1.38.04-2.08-.12-.56-.13-1.18,0-1.77-.03-.57-.02-1.15-.13-1.72-.13-4.55-.01-9.1,0-13.65,0h-.54v-2.34c0-.14.06-.34-.01-.42-.22-.23-.09-.49-.13-.74-.05-.26-.11-.53-.14-.79-.04-.39-.06-.77-.12-1.15-.1-.62-.23-1.25-.29-1.87-.08-.77-.35-1.51-.31-2.3,0-.14-.09-.28-.13-.39.09-.1.15-.22.22-.24.65-.14,1.28-.34,1.89-.59.4-.17.88-.23,1.16-.64-.04-.51.03-1.04-.12-1.57-.11-.39-.02-.84-.02-1.28.1-.07.18-.14.28-.19.59-.29,1.18-.57,1.78-.85.59-.28,1.18-.57,1.77-.87,2.44-1.21,4.91-2.37,7.29-3.68,1.04-.57,2.09-1.14,3.13-1.71.31-.17.59-.42.91-.56.51-.22.95-.52,1.37-.97-.06-.22-.13-.48-.19-.73-.31-.02-.57-.05-.82.12-.34.24-.76.38-1.09.61-1.19.81-2.47,1.47-3.75,2.13-1.38.72-2.75,1.47-4.17,2.12-1.97.91-3.86,2-5.87,2.83-.2.08-.37.21-.56.32-.28-.71-.1-1.51-.71-2.02-.22,0-.42-.05-.59,0-.5.16-.99.35-1.5.5-.49.14-.96.3-1.44.48-.96.37-1.94.71-2.86,1.15-.78.37-1.59.63-2.38.96-.83.35-1.7.6-2.44,1.15-.34.25-.75.88-.87,1.39-.54.61-1.28.91-1.95,1.31-.47.28-.98.49-1.48.7-.93.4-1.86.78-2.79,1.15-.35.14-.74.16-1.04.41-.76.07-1.41.5-2.13.7-1.06.29-2.08.7-3.1,1.11-.49.2-.98.37-1.46.6-.83.41-1.65.82-2.46,1.29-.55.32-1.06.66-1.54,1.15.13.26.25.49.33.64.38.17.64.02.84-.13.27-.21.56-.37.84-.55.97-.67,2.1-1.02,3.09-1.64.6-.08,1.1-.44,1.67-.6.59-.16,1.14-.45,1.72-.65.52-.18,1.04-.34,1.55-.54.51-.2,1.06-.3,1.57-.51.65-.27,1.34-.41,1.96-.76.3-.17.66-.24.98-.37.45-.18.93-.31,1.32-.58.45-.31.93-.51,1.4-.76.11-.06.25-.06.35-.08.16.34.4.43.71.43,1.04,0,2.09,0,3.13,0,.1,0,.22.04.28,0,.29-.25.61-.09.95-.15-.03.61,0,1.15-.13,1.71-.13.58-.11,1.19-.16,1.79,0,.05.02.12,0,.14-.25.21-.1.48-.14.73-.05.26-.14.53-.14.79.04,1.55-.26,3.09-.15,4.64,0,.09,0,.18,0,.34-1.05-.1-2.02-.01-3.01-.13-.98-.11-1.99-.1-3,.08-.74.13-1.51.04-2.27.02-.74-.02-1.48.05-2.22-.11-.59-.13-1.23-.06-1.84-.02-.64.05-1.24-.16-1.86-.15-1.9.04-3.81-.12-5.7.14-.41.06-.82.07-1.22.16-.23.05-.43.22-.64.34-.89.51-1.4,1.29-1.42,2.31-.03,2.18-.03,4.36,0,6.54.02,1.14-.13,2.29.12,3.43.1.45,0,.95.02,1.42.02.46.1.91.13,1.36.06.86.1,1.72.15,2.57,0,.02,0,.05,0,.07.33.51.06,1.11.25,1.67.18.5.07,1.1.19,1.63.09.39.12.77.12,1.15.34.31.04.75.22,1.12.16.33.14.75.19,1.12.07.5.26.99.16,1.5.2.34.05.75.17,1.07.11.28.04.56.13.8.1.27.17.53.12.8-.06.3.15.52.16.8,0,.39.03.77.11,1.15.12.63.09,1.28.15,1.93.14,1.47-.06,2.94.14,4.42.13.98.01,1.99.03,2.98.02,1-.01,2,.11,3,.1.84.16,1.68.32,2.51.1.53.35,1.01.71,1.41.19.21.45.45.71.49.62.09,1.22.37,1.87.31.09,0,.22-.04.28,0,.2.18.44.11.66.14.24.03.48.11.72.13.55.06,1.1.1,1.65.15.05,0,.12-.02.14,0,.25.28.63,0,.86.16.32.22.64.1.95.11.81.03,1.61,0,2.42,0,.14,0,.32.06.42,0,.33-.21.68-.16,1.01-.12.39.04.71-.15,1.08-.16.53-.02,1.07-.03,1.57-.16.32-.08.7,0,.92-.15.32-.21.65,0,.93-.17.3-.19.64-.06.96-.09.33-.02.67.04.99-.03.68-.13.67-.15,1.25,0,.09.02.22.06.27.02.29-.24.63-.09.94-.14.34-.05.67-.11,1.01-.14.6-.05,1.19.03,1.8-.12.52-.13,1.09-.08,1.64-.14.66-.07,1.32-.26,2-.17.37-.19.79-.06,1.14-.17.25-.08.49-.08.73-.12.27-.04.53-.09.79-.14.24-.05.48-.11.72-.14.6-.06,1.19-.1,1.79-.15.02,0,.06,0,.07,0,.26-.21.58-.1.86-.15.31-.06.61-.18.94-.14.09,0,.2.01.27-.03.29-.2.65-.12.97-.22.43-.14.9,0,1.36-.13.42-.11.9-.07,1.36-.17.35-.08.7-.23,1.08-.15.7-.28,1.46-.21,2.18-.4.36-.09.76-.13,1.14-.16.39-.03.78.03,1.15-.15,1.31.1,2.61-.14,3.92-.15.5,0,1-.08,1.49-.18.47-.09.93-.26,1.4-.38.85-.21,1.77-.8,2.06-1.8.26-.88.26-1.78.4-2.67.07-.46.01-.95.01-1.42M82.14,67.74c-.73.11-1.43.22-2.19.34.64-.75,1.23-1.44,1.85-2.16.12.61.23,1.2.34,1.82M80,50.19c.11.67,0,1.36.14,2,.18.84.09,1.67.11,2.51.02.88.25,1.75.15,2.64.2.39.12.81.15,1.22.01.2.09.39.14.58.04.19-.09.43.12.59.03.02.02.09.02.13-.01.76.18,1.49.29,2.23.13.84.4,1.66.45,2.52,0,.05.08.1.19.23-.9,1.05-1.77,2.07-2.62,3.06-.54.1-.88-.13-1.15-.5-.32-.44-.44-.96-.57-1.47-.19-.73-.22-1.48-.32-2.22-.1-.82,0-1.64-.13-2.43-.1-.6-.01-1.22-.15-1.79-.15-.63,0-1.26-.13-1.86-.16-.79,0-1.59-.15-2.36-.15-.77-.07-1.53-.12-2.29-.01-.2-.07-.39-.13-.67.2-.15.46-.33.71-.53.3-.24.61-.49.89-.76.63-.61,1.24-1.24,1.9-1.89.05.38.15.71.21,1.06M76.13,49.13c.99-1.19,2.22-2.11,3.53-3.03v1.98c-.99,1.15-1.98,2.34-3.28,3.24-.33-.73-.23-1.47-.25-2.19M76.04,48.09c-.11-.59,0-1.04.24-1.46.17-.3.35-.52.74-.64.29-.08.6-.1.89-.23.21-.1.5-.02.82-.02-.92.8-1.77,1.54-2.7,2.35M55.94,34.29c-.21.2-.43.4-.7.65-.1,0-.27-.02-.47-.04.31-.54.43-.64,1.15-.97,0,.13.01.24.02.36M52.42,26.42c.44-.47.85-.97,1.23-1.42h.71c-.76.85-1.5,1.68-2.25,2.51-.09-.4,0-.76.3-1.09M52.18,25.87c.24-.35.57-.59.91-.85-.03.09-.05.19-.11.26-.19.22-.39.43-.63.69-.03-.02-.08-.05-.17-.11M52.39,27.6c.76-.83,1.52-1.65,2.33-2.53.1.2.16.34.21.44l-2.95,2.95c0-.07-.03-.22.03-.32.1-.2.24-.38.4-.55M54.87,26.15c.06.05.15.13.26.22-1.11,1.18-2.17,2.3-3.29,3.48-.02-.27-.03-.48-.04-.69,1.09-.95,1.82-2.26,3.07-3.01M52.28,29.84c.21-.24.44-.46.62-.74.19-.29.5-.5.73-.77.21-.24.47-.42.63-.73.14-.25.49-.39.81-.63.06.13.13.27.19.4-1.16,1.11-2.29,2.2-3.43,3.29-.05-.03-.11-.05-.19-.09.14-.33.43-.5.65-.74M51.69,32.01v-.72c.42-.51,1-.91,1.39-1.52.15-.23.39-.42.67-.58.32-.18.53-.52.82-.78.21-.19.46-.34.77-.58.02.36.03.61.05.91-1.22,1.04-2.55,1.98-3.69,3.26M55.46,29.1c.02.12.03.24.05.38-.69.63-1.35,1.31-2.09,1.88-.62.47-1.11,1.07-1.74,1.6-.01-.24-.02-.46-.03-.59.41-.38.78-.7,1.12-1.05.78-.82,1.71-1.48,2.56-2.22.01-.01.05,0,.12,0M51.94,33.09c.14-.09.23-.17.3-.33.07-.16.24-.27.38-.39.08-.07.2-.1.28-.18.84-.77,1.68-1.55,2.52-2.33q.22.2.22.72c-.69.72-1.4,1.31-2.13,1.86-.19.14-.33.34-.5.49-.45.39-.9.77-1.36,1.17-.17-.43-.09-.76.29-1.02M51.58,34.66c.85-.8,1.68-1.62,2.55-2.4.48-.44,1.02-.81,1.64-1.3v.77c-.59.67-1.26,1.19-2.02,1.65-.72.44-1.37,1-2.06,1.52l-.15-.15s0-.07.03-.09M53.09,34.17c.24-.26.58-.41.87-.61.31-.22.63-.43.94-.65.29-.21.57-.43.85-.64.12.22.02.39-.16.53-.63.47-1.23.96-1.8,1.5-.23.22-.51.38-.84.63h-.69c.15-.41.58-.48.83-.75M53.69,34.69c.36-.32.7-.68,1.1-.94.32-.21.56-.47.84-.71.06-.05.15-.08.27-.14v.58c-.56.45-1.16.94-1.77,1.43h-.47c.01-.09,0-.18.03-.21M56.13,23.42c-.1-.01-.22-.03-.4-.05.72-1.03,1.41-1.99,2.16-3.05v.86c-.59.75-1.16,1.48-1.76,2.24M57.91,22.23c-.36.26-.59.73-1.13.83.34-.46.69-.91,1.13-1.5v.67ZM57.87,19.25c.12.37-.03.56-.2.81-.67.94-1.27,1.93-1.93,2.88-.13.19-.29.43-.56.48-.04-.03-.06-.04-.07-.05-.01-.02-.04-.05-.03-.06.76-1.39,1.66-2.68,2.57-3.97.03-.05.12-.05.22-.1M57.61,18.98c-.66.9-1.29,1.83-1.91,2.75-.23.35-.43.72-.66,1.08-.13.21-.28.41-.39.58h-.52c1.06-1.8,2.41-3.39,3.59-5.15.1.31.07.5-.11.74M57.17,18.55c-.21.33-.32.57-.49.77-.71.82-1.37,1.68-1.9,2.62-.44.32-.56.87-.93,1.26-.22.22-.4.36-.78.36,1.08-1.65,2.13-3.26,3.12-4.77.35-.08.59-.14.98-.23M55.43,19.14c.03.05.08.11.07.13-.51.91-1.12,1.77-1.69,2.64-.35.54-.7,1.08-1.06,1.64h-.49c0-.08-.05-.16-.02-.21.14-.3.27-.61.46-.87.66-.91,1.28-1.86,1.99-2.74.22-.27.4-.51.74-.58M54.38,19.52c-.37.79-.94,1.34-1.34,2.01-.41.69-.88,1.33-1.33,2.01h-.31c.56-1.19,1.27-2.24,2.04-3.27.24-.32.48-.57.95-.74M48.31,21.99c-.15.15-.3.3-.43.43.03-.25.2-.38.43-.43M47.8,22.61s.02-.09.03-.14l.05-.05c0,.05,0,.11,0,.17-.03,0-.06.01-.08.02-.04.16-.11.28-.2.42-.1-.29.03-.37.2-.42M47.42,23.66s.02-.08.04-.1c.35-.47.77-.89,1.11-1.38.22-.32.51-.62,1.03-.77-.5.85-1.19,1.45-1.64,2.25h-.53ZM48.29,23.68s0-.09.02-.11c.41-.54.82-1.08,1.22-1.62.16-.22.3-.46.49-.64.14-.13.34-.19.53-.26.12-.04.25-.04.42-.07-.71.94-1.38,1.82-2.04,2.71h-.65ZM49.86,23.7c-.14-.01-.31-.03-.55-.05.75-1.01,1.46-1.96,2.19-2.94.02,0,.1.04.22.08-.76.91-1.31,1.89-1.87,2.91M50.92,23.68h-.68c.43-.87.85-1.71,1.49-2.41.15-.16.24-.37.35-.56.22-.38.53-.58,1.1-.57-.47.63-.93,1.15-1.24,1.76-.31.6-.68,1.18-1.02,1.78M28.48,47.37c-.04-.5.13-1.02-.13-1.5-.04-.08.07-.24.14-.48.76.28,1.49.11,2.19.24.53.1,1.05.08,1.57.12.12,0,.24.1.4.18-1.21,1.19-2.6,2.04-3.97,2.97-.07-.28-.16-.51-.19-.74-.03-.26,0-.52-.01-.78M28.58,50.06c.34-.6.9-.8,1.35-1.12.66-.46,1.32-.92,1.97-1.41.62-.47,1.19-1,1.77-1.48.4.17.89.2,1.08.7-.96.79-1.89,1.58-2.91,2.29-.99.69-1.96,1.42-3.03,2.11-.08-.4-.15-.78-.22-1.1M30.76,68.58c.1-.98-.21-1.95-.15-2.93.02-.27-.19-.5-.16-.8.03-.28.05-.57-.11-.88-.12-.22.05-.58-.04-.84-.23-.71-.11-1.48-.41-2.17-.02-.04,0-.1,0-.14-.03-.34.02-.67-.12-1.02-.12-.3-.04-.66-.14-1.01-.14-.45-.11-.95-.17-1.43-.03-.24-.11-.48-.14-.72-.03-.22.03-.45-.14-.66-.06-.07,0-.23,0-.35-.04-.6-.04-1.2-.16-1.79-.05-.27-.16-.53-.11-.8.05-.3-.18-.52-.16-.8,0-.07,0-.14,0-.2,2.15-1.55,4.48-2.84,6.38-4.8.16.4.34.76.44,1.14.09.37.06.78.16,1.15.16.55.02,1.12.16,1.64.19.77.1,1.53.11,2.29.02,2.77.01,5.55,0,8.32,0,.79.24,1.56.14,2.36.27.58.08,1.19.16,1.82-.75.75-1.45,1.47-2.36,1.96-.42.22-.73.63-1.11.94-.26.21-.61.32-.66.76-.26-.02-.48-.02-.7-.06-.25-.05-.5-.15-.74-.23,0-.3-.02-.54,0-.78M36.21,69.64c-.99.44-2.07.35-3.19.12.36-.44.75-.78,1.19-1.07.66-.44,1.32-.89,1.88-1.46.08-.08.18-.12.36-.24,0,.53,0,.97,0,1.42,0,.41.1.83-.23,1.24M49.82,81.38c-.05.02-.11.06-.17.07-.3.01-.44-.2-.55-.44-.03-.05-.07-.1-.11-.15-.42.17.13.39-.08.57-.23.08-.41.02-.52-.25-.03-.07-.13-.12-.29-.11.04.11.08.22.13.35h-.52c-.06-.1-.16-.25-.28-.44-.06.06-.17.12-.17.16.03.13.1.24.18.42-.27.01-.49.02-.68.03-.11-.17-.19-.3-.28-.44-.23.21-.03.37.02.56-.1,0-.18.01-.31.02-.11-.16-.24-.33-.36-.5-.04.02-.09.05-.13.07-.02.17-.04.34-.06.53h-.35c-.08-.16-.18-.35-.31-.62-.08.12-.18.25-.17.27.16.15.15.32.12.53-.22-.18-.41-.33-.59-.48-.03.02-.05.04-.08.07.02.04.04.09.06.13.03.06.05.12.1.23-.14.02-.24.04-.35.05-.17-.13-.14-.47-.52-.43.04.18.07.35.11.54-.08,0-.18.04-.2.02-.14-.17-.27-.36-.4-.54-.36.16.25.5-.2.66-.13-.16-.28-.35-.45-.55-.05.03-.11.06-.18.09.06.15.12.29.19.45-.62.16-.6-.37-.81-.68-.07.01-.15.03-.27.05.12.23.21.42.32.64h-.8c-.14-.15-.05-.52-.49-.56.07.24.12.45.19.69h-.56c-.29-.14-.08-.68-.63-.68.07.15.13.25.16.36.02.11,0,.22,0,.34-.28.05-.41-.09-.42-.29,0-.26-.13-.37-.43-.44.05.26.1.49.15.74q-.63-.25-.86-.56s-.12.04-.12.05c.01.1.04.2.06.33,0,0-.01.04-.04.04-.22.07-.37-.05-.47-.21-.09-.15-.13-.32-.19-.48-.21-.04-.29.03-.22.22.03.1.09.18.15.29-.5.02-.5.01-.6-.3-.03-.08-.06-.17-.1-.24-.02-.04-.07-.07-.14-.15-.02.2-.04.37-.07.56h-.5s-.03-.08-.05-.14c-.06-.14-.11-.28-.22-.55-.05.29-.07.42-.09.55-.45,0-.45,0-.54-.33-.04-.13-.11-.24-.24-.5-.03.37-.05.59-.06.81-.22-.08-.7-.36-.92-.56-.03.16-.05.28-.08.45-.09,0-.2.01-.32.02-.1-.19-.19-.38-.3-.59-.32.06-.24.2-.08.36-.03.03-.06.08-.09.08-.27.03-.44-.06-.48-.36-.01-.12-.11-.24-.18-.39-.09.11-.15.18-.21.26.02.04.06.1.1.17-.07.02-.13.05-.16.03-.48-.28-.65-.78-.66-1.25-.03-.84-.27-1.66-.16-2.5-.28-1.13-.11-2.28-.14-3.43-.03-1.14,0-2.28,0-3.45.12.04.23.11.34.11.53-.03,1.04.24,1.58.15.87.29,1.76.12,2.64.13.5,0,1.02-.1,1.43-.49.26-.25.35-.44.57-.82.15-.27.08-.57.25-.83.09-.13.02-.37.01-.56-.04-.93-.01-1.87-.17-2.78-.1-.58-.06-1.15-.13-1.77.26,0,.5.02.73,0,.34-.03.67-.09,1.01-.14.31-.05.66.13.94-.14.01-.01.05,0,.07,0,.67-.05,1.34-.09,2-.14.69-.05,1.38-.21,2.08-.14.43-.26.91-.16,1.36-.13.73.04,1.42-.26,2.22-.13,0,.16,0,.34,0,.52-.02.51.2.99.15,1.51-.05.52-.1,1.06.01,1.56.13.53.08,1.06.12,1.58.02.29.09.58.14.87.05.29-.12.61.14.87.02.02,0,.09,0,.14.05.67.09,1.34.15,2,.02.27.11.53.13.8.03.27.04.53.12.8.13.43.11.9.17,1.36.03.22.09.44.14.65.04.2-.09.42.1.6.05.05.03.17.04.26.06.74.14,1.47.41,2.17.11.27,0,.56.13.87.18.42.14.94.21,1.57-.16-.14-.2-.18-.34-.3.07.25.12.4.17.57M64.29,71.13c-.14.68-.07,1.34-.11,2.01-.04.79-.24,1.56-.15,2.36-.29,1.06-.08,2.14-.14,3.21-.02.37,0,.75,0,1.13-.12.07-.21.16-.31.17-.29.03-.58.06-.87.13-.55.13-1.15.07-1.71.18-.44.08-.91.02-1.31.27-.03.02-.09,0-.14,0-.34,0-.67.02-1.01.13-.29.09-.64-.04-.93.16-.05.03-.14,0-.21,0-.74.05-1.49.02-2.21.17-.61.13-1.23-.02-1.79.14-.73.21-1.43.01-2.18.15.29-.46.53-.84.78-1.23-.1-.05-.14-.07-.18-.09-.04.01-.1.02-.12.05-.13.21-.24.42-.38.66-.53-.43,0-.96-.11-1.44-.08.08-.13.12-.21.19-.03-.15-.04-.28-.08-.41-.03-.1-.09-.2-.13-.3.12-.18.23-.35.43-.64-.26.08-.37.11-.49.15-.05-.27-.11-.57-.18-.96.07-.15.18-.39.31-.66-.17-.03-.3-.05-.45-.08v-.63c.07-.07.16-.16.28-.28-.08-.06-.16-.13-.23-.19-.06.05-.11.09-.17.14-.07-.38-.14-.72-.2-1.03.14-.17.24-.29.36-.44-.11-.05-.16-.09-.21-.1-.07-.01-.14,0-.22,0-.25-.77.42-1.18.7-1.81-.13,0-.26-.02-.3.03-.17.21-.32.44-.54.75-.1-.67-.06-1.22.13-1.85-.15.09-.21.12-.33.19,0-.16.02-.3,0-.43-.02-.1-.1-.2-.15-.3.21-.3.41-.59.64-.92-.41-.15-.43.16-.57.38-.08-.37-.16-.71-.25-1.14.11-.08.26-.17.37-.28.11-.1.19-.24.3-.38-.33-.19-.39.13-.6.22,0-.13,0-.24-.02-.34-.02-.08-.1-.15-.17-.24.22-.24.43-.48.65-.73-.33-.29-.38.15-.6.15v-.62c.14-.26.52-.36.57-.85-.27.16-.45.27-.69.42-.02-.27-.03-.49-.05-.69l.58-.58c-.07-.06-.14-.13-.24-.22-.07.1-.15.21-.3.43v-.81c.12-.21.49-.33.55-.69-.3-.16-.35.16-.55.22-.07-.4-.14-.8-.21-1.17.12-.12.2-.2.34-.33-.12-.06-.24-.12-.29-.15v-.96c.13-.14.29-.28.41-.45.1-.13.17-.29.31-.52-.16.07-.26.1-.33.15-.12.1-.22.21-.37.37v-1.12c.1-.12.2-.24.34-.41-.14-.05-.21-.08-.33-.13v-.63c.26-.33.56-.7.87-1.1-.31-.17-.38.04-.48.21-.1.15-.23.29-.35.45-.11-1.24-.23-1.07.5-2.04-.14-.27-.25-.06-.4.05v-.93c.16-.14.41-.37.67-.61-.31-.18-.35.28-.65.23-.12-.23-.02-.51-.07-.83.27-.31.56-.63.88-.99-.12-.01-.23-.02-.38-.04-.08.1-.16.21-.32.42-.02-.37-.03-.62-.04-.91.27-.24.56-.5.86-.77-.01-.03-.03-.09-.07-.18-.21.1-.4.2-.62.31v-.97c.29-.24.62-.52.96-.8-.06-.06-.13-.12-.2-.18-.2.11-.3.39-.59.42.04-.23.07-.44.11-.68.18-.37.64-.32.96-.54-.06-.06-.12-.13-.16-.18-.17.04-.33.08-.48.11-.04-.06-.06-.08-.06-.09.1-.2.18-.41.31-.58.07-.1.22-.14.34-.19.26-.1.54-.18.8-.29.06-.03.09-.13.07-.28-.11.05-.21.11-.32.14-.11.02-.22,0-.38,0,.31-.5.83-.6,1.24-.83.31-.17.7-.26,1.07-.33.48-.1.96-.1,1.44-.12.24-.01.51-.18.72-.12.55.18,1.11.08,1.65.13.31.03.61.17.94.14.32-.02.62.02.94.11.38.11.81.06,1.22.15.76.17,1.52.32,2.18.74.73.46,1.2,1.17,1.41,2.01.19.8.24,1.62.33,2.44.12,1.03-.03,2.07.13,3.07.2,1.27-.03,2.54.14,3.78.16,1.15.08,2.29.11,3.43.03,1.14,0,2.27,0,3.52-.77-.73-1.59-.75-2.49-.44-.18.19-.39.41-.69.72-.04.4-.08.92-.12,1.3.24.61.54,1.01.93,1.34.21.17.43.34.73.3.27-.04.51.2.82.02.21-.13.51-.09.82-.13,0,.73.11,1.48-.03,2.18M63,66.63s.09-.07.22-.18c-.12.55-.54.67-.72,1-.06-.05-.11-.1-.16-.15.22-.22.44-.44.67-.66M62.24,66.91s-.03-.03-.05-.05q.22-.4.62-.47c-.22.2-.39.36-.57.52M63.32,67.08s0,0,0,0h0s.07-.02.1-.03c-.1-.06-.09-.14-.09-.25.1,0,.18.01.27.02-.09.13-.15.23-.22.34-.02-.02-.05-.05-.07-.07,0,0,0,0,0,0-.2.28-.42.49-.62.69-.05-.29.15-.53.62-.69M63.84,67.11c0,.33-.32.67-.81.81.31-.3.56-.56.81-.81M64.76,49.8c.05-.61-.22-1.13-.51-1.64-.37-.65-.8-1.23-1.52-1.58-1.1-.54-1.35-.67-2.36-.84-.35-.29-.8-.08-1.19-.21-.36-.12-.78-.05-1.18-.08-.29-.03-.57-.11-.87-.13-.31-.02-.65.08-.92-.02-.67-.25-1.34-.06-2.01-.12-.27-.02-.5.18-.8.15-.23-.02-.48.08-.72.13-.26.05-.56.04-.79.15-.49.24-1.01.47-1.44.83-.93.77-1.5,1.79-1.9,2.91-.12.33-.12.71-.18,1.06-.04.24-.1.48-.14.72-.04.22.11.48-.14.66-.02.02,0,.09,0,.14,0,.24.02.48,0,.71-.02.22-.13.44-.13.65,0,1.36-.21,2.7-.16,4.06.05,1.47.01,2.93.01,4.46-.42,0-.77-.01-1.13,0-.88.04-1.77.02-2.64.17-.49.08-.97.03-1.44.13-.53.12-1.07.04-1.57.15-.39.08-.77.09-1.15.12-.29.02-.57.1-.86.14-.29.03-.58.04-.87.12-.29.08-.71.18-1-.19,0-2.44,0-4.9,0-7.36,0-.19.13-.39.13-.58-.01-.34-.12-.67-.13-1.01-.02-.78-.04-1.57,0-2.35.02-.34-.15-.62-.17-.94-.01-.29,0-.57-.1-.88-.11-.32-.09-.71-.18-1.07-.06-.24-.05-.5-.16-.72-.13-.26-.2-.54-.34-.78-.13-.23-.24-.49-.4-.69-.49-.61-1.13-1.04-1.91-1.19-.71-.14-1.43-.23-2.15-.32-.65-.08-1.31-.01-1.93-.14-.49-.1-.96-.09-1.51-.12v-.54c0-1.85.02-3.7-.01-5.54,0-.4.09-.78.17-1.15.1-.41.45-.7.84-.87.22-.1.48-.11.72-.15.33-.05.67-.11,1.01-.14.33-.02.68.06.99-.02.97-.26,1.97-.2,2.93-.1,1.29.13,2.58-.03,3.85.14,1.1.15,2.19.08,3.29.11,1.09.03,2.18.04,3.27,0,.48-.02.96-.23,1.43-.12,1.12.26,2.24.12,3.36.12,3.6.02,7.2,0,10.81,0,2.73-.29,5.46-.09,8.19-.13.76-.01,1.52.11,2.29.13.78.02,1.58-.09,2.34.03.96.16,1.91.06,2.86.12.49.03.96.19,1.38.43.31.18.52.53.63.86.22.63.38,1.28.45,1.95.04.36.07.73.16,1.07.09.34,0,.73.26,1.03.01.01,0,.05,0,.07,0,.48.03.96.12,1.44.09.48.02.99.02,1.53-.53,0-1.05,0-1.57,0-.6-.01-1.14.27-1.73.29-.4.33-.87.55-1.13,1.06-.25.5-.45.98-.41,1.54.01.24,0,.48,0,.71.04,1,.01,2.01.17,2.99.1.65.09,1.29.11,1.94.01.41.21.79.16,1.22-.05.42-.1.88,0,1.27.19.67.07,1.34.13,2.01.03.36.11.72.13,1.08.02.35-.05.72.02,1.06.07.34.17.66.1,1.05-.19,0-.4-.01-.61,0-.57.04-1.15.11-1.72.13-.59.02-1.2-.09-1.77.03-.98.2-1.96,0-2.93.14-.93.13-1.86.11-2.79.13-.12,0-.23,0-.39,0,0-.99-.02-1.95,0-2.92.02-.63-.22-1.22-.16-1.86.05-.64.11-1.3-.01-1.91-.16-.77,0-1.54-.14-2.29-.14-.82-.04-1.68-.4-2.46M82.66,73.57c0,.67-.1,1.34-.17,2-.06.53-.03,1.17-.54,1.64-.21-.19-.43-.39-.7-.64-.02.39.23.59.39.82-.06.07-.13.14-.2.23-.41-.14-.56-.62-.96-.76-.04.06-.06.1-.12.17.19.21.39.43.62.68-.18.08-.34.14-.51.21-.14-.42-.49-.61-.76-.95-.02.15-.04.26-.06.4.2.17.42.34.63.52-.02.04-.05.08-.07.11-.09-.03-.21-.03-.27-.09-.26-.24-.51-.5-.78-.77-.28.47.37.57.37.97-.16.02-.31.03-.41.04-.45-.09-.37-.69-.89-.74.04.13.04.26.1.31.16.14.23.29.18.54-.1,0-.2.02-.34.03-.17-.23-.44-.37-.55-.68-.04-.12-.19-.3-.42-.07.16.2.33.41.55.68-.25.03-.42.05-.57.07-.29-.22-.29-.69-.76-.73.06.27.17.48.46.68-.18.02-.29.03-.39.05-.2-.16-.39-.32-.65-.54.05.29.08.46.12.67-.68.06-.71-.5-.95-.85-.06.01-.13.03-.24.06.12.26.23.49.35.73-.26.18-.36-.02-.45-.17-.21-.34-.21-.34-.53-.46-.19.31.34.36.21.67h-.53c-.14-.18-.31-.42-.54-.72-.02.11-.04.2-.06.3,0,.11.29.25.11.56h-.34c-.24-.19-.24-.65-.67-.69-.03.03-.06.07-.11.14.14.16.29.34.44.51-.1.05-.22.11-.32.17-.27-.27-.55-.55-.85-.85-.26.47.18.57.32.82-.1.05-.21.11-.37.19-.17-.26-.36-.54-.55-.82l-.17.17c.09.19.18.4.3.64h-.45c-.21-.08-.12-.58-.57-.54.11.23.2.43.36.79-.25-.13-.38-.16-.45-.24-.15-.17-.27-.38-.41-.57-.33.39.34.54.14.9-.43-.11-.55-.56-.89-.83-.12.44.45.56.19.92h-.32c-.14-.28-.27-.56-.38-.8-.09.06-.19.12-.29.18.14.21.25.37.39.57-.32.14-.38-.06-.49-.24-.09-.15-.23-.27-.35-.41-.26.36.15.49.27.79-.04.04-.09.08-.1.1-.13-.04-.19-.04-.21-.07-.11-.27-.21-.55-.46-.73-.06-.05-.15-.07-.24-.1-.03.41.57.58.28,1.07-.08-.07-.16-.12-.19-.18-.11-.22-.19-.45-.3-.66-.03-.05-.15-.06-.34-.12.15.34.25.57.36.82-.06.04-.11.07-.19.13-.15-.26-.28-.5-.42-.77-.3.26.07.46.03.71-.45.08-.36-.43-.65-.52-.14.17-.05.33.09.5-.11.07-.22.14-.4.25-.01-.18-.02-.29-.02-.4,0-.73-.02-1.47,0-2.2.01-.36.11-.72.13-1.08.02-.38-.08-.78.02-1.13.22-.81,0-1.64.14-2.43.22-1.19-.02-2.39.15-3.57.15-1.01.09-2,.11-3,.03-1.02,0-2.04,0-3.06v-.54c.09,0,.11,0,.14,0,1.07,0,2.15.1,3.2-.03,1.05-.13,2.11.02,3.14-.14,1.01-.16,2-.06,3-.12.17,0,.34-.08.53-.13.17.08.25.21.24.43-.02.23,0,.47,0,.71-.04.7.14,1.38.17,2.07.03.74.3,1.48.6,2.16.5,1.1,1.34,1.77,2.6,1.9.31.03.58-.05.88-.04.31.01.61.04.95-.09.33-.13.76-.05,1.14-.2.07.48.16.92.23,1.37.07.44,0,.89.13,1.29.21.67.11,1.34.11,2.01" style="fill:#32667e; stroke-width:0px;"/><path d="M73.02,91.57c.12-.02.18-.04.31-.06-.08-.38-.15-.74-.24-1.22-.16.19-.24.29-.34.42v-.84c-.23-.31-.37-.64-.61-.76-.31-.16-.39-.47-.63-.69-.13,0-.28-.03-.4,0-.14.04-.26.17-.4.22-.12.05-.27.03-.4.06-.14.02-.27.06-.41.09-.02-.07-.03-.14-.05-.22h-.8c-.18-.37-.36-.74-.54-1.11.07-.02.15-.05.26-.1-.04-.13-.1-.26-.11-.38,0-.14.05-.28.08-.42,0-.05.02-.11,0-.14-.22-.29-.1-.62-.14-.94-.06-.5-.21-.97-.61-1.3-.04-.03-.12-.02-.21-.03-.02.15-.04.28-.07.45-.17-.07-.3-.13-.35-.15-.16.16-.28.28-.38.38.09.5.19,1.02.3,1.61-.05.04-.16.12-.2.14-.18,1.11.1,2.13.1,3.15,0,.05-.02.1,0,.14.34.64.09,1.22-.15,1.82.09.16.18.33.24.44-.04.18-.08.31-.09.44-.01.28-.07.59.01.85.1.29-.1.54-.02.81.06.21-.09.47.14.66.05.04.05.22,0,.27-.27.26-.07.58-.14.85.3.29.34.76.78.98.19-.4.52-.59.94-.76.05.08.13.19.2.3.12-.12.2-.2.3-.3.17,0,.41.07.54-.02.13-.09.38-.02.41-.3.01-.09.31-.11.43-.22.1-.1.11-.28.15-.38.15-.1.28-.19.42-.28v-.97c.26.12.47.23.78.37.19-.5.37-.97.56-1.48.13.03.29.08.45.12-.24-.32-.62-.58-.52-1.09.21.05.4.09.59.13.02,0,.06-.05.1-.09-.09-.03-.17-.06-.29-.1,0-.12.02-.25.02-.35M72.36,91.4s.03.06.05.09c-.02.02-.04.04-.05.05-.02-.03-.04-.06-.04-.1,0-.01.03-.03.04-.05M71.77,89.59s.12-.02.18-.01c.02,0,.03.03.05.05-.03.03-.05.08-.09.09-.06.03-.13.04-.19.05.01-.06.01-.15.05-.18M67.97,96.06s-.12.02-.18.01c-.02,0-.03-.03-.05-.05.03-.03.05-.08.09-.09.06-.03.13-.04.19-.05-.01.06-.01.15-.05.18M68.61,95.59c-.01.13-.03.32-.05.5-.42.04-.15-.41-.58-.41.36-.22.56-.34.79-.48.14.15.25.28.44.49-.24-.04-.4-.06-.6-.09M71,93.32c-.16.15-.37.26-.54.41-.16.14-.3.3-.46.45,0,.21.3.38.05.67-.1-.22-.18-.42-.29-.66-.24.31-.73.29-.81.75h-.37c.06-.1.1-.17.16-.25-.1-.21-.2-.42-.29-.65-.03-.08-.05-.23,0-.27.25-.21.07-.49.16-.75.06-.02.14-.05.27-.09-.07-.34.02-.68-.12-1.06-.17-.49-.03-1.04.26-1.5.15-.25.41-.34.69-.37.16-.02.33,0,.46,0,.23.15.43.29.67.44.03-.14.05-.2.06-.28.49-.06.95-.06,1.29.42-.19.14-.34.25-.54.39.13.15.24.27.35.39.13.89-.43,1.44-1,1.99M72.13,93.8c-.2,0-.42.02-.78.04.22-.14.34-.19.42-.28.09-.1.16-.22.23-.34.04.02.08.04.13.06v.52ZM72.37,93.24s-.06-.08-.1-.12h0s.03-.03.03-.03c-.06,0-.1-.04-.14-.07.02-.02.03-.03.05-.05.03.04.06.08.1.12h0s-.03.03-.03.03c.06,0,.1.04.14.07-.02.02-.03.03-.05.05" style="fill:#32667e; stroke-width:0px;"/><path d="M33.65,86.99c-.19-.01-.38-.05-.59-.08-.01-.08-.04-.21-.07-.45-.18.32-.32.56-.46.81-.04-.1-.07-.18-.12-.3-.25.09-.5.27-.79.03-.11-.08-.36,0-.54.03-.08.01-.15.08-.28.16-.15-.16-.29-.3-.42-.43-.24.17-.49.35-.75.52-.12-.06-.21-.12-.3-.16-.11.06-.2.12-.26.16-.16-.07-.27-.12-.38-.16-.05.13-.08.22-.13.38-.12-.15-.2-.25-.31-.38-.3.06-.63.13-1.02.2-.06-.11-.13-.23-.23-.4-.11.32-.23.54-.26.78-.03.22.04.45.05.63-.16.1-.33.16-.36.25-.09.28-.33-.13-.34.07,0,.22-.17.17-.31.26.09.21-.04.44.11.7.15.25.23.63.16.91-.09.32-.11.62-.11.88-.17.26-.32.49-.49.76.12.08.21.14.35.24.05-.08.12-.2.19-.32.1.2.06.37.1.52.17.68.13.8.04,1.39-.08.48-.06.98-.01,1.47.02.22.19.43.27.59.32.13.55-.28.8,0l.23-.23h.35c.04.1.07.19.1.3.14-.07.25-.13.27-.14.36.05.62.09.84.12.42-.37.42-.36.79-.12.16.11.34.18.53.28.1-.17.18-.3.28-.45h.27c.1.16.18.29.28.45.27-.06.53-.14.8-.17.27-.03.5.23.79.14.06-.02.13-.03.16-.04.08-.08.13-.13.18-.18-.05-.05-.09-.1-.09-.1.24-.38.47-.73.7-1.1-.13-.01-.22-.02-.3-.03-.02-.2-.04-.38-.06-.62-.18.3-.33.2-.45.11-.27.08-.21.29-.24.47,0,.03-.07.04-.17.09-.11-.14-.22-.3-.34-.46h-.28c-.03-.08-.06-.16-.11-.3-.48.06-.97.13-1.45.19-.13.23-.25.46-.45.82-.03-.32-.05-.51-.08-.76-.23.32-.49-.17-.67.13.04.05.09.1.13.15-.43.05-.42.04-.69-.13-.15-.09-.32-.23-.47-.22-.37.02-.55-.17-.7-.44.1-.56.29-.98.95-1.03.29-.03.56-.23.94-.4.25-.02.65.1.95-.23-.04-.04-.07-.07-.13-.13.11-.08.22-.16.33-.24-.18-.24-.34-.43-.49-.63-.01-.01-.06,0-.1,0-.01.11-.02.22-.04.34-.44.11-.8-.05-1.12-.28-.11.08-.18.13-.26.18-.1-.06-.2-.11-.29-.16-.22.11-.44.21-.63.3-.34-.26-.3-.57-.17-.84.13-.28.08-.55.06-.82,0-.16-.13-.32-.2-.49h-.27c-.12-.18-.23-.36-.37-.57.56,0,1.09.05,1.55-.21.03-.12.05-.22.07-.33.02,0,.04,0,.06.01.01.11.03.22.04.35.16.06.37.22.48.17.3-.15.62-.09.92-.18.49-.14.99-.25,1.48-.37.12.11.24.21.36.32.29-.21.56-.39.82-.58.04.1.07.19.11.31.29-.06.58-.11.87-.16.03.03.08.08.14.12.05-.32.14-.51.45-.95.06.11.13.22.18.35.04.09.04.19.09.42.1-.45-.03-.78.18-1.09-.23,0-.44,0-.65,0M32.53,94.96s.03.06.05.09c-.02.02-.04.04-.05.05-.02-.03-.04-.06-.04-.1,0-.01.03-.03.04-.05M30.26,87.28s-.05-.04-.04-.05c0-.03.03-.06.04-.1l.05.05s-.03.06-.05.09M32.49,87.82v-.24s.05,0,.07,0c.02.08.04.15.05.23-.04,0-.08.01-.12.02M33,87.7h-.07v-.28h.07v.28Z" style="fill:#32667e; stroke-width:0px;"/><path d="M65.71,95.52c-.3-.16-.61-.32-.95-.49.17-.45-.57-.52-.44-.99-.43-.22-.13-.83-.58-1v-.79h-.56c0-.11.02-.18.02-.25.14-.02.27-.05.39-.07-.16-.42-.33-.8-.63-1.11-.03-.03-.06-.08-.06-.11,0-.57-.53-.71-.85-1.02-.27-.25-.57-.36-1.07-.24-.06.07-.19.24-.31.4-.35-.05-.66-.28-.97-.13-.09.28-.1.58-.26.77-.15.19-.44.26-.68.39.07.07.11.12.16.18-.19.09-.37.17-.55.25v.61s.14.09.27.16q-.44.04-.7.25c.34.23-.1.58.13.82-.34.32-.06.64.01.94.08.32.31.59.3.94,0,.07.12.14.19.22.06-.12.1-.21.15-.31.13,0,.24.01.4.02-.08.18-.14.29-.21.45.16.22.32.46.48.67h1.48c.32-.45.8-.46,1.28-.42.07-.16.12-.28.17-.41-.1-.02-.16-.03-.26-.05.26-.29.49-.57.72-.83.18.21.34.4.5.58.07.09.21.19.2.27-.06.4.3.43.51.55.22.13.51.14.76.2.03.09.06.18.08.25h.73c.26-.17.24-.42.18-.72M58.28,92.68s-.04-.06-.04-.1c0-.01.03-.03.04-.05.02.03.03.06.05.09-.02.02-.04.04-.05.05M61.76,93.17c-.08.17-.15.35-.24.51,0,0,0,.02,0,.02.19-.08.15-.09.11-.1.07-.02.13-.05.2-.06.02,0,.05.05.14.16-.18.04-.35.07-.51.1-.01.02-.03.03-.05.04-.16.2-.36.36-.68.41-.08.01-.15.1-.23.14-.27.13-.53.27-.81,0-.05-.05-.18,0-.27,0,.05-.01.09-.03.13-.04-.12-.03-.21-.14-.22-.26,0,0,0-.02,0-.03-.1-.02-.12-.06-.14-.11.04-.06.1-.13.16-.21-.15-.11-.3-.22-.5-.37.22-.11.39-.2.6-.3.09-.17.2-.38.33-.64v-.67c.34-.27.57-.64.98-.85.43-.22.83-.33,1.32.06.13.19.2.47-.03.77.08.51-.09.99-.29,1.44M62.57,94.23s-.06-.03-.09-.05c.02-.02.04-.05.05-.04.03,0,.06.03.1.04l-.05.05Z" style="fill:#32667e; stroke-width:0px;"/><path d="M86.46,94.99c-.21.1-.29.08-.47-.01-.12-.06-.32.08-.47.04-.51-.12-1-.27-1.48-.19-.34-.29-.41-.3-1.02-.44-.36-.08-.71-.21-1.03-.3v-.42c.24.04.51.18.64.1.24-.15.4-.03.59.03.02-.15.04-.27.06-.39.02,0,.05,0,.07,0,.02.13.04.26.06.4h.27c-.03-.29-.05-.56-.08-.86.07-.04.17-.1.27-.17.03.31.3.32.45.46.08-.18.16-.36.25-.54.07.04.16.13.21.11.34-.1.66-.22,1-.34.01-.1.02-.21.04-.31.1-.04.19-.08.35-.15-.16-.17-.27-.29-.4-.43.15-.04.23-.06.28-.08-.05-.12-.1-.19-.11-.28,0-.03.08-.07.13-.11h0c-.16-.2-.32-.39-.48-.58-.07.06-.12.1-.15.13-.14-.07-.25-.13-.39-.2.02-.15.04-.31.07-.57.08.19.11.27.19.47v-.65c-.23-.18-.42.23-.63-.03-.03.09-.06.17-.11.31-.12-.16-.21-.3-.32-.45-.04.12-.07.2-.1.29-.06-.06-.11-.1-.17-.15-.21.07-.41.14-.6.2-.03.09-.06.17-.08.21-.26.07-.4-.05-.51-.21-.08-.11-.13-.23-.22-.33-.02-.03-.12,0-.19.02.05.13.09.23.17.45-.23-.07-.35-.11-.48-.16v.25c.08,0,.17,0,.28.02,0,.1-.01.18-.02.27-.13-.09-.23-.15-.34-.22.02-.03.05-.05.07-.07-.18.07-.34.26-.54.1-.03-.09-.05-.16-.09-.27-.06.14-.1.22-.15.34-.05-.13-.08-.21-.13-.34-.09.09-.16.16-.22.22.07.09.1.13.15.19-.1.04-.18.07-.31.11.06.2.12.38.18.57-.1.08-.19.15-.28.22.04.03.08.06.12.09-.02.02-.03.03-.05.05-.03-.04-.07-.08-.1-.12,0,0,.02-.02.02-.02-.08-.04-.16-.08-.21-.11-.09.04-.17.11-.25.11-.07,0-.14-.07-.23-.12-.3.53-.12,1.1-.18,1.64-.06.55.19,1,.47,1.44.28.44.47.98,1.05,1.06.1.21.18.38.27.58.16-.05.3-.09.46-.14.63.29,1.27.61,2.03.59.05-.05.12-.12.23-.23.18.03.43.02.62.11.26.12.46-.04.68-.03.21,0,.46.22.62.16.25-.1.43.04.53.05.2-.16.32-.27.43-.36v-.84c-.2-.32-.56-.28-.76-.18M83.89,92.4c-.1-.13-.31-.17-.16-.44.1.13.31.18.16.44M84.29,92.65s-.03-.03-.05-.04c.03-.02.06-.04.1-.04.01,0,.03.03.05.04-.03.02-.06.04-.1.04M85.38,91.76s-.04.05-.05.04c-.03,0-.06-.03-.1-.04.02-.02.03-.03.05-.05.03.02.06.03.09.05M81.18,90.69l.05.05s-.03.06-.05.09c-.02-.02-.05-.04-.04-.05,0-.03.03-.06.04-.1M81.59,94.99c.07.2.11.3.13.35q-.15.04-.13-.35M81.25,92.68v.71c-.14-.21-.2-.31-.28-.43.06-.25.13-.55.21-.85.05.05.08.08.15.14.43-.77,1.05-1.33,1.9-1.61-.03-.06-.06-.12-.11-.2.07-.01.14-.03.21-.04.03.09.06.17.1.29.2-.13.4-.26.65-.42h.54c.19.24.39.51.65.84-.16-.03-.27-.06-.43-.09-.01.08-.03.2-.05.33-.13.06-.27.13-.41.2-.03.04-.06.08-.1.12-.02-.04-.03-.08-.05-.12-.06.08-.13.15-.22.27h-.54c-.1.22-.19.42-.31.68-.3-.3-.57-.31-.81-.06-.09-.08-.14-.13-.19-.18-.13.13-.26.27-.41.42h-.51ZM82.32,95.38s-.03-.03-.05-.05c.02-.03.03-.06.05-.09.02.02.05.04.04.05,0,.03-.03.06-.04.1M82.56,95.36v-.24s.05,0,.07,0c.02.08.04.15.05.23-.04,0-.08.01-.12.02M84.17,95.24s-.05-.04-.04-.05c0-.03.03-.06.04-.1l.05.05s-.03.06-.05.09M86.13,95.5s-.03-.03-.05-.04c.03-.02.06-.03.09-.05.02.02.04.04.05.05-.03.02-.06.04-.1.04" style="fill:#32667e; stroke-width:0px;"/><path d="M57.03,93.84c-.22-.06-.43-.04-.63.11-.1.08-.24.13-.36.14-.54.07-1.09.12-1.65.19-.07.12-.15.25-.25.42-.16-.06-.32-.12-.46-.17-.16.06-.31.11-.41.15-.13-.13-.23-.23-.33-.33-.33.1-.65-.11-.91.17-.02.02-.11.03-.14,0-.35-.3-.77-.06-1.1-.14-.19-.1-.43-.28-.48-.24-.33.3-.12-.33-.33-.18-.28-.25-.58-.47-.82-.75-.19-.22-.14-.51-.09-.79-.08-.03-.17-.06-.27-.09.06-.3.14-.59.17-.87.03-.33,0-.66,0-.92.15-.16.26-.28.39-.42h.23c.21-.32.42-.63.63-.95-.03-.03-.07-.08-.13-.16.09-.01.16-.04.22-.03.07,0,.08.18.24.06-.13-.2-.26-.41-.4-.63-.05.11-.08.19-.11.27-.02,0-.05-.02-.07-.03v-.48c.1-.04.19-.09.34-.15-.12-.14-.2-.23-.28-.33-.12.12-.21.23-.32.32-.2.14-.41.27-.62.4-.93.59-.94.68-1.29,1.76-.14.44-.14.92-.39,1.33-.06.1.03.31.06.46.02.09.08.17.07.25-.1.59.17,1.09.39,1.61.1-.05.19-.09.3-.15.12.44.22.86.31,1.18.19.11.28.16.37.21.08-.08.17-.17.25-.25.38.13.29.59.58.83h.69c.22.15.41.28.67.46.25-.05.58-.1.84-.15.24.26.45.49.62.68h.39c.5-.27.67-.69,1.39-.98h0s.25.11.45.13c.43.05-.19.24.13.29.35-.18.76-.39,1.17-.28.26-.24.49-.45.72-.66-.19-.48.46-.8.22-1.31M48.68,91.65h-.28v-.07h.28v.07ZM52.42,96.07s-.03-.03-.05-.04c.03-.02.06-.04.1-.04.01,0,.03.03.05.04-.03.02-.06.04-.1.04M53,95.49q-.05-.21.3-.19c-.14.09-.23.14-.3.19M54.95,95.83s-.02-.02-.57-.17c.57.11.61.07.64.03.02.02.03.03.05.05-.04.03-.08.07-.12.1" style="fill:#32667e; stroke-width:0px;"/><path d="M40.3,94.29c-.43-.1-.75,0-1.04.52-.08-.19-.13-.33-.18-.44-.27.06-.49.16-.7.15-.24,0-.48-.09-.74-.15l-.34-.34c0-.63.06-1.28-.03-1.91-.04-.28-.1-.57-.12-.87-.02-.27-.02-.54-.02-.81.01-1.07.27-2.13.17-3.21-.02-.16-.02-.33,0-.5,0-.1.07-.19.09-.22-.11-.3-.2-.54-.29-.79q-.6.25-.72.67c-.07-.05-.14-.1-.19-.14-.43.11-.21.55-.45.7.1.25.18.47.26.69-.3.24,0,.45.04.7-.14.09-.29.18-.43.28.04.05.08.1.1.12-.1.21-.18.41-.27.58.23.09.42.16.66.26-.26.2-.46.35-.64.49-.01.12-.03.22-.05.41-.08-.17-.13-.27-.21-.45v.47c.21.25.61.27.68.65-.05.07-.09.14-.13.2.05.05.08.08.12.12-.05.07-.1.14-.16.21h0s0,0,.01,0c.11,0,.19.02.29.03-.11.15-.26.27-.27.4-.03.38-.26.62-.51.86-.02.02-.03.06-.05.1.07.06.13.12.17.15.17-.1.31-.19.49-.3v.6c-.13-.05-.24-.09-.52-.2.19.3.29.46.38.61-.11.04-.19.06-.27.09q.32.58-.03,1.19s-.04.03-.05.05c-.01.03-.01.06,0,.04.14.13.24.24.34.33.05-.03.09-.07.14-.1.04.12.07.2.1.3.13-.16.24-.22.42-.06.06.05.26-.08.43-.14.23.34.55.51.93.55.01-.07.03-.13.05-.22.34.25.71.09,1.07.15.02-.1.03-.16.04-.2.28-.15.55-.29.83-.43.01-.11.03-.23.04-.35.07-.01.15,0,.2-.04.08-.05.14-.13.2-.19-.05-.07-.11-.14-.17-.23.12-.13.22-.24.34-.38M36.87,86.56s0,.07,0,.11c0-.04,0-.07,0-.11-.09.12-.18.12-.27.13,0-.03,0-.06-.01-.09.09-.02.18-.04.28-.05,0,0,0,0,0,.02t0,0s0,0,0,0c0-.12,0-.19,0-.26,0,0,0,0-.01-.01,0,0,0,0,.01-.01h0c-.05-.02-.09-.05-.13-.09.02-.02.03-.03.05-.05.03.04.07.08.1.12,0,0,0,0-.01.01v.02c.05.04.1.1.14.15-.05.04-.09.07-.14.11" style="fill:#32667e; stroke-width:0px;"/><path d="M79.76,94.29c-.5-.12-.74.18-1.03.36-.03-.09-.06-.17-.1-.28-.34.16-.69.22-1.06.12q-.41-.13-.84-.57c.04-.15.14-.32.09-.4-.17-.26-.11-.53-.13-.8-.04-.5.07-1.01-.12-1.51-.07-.19-.13-.5.1-.73.05-.05.04-.26-.02-.32-.2-.21-.14-.48-.08-.67.12-.36.12-.72.13-1.08,0-.06.09-.11.09-.17.01-.13.03-.28-.02-.38-.06-.11-.1-.18-.01-.3.13-.18.11-.38,0-.58-.04-.08-.1-.2-.06-.25.22-.31-.03-.58-.05-.89-.23.01-.45.02-.7.03v.58c-.18-.08-.31-.14-.47-.2-.15.19-.12.41-.16.61-.02.11-.05.22-.05.33,0,.06,0,.15.05.19.25.23.01.42-.05.62.05.1.11.19.18.32-.15.11-.3.21-.45.33.11.04.19.07.31.11-.13.06-.22.1-.28.13-.04.19-.08.35-.12.52.1,0,.2,0,.29,0,.08,0,.16.03.32.07-.19.24-.32.42-.52.67,0,0-.01.11-.02.17-.12.09-.21.16-.32.25.29.16.53.3.9.51-.2.1-.32.16-.47.25.17.06.25.09.33.12-.05.09-.09.16-.14.23.04.03.08.06.12.1-.04.02-.08.03-.12.05.04.38-.14.66-.4.9-.17.16-.26.32-.06.56.13-.12.25-.23.46-.43,0,.26,0,.4,0,.53.04.03.08.06.12.09-.02.02-.03.03-.05.05-.03-.04-.07-.08-.1-.12,0,0,.02-.02.02-.02-.14,0-.28,0-.49,0,.2.21.34.36.48.5-.1.05-.19.09-.26.13.05.3.1.59.13.76-.15.24-.23.39-.4.66.21-.11.27-.15.36-.19.02.14.04.27.05.36.27.07.51.13.76.19.06-.04.13-.1.21-.16.33.2.64.39.94.58.18-.21.41-.1.61-.12.23-.02.46,0,.69,0,.05-.42.46-.32.64-.53.19-.22.18-.59.5-.68-.04-.09-.09-.18-.11-.23.13-.13.22-.22.36-.37M76.2,90.41s-.04-.06-.04-.1c0-.01.03-.03.04-.05.02.03.04.06.04.1,0,.01-.03.03-.04.05M76.18,86.68s-.03-.03-.05-.04c.03-.02.06-.04.1-.04.01,0,.03.03.05.04-.03.02-.06.04-.1.04M76.32,86.26l-.05-.05s.06-.04.1-.04c.01,0,.03.03.05.04-.03.02-.06.03-.09.05M76.43,86.47l.05-.05s.04.06.04.1c0,.01-.03.03-.04.05-.02-.03-.03-.06-.05-.09" style="fill:#32667e; stroke-width:0px;"/><path d="M55.21,87v-.23c-.17-.05-.34-.11-.5-.16-.17.12-.37.25-.56.38l-.25-.25h-.65c.06.11.1.2.16.33-.08.08-.16.15-.21.2-.17-.21-.32-.4-.43-.54h-.48c-.3.55-.47.67-.86.58-.06.28-.2.46-.64.38.12.27-.31.44.03.69.06.04-.04.3-.07.47.08,0,.16.02.21,0,.31-.16.62-.34.93-.51.28-.16.69-.11,1-.32.03-.02.11,0,.13-.02.22-.31.54-.32.95-.35.3.3.59.59.92.92.16-.05.39-.13.65-.21v-.6c.12-.05.21-.09.39-.16-.28-.23-.48-.4-.7-.59M52.55,87.28s0-.08,0-.12h.24s0,.05,0,.07c-.08.02-.16.04-.24.05" style="fill:#32667e; stroke-width:0px;"/><path d="M34.03,94.1c-.05.1-.1.19-.16.3.05.07.1.14.18.26-.16.05-.3.1-.45.15v-.71h.43Z" style="fill:#32667e; stroke-width:0px;"/><path d="M33.97,93.84c.17,0,.23-.01.32-.02v.84c-.07-.2-.1-.26-.11-.32-.03-.08-.05-.16-.08-.24-.03-.07-.06-.13-.13-.26" style="fill:#32667e; stroke-width:0px;"/><path d="M26.57,88.27c-.11-.12-.32-.17-.17-.42.11.12.32.18.17.42" style="fill:#32667e; stroke-width:0px;"/><path d="M30.59,91.79c-.12-.24-.18-.35-.25-.49.07-.01.14-.03.25-.05v.54Z" style="fill:#32667e; stroke-width:0px;"/><path d="M75.28,91.83s-.08-.06-.12-.1c.04-.02.08-.03.12-.05v.14Z" style="fill:#32667e; stroke-width:0px;"/><path d="M86.1,91.1s.08.07.12.1c-.01.02-.03.03-.04.04l-.1-.12.03-.03Z" style="fill:#32667e; stroke-width:0px;"/><path d="M35.75,91.7l-.1.12s-.03-.03-.04-.04c.04-.03.08-.07.12-.1,0,0,.02.02.03.03" style="fill:#32667e; stroke-width:0px;"/><path d="M25.93,88.26l.12.1s-.03.03-.04.04c-.03-.04-.07-.08-.1-.12l.03-.03" style="fill:#32667e; stroke-width:0px;"/><path d="M25.91,88.29s-.08-.07-.12-.1c.01-.02.03-.03.04-.04l.1.12s-.02.02-.03.03" style="fill:#32667e; stroke-width:0px;"/><path d="M50.66,88s-.08-.07-.12-.1c.01-.02.03-.03.04-.04l.1.12s-.02.02-.03.03" style="fill:#32667e; stroke-width:0px;"/><path d="M61.91,61.74c-.07-.97.08-1.95-.13-2.93-.13-.58-.02-1.18-.13-1.79-.13-.7,0-1.43-.16-2.14-.1-.49.03-1-.13-1.51-.12-.39,0-.85-.03-1.27-.03-.43-.11-.86-.18-1.35-.07-.06-.19-.17-.32-.28-1.17-.06-2.28-.12-3.4-.17-.05,0-.11.02-.14,0-.28-.26-.63-.09-.94-.14-.31-.05-.62-.14-.93-.13-1,.02-2-.09-3,.12-.34.07-.67.1-.92.39.08.82,0,1.65.13,2.5.14.9.07,1.84.02,2.77-.05.91.21,1.8.15,2.71-.07,1.03.12,2.04.15,3.07,0,.05-.02.1,0,.14.22.48.23,1,.32,1.49.1.1.2.2.35.35.56-.06,1.15-.16,1.74-.16,2.39-.02,4.78,0,7.22,0,.14-.2.3-.42.49-.68-.05-.3-.14-.63-.17-.97M54.02,51.15c.44-.03.89,0,1.46,0-.87.9-1.77,1.56-2.63,2.26-.07-.71-.14-1.39-.2-2.09.48-.06.93-.14,1.38-.16M52.8,54.34c1.28-.96,2.54-1.89,3.62-3.04.54.06,1.08.12,1.69.18-1.7,1.37-3.36,2.71-5.06,4.09-.34-.38-.21-.83-.24-1.23M57.53,62.1c-.2,0-.49,0-.77,0-.97.04-1.95.09-2.92.14-.14,0-.28,0-.4,0-.07-.07-.16-.12-.17-.17-.3-1.81-.41-3.63-.31-5.42.61-.53,1.18-1.06,1.79-1.54.67-.51,1.28-1.08,1.96-1.58.6-.45,1.17-.92,1.79-1.34.2-.13.33-.37.53-.6h1.03c-.04.39.06.77.12,1.14.07.39-.05.82.03,1.2.14.64.03,1.3.15,1.93.12.63.02,1.26.14,1.86.1.48.1.96.12,1.43-1.02.97-2.03,1.94-3.1,2.95M60.73,62.19c-.68-.21-1.39,0-2.11-.12.6-.74,1.36-1.25,2.11-1.92v2.04Z" style="fill:#32667e; stroke-width:0px;"/><path d="M84.38,91.54h-.14l.1-.12s.03.08.05.12" style="fill:#32667e; stroke-width:0px;"/></g></svg>