<?xml version="1.0" encoding="UTF-8"?><svg id="Layer_2" xmlns="http://www.w3.org/2000/svg" viewBox="0 0 97 97"><g id="Capa_1"><circle cx="48.5" cy="48.5" r="48.5" style="fill:#e24339; stroke-width:0px;"/><path d="M51.46,51.51c1.5,1.59,1.84,3.42,1.82,5.42-.05,3.82,0,7.64-.02,11.46-.01,2.41-1.02,4.29-3.12,5.56-.59.36-1.12.36-1.72,0-1.98-1.18-3.07-2.93-3.11-5.21-.07-4.32-.04-8.64-.01-12.97,0-1.59.62-2.98,1.78-4.26-1.87-1.83-1.9-4.2-1.76-6.73-2.02.27-3.89.52-5.76.78-4.5.62-8.98,1.37-13.49,1.83-4.14.42-8.07-.36-11.39-3.08-.8-.66-1.52-1.5-2.06-2.38-1.63-2.68-.6-5.67,2.29-6.9,1.67-.71,3.45-.89,5.24-.85,4.9.12,9.7.97,14.44,2.1,3.3.78,6.57,1.7,9.86,2.56.24.06.48.12.82.2-.01-1.67.39-3.18,1.43-4.47-.26-.33-.52-.59-.71-.89-.86-1.33-.95-2.73-.18-4.11.26-.47.24-.76-.06-1.18-.94-1.32-1.84-2.66-2.74-4-.57-.84-.47-1.59.22-2.04.66-.43,1.35-.23,1.91.58.86,1.23,1.71,2.48,2.57,3.71.03.04.09.05.22.11.02-.33.04-.62.04-.91,0-3.26,0-6.53,0-9.79,0-.22-.01-.45,0-.67.07-.75.62-1.28,1.29-1.29.68,0,1.25.53,1.3,1.27.04.56.01,1.11.01,1.67,0,2.93,0,5.86,0,8.78,0,.29.02.58.05,1.14.83-1.21,1.51-2.21,2.2-3.21.2-.3.4-.6.62-.89.56-.78,1.27-.95,1.93-.48.63.45.73,1.15.22,1.92-.9,1.35-1.8,2.69-2.74,4-.32.45-.41.78-.11,1.33.84,1.52.63,3-.44,4.36-.14.17-.28.34-.46.55.99,1.31,1.45,2.8,1.41,4.48,2.68-.71,5.25-1.43,7.84-2.07,5.68-1.4,11.4-2.66,17.29-2.74,1.62-.02,3.31.2,4.84.7,3.49,1.14,4.52,4.61,2.37,7.58-1.98,2.73-4.82,4.04-8.03,4.67-3.29.65-6.55.22-9.81-.24-4.58-.64-9.15-1.33-13.72-1.99-.22-.03-.44-.03-.76-.05.05,2.39.11,4.76-1.81,6.65ZM53.23,41.94l.05.25c.31.05.62.1.93.14.83.1,1.66.16,2.49.28,5.04.72,10.07,1.5,15.12,2.15,2.85.37,5.68.13,8.33-1.12,1.51-.71,2.84-1.66,3.66-3.18.62-1.15.33-2.23-.82-2.83-.6-.32-1.3-.62-1.96-.64-2.11-.07-4.24-.18-6.33.04-7.1.77-14,2.55-20.83,4.59-.23.07-.43.22-.64.33ZM45.29,42.2c.01-.09.03-.18.04-.27-.22-.11-.42-.26-.65-.33-7.43-2.18-14.91-4.16-22.66-4.74-1.78-.13-3.64-.03-5.38.33-2.35.48-2.84,2.24-1.32,4.1,1.32,1.61,3.1,2.5,5.07,3.05,3.14.87,6.3.52,9.45.08,4.38-.61,8.75-1.3,13.13-1.95.78-.11,1.56-.19,2.34-.28ZM49.29,49.97c.91-.74,1.35-1.63,1.36-2.71.01-2.95.05-5.9-.03-8.85-.02-.7-.35-1.45-.72-2.08-.44-.75-.78-.76-1.2-.03-.37.63-.72,1.37-.74,2.07-.08,2.98-.04,5.96-.03,8.94,0,1.06.45,1.93,1.36,2.67ZM50.6,58.25h-2.64v2.63h2.64v-2.63ZM47.96,66.22h2.64v-2.62h-2.64v2.62ZM50.64,31.46c0-.75-.62-1.38-1.37-1.38-.72,0-1.33.6-1.35,1.32-.03.76.57,1.4,1.33,1.41.76.02,1.39-.59,1.39-1.35ZM50.86,55.53c-.46-.82-.79-1.46-1.17-2.07-.22-.35-.55-.41-.79-.02-.39.63-.74,1.29-1.19,2.1h3.16ZM50.57,68.99h-2.69c.29.98.51,2.21,1.43,2.2.81,0,1.15-1.19,1.29-2.09,0-.02-.01-.05-.03-.11Z" style="fill:#b6d3db; stroke-width:0px;"/><path d="M62.64,62.42c0,.78.07,1.57-.02,2.34-.17,1.48.35,2.68,1.17,3.87,2.87,4.16,6.19,7.82,10.72,10.21.64.34,1.32.6,1.97.91.77.37,1.06,1.02.77,1.69-.3.72-.99.99-1.8.68-3.54-1.38-6.52-3.6-9.16-6.29-2.25-2.3-4.21-4.83-5.78-7.64-.3-.53-.46-1.2-.48-1.8-.06-2.12-.07-4.24,0-6.35.03-.91-.23-1.55-.89-2.18-1.78-1.69-3.5-3.44-5.2-5.2-.3-.31-.59-.82-.56-1.21.03-.38.42-.92.77-1.04.38-.14,1.07-.05,1.35.22,2.29,2.2,4.53,4.45,6.74,6.73.25.26.36.75.37,1.15.04,1.31.02,2.62.02,3.93Z" style="fill:#b6d3db; stroke-width:0px;"/><path d="M45.43,51.51c-.36.5-.58.91-.9,1.24-1.82,1.85-3.67,3.66-5.47,5.52-.29.3-.49.81-.5,1.22-.05,2.37-.01,4.74-.03,7.1,0,.38-.03.81-.21,1.13-3.23,5.6-7.32,10.36-13.12,13.45-.66.35-1.35.65-2.05.94-.85.34-1.56.05-1.85-.7-.27-.7.05-1.37.9-1.71,2.41-.96,4.55-2.35,6.49-4.05,2.79-2.45,5.09-5.29,6.96-8.49.18-.31.26-.73.27-1.1.02-2.48-.01-4.96.04-7.44,0-.48.19-1.08.51-1.42,2.11-2.19,4.27-4.32,6.42-6.46.45-.44.99-.74,1.57-.36.38.25.62.7.99,1.13Z" style="fill:#b6d3db; stroke-width:0px;"/><path d="M29.23,57.21c0-.95-.09-1.91.04-2.84.06-.48.38-1.11.78-1.33,3.91-2.24,7.86-4.42,11.81-6.6.76-.42,1.5-.21,1.87.46.37.67.15,1.37-.64,1.81-3.5,1.96-7,3.91-10.51,5.83-.53.29-.75.61-.73,1.23.05,1.53.06,3.07,0,4.6-.02.55-.18,1.18-.48,1.63-3.43,5-8.12,8.41-13.64,10.77-.75.32-1.43.02-1.73-.66-.31-.7-.02-1.39.81-1.75,2.7-1.16,5.27-2.58,7.48-4.52,1.52-1.33,2.86-2.87,4.28-4.33.55-.57.77-1.24.71-2.05-.06-.75-.01-1.5-.01-2.26Z" style="fill:#b6d3db; stroke-width:0px;"/><path d="M69.33,57.25c0,.59.06,1.18-.01,1.75-.15,1.17.29,2.07,1.02,2.95,3,3.61,6.69,6.27,10.94,8.18.2.09.41.17.61.28.74.39,1,1.06.68,1.73-.32.68-.99.93-1.76.61-3.71-1.55-7.09-3.65-9.95-6.48-1.32-1.3-2.48-2.78-3.63-4.25-.33-.42-.48-1.06-.51-1.61-.07-1.59-.04-3.18-.01-4.76.01-.51-.16-.79-.61-1.04-3.49-1.91-6.96-3.86-10.44-5.79-.63-.35-1.11-.78-.96-1.57.18-.91,1.12-1.29,2.04-.79,1.98,1.08,3.95,2.18,5.92,3.27,1.9,1.05,3.79,2.12,5.7,3.16.69.38,1.01.9.98,1.68-.03.89,0,1.78,0,2.67Z" style="fill:#b6d3db; stroke-width:0px;"/><path d="M42.47,36.82c-.26-.16-.64-.3-.9-.56-2.62-2.59-5.21-5.2-7.82-7.8-.46-.46-.57-.96-.38-1.6.77-2.62,1.48-5.25,2.26-7.86.17-.56.1-1-.19-1.49-1.47-2.53-2.91-5.07-4.36-7.61-.11-.19-.23-.38-.32-.58-.32-.68-.12-1.39.49-1.74.62-.36,1.32-.2,1.74.46.45.7.84,1.44,1.26,2.17,1.27,2.22,2.53,4.46,3.83,6.67.41.7.51,1.34.27,2.13-.74,2.42-1.39,4.87-2.13,7.29-.17.55-.08.91.34,1.31,2.27,2.23,4.51,4.48,6.75,6.74.86.87.75,1.9-.23,2.31-.15.06-.32.09-.6.17Z" style="fill:#b6d3db; stroke-width:0px;"/><path d="M56.21,36.77c-1.18-.02-1.82-1.04-1.38-1.86.15-.29.4-.53.63-.77,2.18-2.19,4.36-4.39,6.57-6.56.39-.38.48-.71.33-1.24-.75-2.53-1.49-5.07-2.17-7.63-.12-.46-.08-1.08.15-1.49,1.67-3.02,3.4-6.01,5.12-9.01.32-.56.79-.99,1.41-.78.43.15.88.6,1.04,1.03.12.33-.11.86-.32,1.23-1.44,2.58-2.9,5.14-4.4,7.69-.36.61-.4,1.14-.21,1.81.74,2.48,1.42,4.98,2.17,7.45.25.83.08,1.43-.53,2.02-2.5,2.47-4.97,4.97-7.47,7.44-.32.32-.75.52-.95.67Z" style="fill:#b6d3db; stroke-width:0px;"/></g></svg>