<?xml version="1.0" encoding="UTF-8"?><svg id="Layer_2" xmlns="http://www.w3.org/2000/svg" viewBox="0 0 97 97"><g id="Capa_1"><circle cx="48.5" cy="48.5" r="48.5" style="fill:#e24339; stroke-width:0px;"/><path d="M32,26c2.68,3.17,3.56,3.48,5.61,7.11,1.79-1.8,3.56-3.58,5.39-5.42,1.3,1.31,2.55,2.56,3.8,3.81,1,1.01,2.03,1.99,3,3.02,5.51,5.88,3.43,15.45-4,18.42q-1.46.58-1.36,2.3h19.87c0-1.32-.13-2.66.03-3.95.22-1.8-.37-2.99-1.95-3.9-1.17-.67-2.21-1.58-3.27-2.44-.25-.2-.45-.61-.47-.94-.06-.94-.02-1.88-.02-2.88h2.71c.44.74-.4,1.82.62,2.47.76.49,1.46,1.07,2.35,1.74v-1.12c0-2.9-.02-5.8.02-8.7,0-.41.22-.9.5-1.22.84-.95,1.76-1.82,2.68-2.76.69.71,1.31,1.34,2.1,2.15-.67.6-1.37,1.19-2.02,1.82-.21.21-.43.53-.44.8-.04,1.98-.02,3.96-.02,6.19,1.01-.77,1.92-1.4,2.73-2.13.21-.19.11-.72.13-1.1.02-.32,0-.64,0-1h2.81c0,1.09.03,2.17-.03,3.25-.01.22-.31.47-.53.64-1.51,1.15-3.03,2.27-4.53,3.42-.25.19-.56.53-.56.8-.04,2.92-.03,5.85-.03,8.82h14.23c0-1.09.04-2.14-.03-3.2-.01-.26-.3-.55-.53-.73-1.5-1.15-3.04-2.26-4.52-3.44-.31-.25-.53-.74-.57-1.15-.09-.88-.03-1.77-.03-2.73h2.87c-.77,2.43,1.33,2.96,2.78,4.17v-9.88h2.84v7.08c1.01-.76,1.88-1.36,2.67-2.05.2-.18.18-.64.21-.98.03-.38,0-.76,0-1.2h2.81c0,1.08.03,2.19-.03,3.3-.01.22-.34.45-.57.62-1.48,1.13-2.97,2.26-4.48,3.35-.46.33-.62.69-.61,1.25.04,1.83.01,3.66.01,5.59h8.81c-3.32,19.19-20,36.1-42.66,36.91-23.41.83-42.14-15.76-45.99-36.86h23.04c0-1.49,0-2.92,0-4.36q0-1.65-1.52-2.29c-7.4-3.12-9.37-12.66-3.79-18.46,1.74-1.81,1.15-1.39,2.92-3.17.22-.22,2.66.37,3,0l4-1ZM58.66,58.14c-2.56,0-5.19.08-7.82-.04-1.24-.05-2.06.39-2.8,1.28-.84,1.01-.99,2.07-.3,3.18.45.73.94,1.43,1.42,2.15,1.1,1.63,1.36,3.34.42,5.11-.96,1.79-2.52,2.54-4.54,2.54-7.04-.02-14.09-.02-21.13,0-1.98,0-3.53-.72-4.5-2.45-.99-1.78-.75-3.53.37-5.18.5-.74,1.02-1.46,1.47-2.22,1.04-1.79-.45-4.36-2.52-4.36-2.43,0-4.85,0-7.28,0-1.12,0-2.24,0-3.46,0,.09.39.14.67.22.94,1.71,5.79,4.54,10.96,8.5,15.52.27.31.85.5,1.29.51,9.41.03,18.82.02,28.23.02,2.09,0,3.73,1.44,3.89,3.38.18,2.08-1.18,3.78-3.31,4.13-1.43.24-2.86.46-4.28.73-.31.06-.58.32-.87.48.2.3.33.68.6.87,1.65,1.15,3.4,2.17,4.99,3.39,1.29.98,2.59,1.39,4.19,1.1,1.25-.22,2.54-.19,3.78-.43,2.4-.47,4.77-1.05,7.15-1.58,0-.09-.01-.19-.02-.28-.27-.17-.54-.34-.81-.49-.95-.55-1.92-1.06-2.84-1.64-2.09-1.31-3.12-3.23-2.92-5.68.2-2.39,1.5-4.08,3.7-5.01,2.67-1.12,5.38-2.16,8.06-3.24.3-.12.61-.23.9-.37.99-.47,1.58-1.42,1.49-2.41-.09-1.04-.74-1.87-1.82-2.16-2.02-.55-4.07-1.02-6.09-1.57-1.86-.51-3-1.76-3.36-3.64-.15-.79-.03-1.63-.03-2.58ZM89.38,58.2c-.2-.03-.32-.06-.43-.06-8.52,0-17.04,0-25.56,0-1.03,0-1.75.64-1.87,1.55-.11.88.46,1.66,1.47,1.92,1.8.47,3.61.89,5.42,1.35,2.65.68,4.3,2.5,4.45,4.88.16,2.53-1.16,4.5-3.72,5.53-2.77,1.12-5.54,2.23-8.31,3.33-1.28.5-2.06,1.4-2.14,2.78-.08,1.34.59,2.3,1.75,2.95,1.65.93,3.3,1.86,4.92,2.83.49.29.87.29,1.38.04,11.19-5.49,18.66-14.18,22.41-26.06.1-.33.16-.67.25-1.03ZM23.78,58.18c.07.21.09.33.14.43,1.05,2.08.82,4.05-.48,5.94-.47.68-.94,1.36-1.37,2.07-.52.85-.45,1.8.29,2.3.48.32,1.14.5,1.72.5,5.62.04,11.24.02,16.86.02,1.45,0,2.9.03,4.35-.01,1.62-.05,2.39-1.5,1.54-2.88-.48-.78-1.02-1.53-1.52-2.29-.67-1.02-1.08-2.14-.91-3.35.12-.91.42-1.8.65-2.72h-21.27ZM42.74,88.88c.04-.07.08-.15.12-.22-.75-.5-1.5-1-2.25-1.51-1.52-1.03-2.17-2.41-1.82-3.9.36-1.54,1.51-2.49,3.29-2.78,1.43-.23,2.87-.42,4.28-.75.34-.08.58-.6.86-.92-.31-.26-.61-.54-.95-.76-.13-.08-.35-.02-.52-.02-8.28,0-16.56,0-24.84,0-.25,0-.5.02-.94.04,6.63,6,14.16,9.55,22.77,10.81ZM43.14,32.06c-1.8,1.69-3.82,3.21-5.38,5.11-3.4,4.13-1.93,10.37,2.81,12.78.28.14.57.24.98.41,0-.46,0-.78,0-1.1,0-2.69,0-5.38,0-8.08,0-.31.02-.71.2-.91.98-1.05,2.02-2.05,3-3.02.73.7,1.39,1.32,2.14,2.03-1.65,1.33-3.17,2.72-2.23,5.33.48-.65.93-1.26,1.4-1.89.86.87,1.49,1.52,2.22,2.25-1.05,1.04-2.05,2.13-3.16,3.09-.75.65-.75,1.36-.6,2.28.34-.15.62-.25.87-.38,4.92-2.48,6.26-9,2.61-13.13-1.54-1.75-3.32-3.28-4.86-4.78ZM30.29,45.86c2.06-.51,2.73-1.29,2.67-3.13-.07-2.22.34-4.34,1.59-6.16.74-1.08.63-1.92-.03-2.87-.2-.29-.38-.61-.62-.86-1.56-1.62-3.12-3.23-4.72-4.81-.13-.13-.64-.13-.78.01-1.62,1.6-3.32,3.14-4.76,4.89-3.3,4.01-1.95,10.21,2.65,12.6.27.14.57.23.88.35.26-.84.08-1.41-.49-1.93-1.14-1.03-2.23-2.09-3.35-3.15-.03-.15-.06-.3-.09-.46.6-.47,1.23-.92,1.8-1.43.36-.32.63-.36.97,0,.37.39.77.76,1.26,1.25,0-.98.27-1.9-.06-2.48-.58-1.02-1.52-1.84-2.34-2.79.33-.35.62-.68.93-.99,1.32-1.3,1-1.29,2.27-.04.14.14.31.25.52.41.25-.36.46-.68.67-.99,1.19-1.79,1.18-1.77,3-.54.56.38.74.73.25,1.26-2,2.17-2.56,4.75-2.22,7.61.09.76.01,1.54.01,2.31v1.93ZM34.19,47.39c-1.23.56-2.43,1.11-3.62,1.67-.15.07-.35.28-.35.42-.02,1.91-.02,3.82-.02,5.74h11.31q.19-1.68-1.27-2.26c-1.94-.78-3.54-2-4.8-3.66-.47-.63-.87-1.32-1.26-1.91Z" style="fill:#b6d3db; stroke-width:0px;"/><path d="M55.85,29.62v-2.7h2.73v2.7h-2.73Z" style="fill:#b6d3db; stroke-width:0px;"/><path d="M64.38,26.9h2.71v2.71h-2.71v-2.71Z" style="fill:#b6d3db; stroke-width:0px;"/><path d="M75.74,26.9h2.72v2.71h-2.72v-2.71Z" style="fill:#b6d3db; stroke-width:0px;"/><path d="M70.04,32.45v-2.68h2.75v2.68h-2.75Z" style="fill:#b6d3db; stroke-width:0px;"/><path d="M61.42,32.6v2.71h-2.71v-2.71h2.71Z" style="fill:#b6d3db; stroke-width:0px;"/><path d="M75.74,35.43h2.72v2.71h-2.72v-2.71Z" style="fill:#b6d3db; stroke-width:0px;"/><path d="M38.92,26.36c-.77,0-1.54.05-2.3-.01-1.19-.09-2.16.21-3.18.91-3.5,2.39-8.19,2.27-11.59-.13-3.66-2.59-5.29-6.88-4.24-11.18.99-4.08,4.5-7.25,8.68-7.83,3.43-.48,6.37.56,8.87,2.92.14.13.27.27.41.4.04.03.1.04.21.09,1.14-1.25,2.5-2.24,4.11-2.86,5.51-2.12,11.71.87,13.57,6.53.1.3.38.76.6.77.54.04,1.06-.02,1.37-.72,2.09-4.73,5.77-7.21,10.94-7.24,4.66-.03,8.85,2.93,10.57,7.3.23.58.46.79,1.12.67,3.17-.55,6,1.62,6.25,4.76.24,3.03-2.18,5.61-5.34,5.61-12.55.01-25.1,0-37.65,0-.32,0-.63,0-1.1,0h-1.3ZM19.93,18.45c-.02,4.29,3.5,7.86,7.8,7.9,4.29.04,7.87-3.49,7.92-7.79.05-4.32-3.52-7.93-7.85-7.94-4.3-.01-7.86,3.53-7.88,7.83ZM68.6,15.88c1.88-.07,3.52.44,5.11,1.24.22.11.58.1.79,0,.11-.05.1-.49.03-.71-1.14-3.25-4.46-5.65-7.98-5.78-3.62-.13-7.04,1.95-8.51,5.13-.24.52-.11.75.33,1.05,1.63,1.13,2.44,2.72,2.29,4.71-.06.72-.33,1.42-.52,2.17.08.02.18.05.28.05,6.25,0,12.5.02,18.74-.01,1.47,0,2.59-1.27,2.54-2.69-.05-1.43-1.24-2.57-2.71-2.52-1.88.05-3.44.82-4.63,2.29-.26.32-.49.65-.78,1.04-.73-.49-1.42-.95-2.13-1.42.22-.41.4-.73.69-1.25-1.23-.29-2.35-.55-3.53-.83v-2.46ZM44.91,15.88c1.88-.09,3.52.43,5.1,1.22.24.12.65.11.86-.02.15-.09.21-.53.14-.76-.86-2.89-2.76-4.78-5.68-5.48-2.97-.71-5.5.22-7.59,2.43-.36.38-.44.73-.22,1.24.83,1.91,1.05,3.92.61,5.95-.24,1.08-.66,2.12-1.01,3.2.05.02.12.06.19.06,6.08,0,12.16.03,18.24,0,1.43,0,2.52-1.27,2.48-2.66-.04-1.43-1.22-2.58-2.69-2.54-1.91.05-3.49.83-4.69,2.34-.25.31-.49.64-.76.99-.74-.49-1.41-.94-2.12-1.42.22-.4.4-.72.69-1.24-1.24-.3-2.38-.57-3.55-.85v-2.45Z" style="fill:#b6d3db; stroke-width:0px;"/></g></svg>