<?xml version="1.0" encoding="UTF-8"?><svg id="Layer_2" xmlns="http://www.w3.org/2000/svg" viewBox="0 0 102 102"><g id="Capa_1"><circle cx="51" cy="51" r="51" style="fill:#32677f; stroke-width:0px;"/><path d="M58.97,27.58c-1.12,0-1.77-.79-1.61-1.8.24-1.57.5-3.14.78-4.7.11-.58.02-1.03-.43-1.47-1.07-1.04-2.08-2.16-3.12-3.23-.48-.49-.78-1.03-.53-1.73.25-.7.82-.94,1.49-1.03,1.39-.2,2.78-.42,4.17-.6.56-.07.92-.29,1.16-.84.59-1.37,1.27-2.71,1.9-4.06.29-.63.69-1.09,1.43-1.11.79-.02,1.21.46,1.51,1.12.63,1.36,1.3,2.69,1.9,4.06.22.51.54.74,1.07.81,1.39.2,2.78.43,4.16.64.72.11,1.41.29,1.65,1.09.22.74-.17,1.28-.67,1.78-1.02,1.02-1.99,2.08-3.02,3.07-.45.43-.59.85-.48,1.45.28,1.5.49,3.01.77,4.51.13.7.02,1.28-.56,1.71-.59.44-1.2.33-1.8-.01-1.3-.73-2.6-1.49-3.93-2.16-.31-.15-.83-.15-1.13,0-1.36.69-2.67,1.48-4.01,2.21-.26.14-.56.21-.7.26ZM58.67,16.22c-.06.08-.11.17-.17.25.72.65,1.43,1.31,2.15,1.96.61.55.76,1.2.59,1.99-.21.93-.34,1.88-.54,2.98.98-.53,1.79-.95,2.58-1.41.65-.38,1.26-.37,1.9,0,.81.46,1.64.9,2.57,1.4-.18-1.07-.3-2.01-.49-2.93-.17-.8.02-1.42.61-1.98.72-.68,1.39-1.42,2.19-2.23-.99-.16-1.79-.34-2.6-.4-1-.08-1.63-.54-2.02-1.46-.32-.76-.75-1.49-1.2-2.37-.44.92-.82,1.64-1.13,2.4-.36.89-.97,1.34-1.94,1.42-.84.07-1.66.25-2.49.39Z" style="fill:#b5d2da; stroke-width:0px;"/><path d="M63.85,79.12c-.34-.09-.7-.15-1.04-.22v-1.31c2.87-.61,4.37-2.16,4.37-4.5,0-2.34-1.48-3.87-4.4-4.5,0-.41.05-.84-.01-1.26-.1-.71.17-1.08.85-1.36.27-.11.53-.23.8-.35h-.01c.09-.05.19-.09.28-.13.64-.31,1.26-.65,1.86-1.02.22-.14.41-.22.6-.24,3.34-2.05,6.2-5.19,9.16-8.95.65-1.02,1.31-2.04,1.97-3.06,2.08-4.03,3.11-8.9,3.4-10.44-.04-.15-.04-.32,0-.55.15-.96.18-1.95.21-2.93.04-1.42-.47-1.91-1.92-1.91-2.94,0-5.87,0-8.81,0h-1c0-.41.12-3.43-.54-5.33-1.01-2.91-4.02-3.95-6.78-3.26-2.71.67-4.43,3.04-4.43,6.09,0,.81,0,1.63,0,2.42h-5.87c0-2.37,0-4.66,0-6.95,0-1.26-.53-1.77-1.79-1.78-1.28,0-2.57,0-3.86,0-1.85-.01-3.17-1.27-3.16-2.97.02-1.67,1.32-2.89,3.13-2.9,1.35-.01,2.69.01,4.04,0,1.08-.02,1.63-.56,1.64-1.66.01-3.79.01-7.59,0-11.38,0-1.09-.57-1.67-1.65-1.63-1.43.06-2.87.13-4.29.34-19.19,2.76-31.15,22.58-24.58,40.79,3,8.3,8.59,14.25,16.61,17.93.28.13.63.42.67.68.1.62.03,1.26.03,1.88-2.6.37-4.3,1.88-4.35,4.06-.02.93.26,1.95.7,2.77.73,1.38,2.12,1.93,3.63,2.08v1.37c-.18.03-.29.05-.41.06-2.5.4-4.11,2.31-3.97,4.69.14,2.33,2.05,4.08,4.57,4.09.6,0,.82.26,1.07.73,2.21,4.16,5.68,6.45,10.4,6.49,4.68.04,8.19-2.14,10.46-6.23.39-.7.73-1,1.56-1.01,2.2-.01,4.02-1.79,4.22-3.96.2-2.16-1.19-4.12-3.31-4.67ZM52.54,39.32h.86c2.05,0,4.1,0,6.15,0,1.21,0,1.74-.54,1.76-1.73.01-1.35,0-2.69,0-4.04.02-1.74,1.25-3.02,2.89-3.04,1.67-.02,2.95,1.28,2.98,3.05.02,1.25,0,2.51,0,3.76,0,1.55.46,1.99,2.04,1.99,2.9,0,5.81,0,8.71,0h.98c-.12,2.5-.55,4.86-1.34,7.14-2.82,8.17-8.21,13.96-16.2,17.3-1.39.58-1.54.78-1.54,2.33,0,.76,0,1.53,0,2.29,0,.06-.02.12-.05.28h-7.23v-11.71c.92,0,1.83,0,2.73,0,3.4-.03,6.01-2.57,6.01-5.86,0-3.29-2.6-5.86-5.98-5.89-.91,0-1.82,0-2.78,0v-5.87ZM49.49,9.98v8.78c-1.01,0-1.96-.01-2.9,0-3.26.06-5.83,2.63-5.84,5.85,0,3.22,2.55,5.82,5.8,5.89.97.02,1.94,0,2.96,0v5.88h-.95c-2.48,0-4.96,0-7.43,0-1.33,0-1.84.51-1.85,1.82,0,1.32.01,2.63,0,3.95-.02,1.73-1.27,3.02-2.9,3.04-1.67.02-2.95-1.29-2.97-3.06-.02-1.32,0-2.63,0-3.95,0-1.26-.52-1.79-1.78-1.8-2.48-.01-4.96,0-7.43,0h-.9c.26-12.9,11.1-25.64,26.2-26.4ZM24.86,47.58c-1.02-2.61-1.55-5.33-1.75-8.22h7.35c0,.89,0,1.76,0,2.64.02,3.49,2.51,6.11,5.83,6.13,3.36.02,5.9-2.61,5.92-6.14,0-.85,0-1.7,0-2.67h7.34c0,2.28,0,4.47,0,6.66,0,1.74.41,2.15,2.16,2.15,1.22,0,2.45-.02,3.67,0,1.7.03,2.99,1.33,2.98,2.96-.01,1.6-1.28,2.87-2.94,2.9-1.34.03-2.69,0-4.04,0-1.32,0-1.83.51-1.83,1.83,0,3.91,0,7.83,0,11.74v1.05h-7.34c0-.9,0-1.77,0-2.65,0-1.41-.18-1.67-1.46-2.2-7.61-3.13-12.9-8.55-15.89-16.2ZM38.46,74.24c-.34-.38-.67-1.08-.54-1.49.15-.46.77-.96,1.27-1.07.79-.18,1.64-.06,2.47-.06,6.76,0,13.52,0,20.28,0,.24,0,.49,0,.73,0,.94.05,1.55.63,1.56,1.46,0,.83-.62,1.45-1.55,1.46-1.9.02-3.79,0-5.69,0-1.99,0-3.98,0-5.97,0-3.76,0-7.53,0-11.29-.01-.44,0-1.03-.04-1.28-.31ZM59.79,77.55v1.36h-17.54v-1.36h17.54ZM51.32,92.17c-3.39.1-5.96-1.39-7.9-4.35h15.2c-1.76,2.76-4.15,4.25-7.3,4.35ZM62.68,84.84c-1.87.02-3.73,0-5.6,0-2.05,0-4.1,0-6.15,0-3.73,0-7.47,0-11.2-.01-.44,0-1.03-.04-1.28-.31-.34-.38-.67-1.08-.54-1.49.15-.46.77-.97,1.27-1.07.85-.18,1.76-.06,2.65-.06,6.7,0,13.4,0,20.1,0,.24,0,.49,0,.73,0,.94.05,1.55.63,1.56,1.46,0,.83-.62,1.45-1.55,1.46Z" style="fill:#b5d2da; stroke-width:0px;"/></g></svg>