<?xml version="1.0" encoding="UTF-8"?><svg id="Layer_2" xmlns="http://www.w3.org/2000/svg" viewBox="0 0 97 97"><g id="Capa_1"><circle cx="48.5" cy="48.5" r="48.5" style="fill:#e24339; stroke-width:0px;"/><path d="M21.22,61.74c0-1.89,0-3.74-.01-5.59,0-.17-.17-.37-.31-.51-2.21-2.22-4.44-4.44-6.65-6.66-.6-.6-.58-1.31.03-1.73.45-.31.95-.24,1.43.24,1.66,1.66,3.32,3.32,4.98,4.99.14.15.24.34.36.51.05-.04.1-.07.15-.11.01-.14.03-.27.03-.41,0-3.91,0-7.82,0-11.74,0-.18,0-.36.02-.53.08-.5.53-.85,1.03-.85.5,0,.94.38,1.01.87.03.22.02.45.02.67,0,6.66,0,13.33,0,19.99,0,.21,0,.41,0,.71.38-.06.71-.08,1.02-.18,1.07-.34,2.14-.69,3.19-1.08.71-.27,1.3-.13,1.56.46.26.58-.02,1.14-.72,1.46-1.44.66-2.94,1.13-4.51,1.37-.17.03-.34.08-.53.12v11.11h22.57v-5.92c-1.03-.17-2.08-.25-3.08-.51-5.59-1.41-9.72-4.72-12.04-9.98-2.68-6.07-2.11-11.97,1.6-17.51.59-.88,1.34-1.64,2.04-2.44.21-.24.26-.43.17-.73-1.56-5.13-.53-9.65,3.19-13.54.51-.53.75-1.14.75-1.87,0-1.63,0-3.25,0-4.88.02-4.45,3.14-8.09,7.55-8.62,4.53-.55,8.37,2.62,9.18,6.66.12.61.18,1.24.19,1.87.03,1.64.03,3.28,0,4.93-.01.79.25,1.43.81,1.99,1.63,1.63,2.77,3.54,3.35,5.77.66,2.53.65,5.06-.19,7.55-.14.41-.08.67.23.98,3.37,3.46,5.1,7.62,5.14,12.43.07,7.99-5.5,15.23-13.25,17.27-1.13.3-2.3.45-3.48.68v5.87h22.32c.01-.13.04-.26.04-.38.02-2.25.03-4.51.04-6.76,0-.51-.05-1.03-.03-1.54.01-.34-.13-.42-.44-.46-2.06-.23-3.93-.95-5.6-2.17-.58-.42-.73-1.04-.38-1.54.36-.51.97-.58,1.57-.16,1.44,1.01,3.01,1.63,4.84,1.82,0-.2,0-.37,0-.54,0-8.95,0-17.9,0-26.85,0-.18,0-.36,0-.53.05-.57.46-.95,1.01-.96.58,0,1.03.38,1.04.97.03.9.01,1.8.01,2.7,0,1.51,0,3.03,0,4.54,0,.15.01.31.02.46.04.03.08.05.13.08.6-.63,1.19-1.26,1.79-1.87.6-.61,1.2-1.21,1.81-1.81.51-.51,1.13-.54,1.58-.08.41.42.38,1.07-.1,1.55-1.36,1.35-2.73,2.68-4.09,4.03-.34.34-.67.69-.98,1.06-.09.1-.15.26-.15.39,0,3.36,0,6.72,0,10.19.16-.14.27-.21.36-.3,1.14-1.14,2.28-2.28,3.42-3.41.4-.39.89-.47,1.32-.22.43.25.58.65.47,1.11-.05.22-.2.44-.36.61-1.6,1.61-3.2,3.22-4.81,4.81-.28.28-.42.56-.41.97.03,1.01,0,2.02,0,3.17.81-.21,1.57-.35,2.28-.61,3.98-1.46,6.52-5.17,6.51-9.41-.01-7.15-.01-14.29,0-21.44.01-5.06-4.02-9.45-9.07-9.81-3.57-.25-6.47,1.07-8.71,3.85-.43.53-.88.7-1.37.49-.44-.19-.7-.65-.59-1.15.05-.21.16-.43.3-.59,3.21-3.92,7.34-5.54,12.27-4.38,4.92,1.16,7.96,4.43,9.02,9.39.28,1.32.23,2.72.24,4.08.02,6.52.01,13.04,0,19.56,0,6.16-4.35,11.16-10.45,12.02-.37.05-.44.19-.44.51.01,2.72.02,5.43,0,8.15,0,.42.11.55.54.54,3.82-.02,7.63,0,11.45,0,.19,0,.39,0,.58,0,.55.05.94.44.97.96.04.55-.3.99-.87,1.1-.16.03-.32.03-.48.03-23.78,0-47.55,0-71.33,0-.1,0-.19,0-.29,0-.68-.04-1.14-.47-1.13-1.07,0-.6.47-1.03,1.17-1.03,2.51,0,5.02,0,7.53,0,.19,0,.38,0,.59,0v-10.96c-.89-.08-1.77-.12-2.64-.23-7.43-.92-13.67-6.76-15.09-14.12-1.9-9.8,4.3-19.06,14.09-21.01,4.27-.85,8.32-.14,12.12,1.98.82.46,1.59,1.03,2.36,1.59.67.49.78,1.09.38,1.61-.4.51-1.02.53-1.65.03-7.3-5.73-17.58-4.17-22.85,3.47-4.67,6.77-3.13,16.29,3.44,21.26,2.73,2.07,5.79,3.16,9.21,3.26.14,0,.29,0,.43,0,.06,0,.12-.03.24-.06ZM45.91,66.8c.01-.18.02-.32.02-.46,0-4.73,0-9.46,0-14.2,0-.24-.13-.53-.3-.7-1.34-1.37-2.7-2.71-4.05-4.07-.51-.51-1.01-1.04-1.48-1.58-.33-.38-.29-.93.02-1.29.32-.35.85-.42,1.28-.15.16.1.32.21.46.35,1.26,1.26,2.52,2.52,3.78,3.78.07.07.16.12.34.25,0-1.99,0-3.87,0-5.75,0-3.7-.03-7.4-.04-11.1,0-.49.25-.83.71-.98.7-.23,1.35.29,1.36,1.1,0,1.77,0,3.54,0,5.31,0,.23,0,.47,0,.81.2-.19.32-.29.43-.4.89-.89,1.77-1.78,2.67-2.66.39-.38.86-.45,1.28-.23.39.2.65.68.52,1.09-.08.26-.25.53-.44.72-1.35,1.38-2.72,2.74-4.1,4.09-.24.24-.37.48-.36.84.02,2.51,0,5.02,0,7.53,0,2.9,0,5.79,0,8.69,0,.16,0,.32,0,.48.74-.6,1.36-1.23,1.98-1.86,1.04-1.05,2.09-2.1,3.14-3.14.38-.38.86-.46,1.28-.24.39.2.66.67.53,1.09-.08.26-.25.53-.44.72-2.04,2.06-4.09,4.11-6.15,6.14-.25.25-.35.49-.35.84.02,1.27,0,2.54,0,3.81v1.11c.15.01.25.03.34.02.38-.04.77-.07,1.15-.14,3.91-.7,7.12-2.61,9.66-5.65,5.05-6.06,4.62-15.35-1-20.89-.9-.89-1.14-1.83-.76-3.05,1.3-4.24.44-8.01-2.62-11.24-.95-1-1.44-2.13-1.44-3.51.01-1.88.06-3.77-.05-5.65-.19-3.4-3.54-6.13-6.92-5.71-3.3.4-5.75,3.14-5.78,6.49-.02,1.61-.03,3.22,0,4.83.03,1.42-.49,2.57-1.46,3.6-3.07,3.25-3.89,7.04-2.57,11.29.35,1.12.14,2.03-.68,2.86-3.49,3.54-5.11,7.82-4.53,12.74.8,6.7,4.56,11.17,10.93,13.4,1.15.41,2.36.61,3.63.66Z" style="fill:#b6d3db; stroke-width:0px;"/></g></svg>