<?xml version="1.0" encoding="UTF-8"?><svg id="Layer_2" xmlns="http://www.w3.org/2000/svg" xmlns:xlink="http://www.w3.org/1999/xlink" viewBox="0 0 766 809.24"><defs><linearGradient id="Degradado_sin_nombre_2" x1="209.01" y1="508.27" x2="209.01" y2="204.19" gradientUnits="userSpaceOnUse"><stop offset=".15" stop-color="#ab7cb0"/><stop offset="1" stop-color="#b68080" stop-opacity="0"/></linearGradient><linearGradient id="Degradado_sin_nombre_5" x1="139.08" y1="306.64" x2="172.5" y2="197.16" gradientUnits="userSpaceOnUse"><stop offset="0" stop-color="#ab7cb0"/><stop offset="1" stop-color="#b68080" stop-opacity="0"/></linearGradient><linearGradient id="Degradado_sin_nombre_5-2" x1="296.09" y1="304.98" x2="244.96" y2="202.58" xlink:href="#Degradado_sin_nombre_5"/><linearGradient id="Degradado_sin_nombre_72" x1="210.55" y1="746.49" x2="210.55" y2="399.34" gradientUnits="userSpaceOnUse"><stop offset="0" stop-color="#32677f"/><stop offset=".28" stop-color="#346d84"/><stop offset=".65" stop-color="#3b7e94"/><stop offset="1" stop-color="#4595a9"/></linearGradient><radialGradient id="Degradado_sin_nombre_23" cx="264.25" cy="158.9" fx="264.25" fy="158.9" r="10.16" gradientTransform="translate(-19.4 -61.62) scale(1.02)" gradientUnits="userSpaceOnUse"><stop offset="0" stop-color="#c58a80" stop-opacity=".95"/><stop offset=".46" stop-color="#c58a80" stop-opacity=".65"/><stop offset=".5" stop-color="#c58a80" stop-opacity=".57"/><stop offset=".61" stop-color="#c58a80" stop-opacity=".37"/><stop offset=".71" stop-color="#c58a80" stop-opacity=".21"/><stop offset=".82" stop-color="#c58a80" stop-opacity=".09"/><stop offset=".91" stop-color="#c58a80" stop-opacity=".02"/><stop offset="1" stop-color="#c58a80" stop-opacity="0"/></radialGradient><radialGradient id="Degradado_sin_nombre_23-2" cx="184.51" fx="184.51" r="10.16" xlink:href="#Degradado_sin_nombre_23"/><linearGradient id="Degradado_sin_nombre_72-2" x1="383.26" y1="529.79" x2="470" y2="529.79" xlink:href="#Degradado_sin_nombre_72"/></defs><g id="Capa_1"><path d="M717.59,603.2c-5.02-4.62-11.25-5.59-17.73-5.99-8.9-.55-15.4-4.79-18.95-13.13-2.03-4.76-1.91-9.88-2.45-14.91-1.17-10.89-1.5-21.97-6.48-32.09-.05-.86-.11-1.72-.16-2.58.28-1.54.23-2.98-1.11-4.08l-.69-2.61c-.27-.46-.55-.93-.82-1.39-3.42-9.79-8.26-18.84-13.76-27.62-7.13-11.38-17.38-17.61-30.33-20.32-14.05-2.95-28.03-2.29-42.09-.41-19.15,2.55-36.76,10.37-55.06,15.81-11.13,3.3-21.97,8.04-33.96,7.46-.68-.84-1.51-1.21-2.59-.86-6.63-.17-13.26-.33-19.9-.5,2.82-7.95.64-16.87,4.82-24.58.99-1.82-.8-2.82-2.08-3.55-8.78-4.96-17.21-10.58-26.7-14.19-4.34-4.18-8.31-2.76-12.14.8-13.6-1.76-27.19-2.15-40.78.18-4.23-4.58-8.7-4.35-13.33-.65-8.19,3.32-15.5,8.3-23.32,12.32-4.11,2.11-4.04,5.53-3.23,9.04,1.56,6.75,1.47,13.56,1.5,20.4.03,6.7,1.23,13.25,2.96,20.53,6.68-9.5,10.28-19.8,16.75-28.38.33-2.29.84-4.52,1.51-6.71-.67,2.19-1.18,4.42-1.51,6.71.44.05.88.1,1.32.14,2.98,4.94,1.2,10.75,2.9,15.93-.06,2.21-.12,4.43-.18,6.64-1.4,1.36-1.31,3.09-1.45,4.87-1.02,12.45,1.63,24.11,6.97,35.3-1.19.58-2.09,1.67-2.24,3.08-.23,2.18,1.35,4.14,3.53,4.37.24.03,1.15.11,2.56.13,8.57,15.94,19.25,30.48,30.55,44.59,6.28,7.84,11.02,16.44,14.23,25.87,5.98,17.55,9.23,35.73,12.29,53.95,3.36,15.21,8.04,30.28,2.75,46.07-1.78,5.32-4.39,9.27-9.62,11.82-5.34,2.61-10.36,6.01-14.22,10.66-2.48,2.98-3.7,5.85,2.25,6.44,9.49.95,18.93,1.69,28.36-.42,4.73-1.06,7.49-3.58,6.67-8.85-.17-1.09-.63-2.59-.12-3.24,5.77-7.34,4.05-16.66,6.82-24.73,1-2.91,1.13-5.61.64-8.4-1.79-10.09-1.43-20.23-1.02-30.38.58-20.87-3.47-41.5-3.18-62.36.59-3.22,1.73-6.01,5.36-6.87,7.28,1.22,11.44,5.56,13.68,12.54,5.78,18.06,7.56,36.51,6.28,55.35.02,14.77.47,29.56-2.34,44.19-1.24,6.48-3.99,12.02-9.27,16.28-4.23,3.41-7.12,7.81-7.84,13.37-.45,3.47-.08,6.23,4.47,6.15,1.52-.03,3.05.67,4.57.67,23.41.06,24.5-.67,25.78-21.08.38-5.97,1.44-11.8,3.77-17.36,1.82-4.35,2.83-8.8,1.66-13.54-.26-1.05-.55-2.37-.14-3.25,4.04-8.64,2.31-17.78,2.47-26.75-1.72-22.22,1.95-44.02,5.22-65.85.27-1.79,1.15-3.32,2.45-4.6,15.56-1.66,30.76-4.58,45.43-10.46,16.7-6.69,16.75-6.3,23.74,10.15,2.65,6.23,4.36,13.08,9.18,18.12,15.4,16.13,22.36,34.44,15.37,56.6-.68,6.07-2.63,10.75-10.17,9.75-1.02-.14-2.17.36-3.2.74-4.92,1.79-6.28,6.28-6.54,10.57-.24,4.02,3.78,4.7,6.96,5.77,8.44,2.82,15.5-.82,22.62-4.48,1.8-.92,1.54-2.47,1.4-4.01-.59-6.45,1.71-12.04,5.14-17.3,4.86-11.25,3.02-23.88,7.29-35.28,1.16-3.09-.85-5.98-2.15-8.71-3.77-7.91-7.63-15.78-11.53-23.63-1.64-3.31-2.48-6.95-1.1-10.21,3.09-7.27,4.02-14.74,3.72-22.5-.04-1.06,0-2.23,1.28-2.74.12,15.55,6.76,27.69,17.21,39.21,18.39,20.26,30.51,43.91,31.41,72.1.41,7.23,1.73,14.15-7.75,17.98-3.5,1.41-5.09,8.48-3.87,13.11.97,3.67,5.77,3.21,9.2,3.38,3.96.19,7.98.45,11.89,0,4.58-.53,9.09.47,9.19-8.06.08-6.43.05-13.06.13-19.6-3.84-12.31-6.03-25.21-4.27-37.71,1.4-10-1.51-17.02-7.24-24.04-5.91-7.24-9.15-15.34-8.9-24.9.1-3.82.36-7.93-1.8-11.51,1.33-.21,2.61-.26,3.78.64,11.85,9.19,24.94,6.55,37.99,3.9,1.4-.28,3.34-.47,3.84-2.19.61-2.09-1.31-2.99-2.55-4.12ZM379.93,478.75h0l-.02.03.02-.03Z" style="fill:#281d1b; stroke-width:0px;"/><ellipse cx="242.91" cy="719.65" rx="242.91" ry="76.69" style="fill:#95a89f; stroke-width:0px;"/><ellipse cx="569.02" cy="731.54" rx="196.98" ry="77.71" style="fill:#95a89f; stroke-width:0px;"/><path d="M390.6,562.48c-59.89,0-75.05-70.82-83.34-109.55-.64-2.98-1.23-5.78-1.81-8.35-7.56-33.66-59.31-40-59.83-40.06l.91-7.89c2.36.27,57.89,7.11,66.68,46.21.58,2.59,1.19,5.41,1.83,8.42,8.67,40.51,23.21,108.33,82.2,102.95l.72,7.92c-2.52.23-4.97.34-7.35.34Z" style="fill:#ed892c; stroke-width:0px;"/><path d="M392.37,562.48c-59.89,0-75.05-70.82-83.34-109.55-.64-2.98-1.23-5.78-1.81-8.35-7.56-33.66-59.31-40-59.83-40.06l.91-7.89c2.36.27,57.89,7.11,66.68,46.21.58,2.59,1.19,5.41,1.83,8.42,8.67,40.51,23.21,108.33,82.2,102.95l.72,7.92c-2.52.23-4.97.34-7.35.34Z" style="fill:#ed892c; stroke-width:0px;"/><path d="M117.85,753.31s24.64,13.44,70.18,4.33c0,0,3.43-37.65-32.77-39.88-36.2-2.23-37.41,35.55-37.41,35.55Z" style="fill:#4c4b4b; stroke-width:0px;"/><path d="M158.81,765.16c-22.35,0-38.96-8.31-39.91-8.8-2.5-1.28-3.5-4.35-2.23-6.86,1.27-2.52,4.32-3.52,6.85-2.25.28.14,28.9,14.33,59.68,3.65,2.66-.91,5.56.49,6.49,3.16.92,2.67-.49,5.58-3.15,6.5-9.72,3.37-19.15,4.59-27.74,4.59Z" style="fill:#1e1e1e; stroke-width:0px;"/><path d="M241.64,756.03s26.22,10,70.12-5.17c0,0-1.66-37.77-37.83-35.1-36.17,2.67-32.29,40.27-32.29,40.27Z" style="fill:#4c4b4b; stroke-width:0px;"/><path d="M283.82,762.25c-22.15,3.01-39.72-2.98-40.73-3.34-2.65-.93-4.05-3.84-3.13-6.5.92-2.67,3.81-4.07,6.49-3.15.3.11,30.56,10.31,59.63-4.43,2.51-1.26,5.58-.26,6.85,2.25,1.27,2.52.26,5.59-2.25,6.87-9.18,4.65-18.36,7.13-26.87,8.29Z" style="fill:#1e1e1e; stroke-width:0px;"/><path d="M213,22.14c2.4-.42,4.93.19,7.16,1.21,2.25,1.03,4.26,2.5,6.17,3.97,1.93,1.47,3.75,2.96,5.78,4.12,2.02,1.19,4.16,2.23,6.34,3.24,2.16,1.04,4.37,2.08,6.49,3.33,2.11,1.26,4.16,2.73,5.84,4.61,3.42,3.69,5.14,8.81,4.65,13.64-.36-4.82-2.43-9.36-5.77-12.56-1.67-1.6-3.59-2.94-5.66-4.06-2.06-1.15-4.22-2.15-6.4-3.17-2.17-1.05-4.37-2.12-6.47-3.44-2.1-1.33-3.99-2.93-5.78-4.52-1.82-1.57-3.6-3.13-5.64-4.31-2.02-1.19-4.29-2.04-6.72-2.07Z" style="fill:#848383; stroke-width:0px;"/><path d="M250.81,20.4c3.01,1.69,5.71,3.98,8.01,6.61,2.32,2.62,4.21,5.62,5.69,8.8,1.45,3.2,2.49,6.59,2.97,10.06.5,3.46.48,7-.2,10.39-.14-3.45-.56-6.82-1.32-10.11-.77-3.28-1.84-6.47-3.25-9.51-1.38-3.05-3.11-5.94-5.09-8.66-2-2.71-4.28-5.22-6.81-7.57Z" style="fill:#9c9a99; stroke-width:0px;"/><path d="M155.81,32.42c-.88,1.94-1.44,3.9-1.63,5.88-.19,2,.03,3.88.51,5.9.2,1.01.42,2.08.56,3.13.12,1.06.24,2.13.25,3.2.05,2.13-.12,4.28-.63,6.35-.31-2.11-.58-4.17-.91-6.21-.35-2.05-.73-4.02-1.21-6.07-.2-1.04-.41-2.12-.44-3.25-.02-1.12.08-2.24.35-3.32.51-2.15,1.59-4.16,3.15-5.62Z" style="fill:#9c9a99; stroke-width:0px;"/><path d="M166.9,41.34c.56-2.21,14.66-10.53,14.66-10.53,0,0,15.77-1.11,17.43-5.27,1.66-4.16,11.56-8.59,11.56-8.59l17.14,10.81,18.33,14.14s8.02,11.74,9.68,14.74c1.66,3,5.81,19.91,5.81,19.91l4.18.52c6.66-8.18,10.76-19.26,10.76-31.47,0-25.18-21.38-45.59-42.83-45.59-7.36,0-13.77.39-19.02,4.06-1.31.91-3.04.91-4.34,0-5.25-3.67-11.66-4.06-19.02-4.06-21.45,0-42.83,20.41-42.83,45.59,0,10.07,2.79,19.37,7.49,26.91,3.19-8.88,10.56-29.43,11-31.16Z" style="fill:#aaabaa; stroke-width:0px;"/><path d="M152.52,113.97c.78.15,1.33.32,1.94.46.6.17,1.23.29,1.93.65-.67.42-1.44.48-2.17.31-.73-.19-1.43-.66-1.7-1.42Z" style="fill:#956a59; stroke-width:0px;"/><path d="M267.44,113.97c-.27.75-.97,1.23-1.7,1.42-.74.17-1.5.11-2.17-.31.7-.37,1.33-.49,1.93-.65.61-.14,1.17-.31,1.94-.46Z" style="fill:#956a59; stroke-width:0px;"/><path d="M265.19,65.5c-.07-3.01-.4-5.93-1.05-8.77-.66-2.83-1.6-5.59-2.86-8.19-1.23-2.62-2.77-5.08-4.55-7.38-1.79-2.29-3.85-4.39-6.13-6.34,2.74,1.25,5.2,3.12,7.3,5.33,2.12,2.21,3.84,4.78,5.17,7.54,1.3,2.78,2.21,5.74,2.59,8.78.39,3.03.28,6.12-.47,9.04Z" style="fill:#9c9a99; stroke-width:0px;"/><path d="M166.2,46.84c-1.47,2.75-1.08,5.5-1.42,8.61-.17,1.57-.66,3.12-1.31,4.51-.66,1.41-1.47,2.7-2.46,3.9.24-1.54.65-2.99,1-4.42.36-1.43.63-2.81.8-4.23.17-1.43.29-2.97.74-4.51.43-1.51,1.28-3.07,2.65-3.87Z" style="fill:#9c9a99; stroke-width:0px;"/><path d="M207.18,458.69c-80.11,0-141.16-80.18-141.16-80.18-17.6-29.19-26.96-63.16-26.96-97.85,0-99.32,76.72-181.05,169.94-181.05s169.94,81.73,169.94,181.05c0,34.77-9.4,68.81-27.07,98.04,0,0-50.79,79.99-144.7,79.99Z" style="fill:#b282b7; stroke-width:0px;"/><path d="M208.95,431.01c-86.46,0-125.12-31.67-125.12-31.67-.5-4.91-.76-9.84-.76-14.77,0-74.06,56.85-135.01,125.94-135.01s125.94,60.95,125.94,135.01c0,5.2-.28,10.4-.84,15.56,0,0-41.03,30.88-125.15,30.88Z" style="fill:url(#Degradado_sin_nombre_2); stroke-width:0px;"/><path d="M333.66,399.69h.03c.44-4.42.68-8.86.71-13.29-.03-4.57-.18-9.14-.6-13.69-.81-9.1-2.5-18.11-5.05-26.87-5.07-17.53-13.67-33.99-25.13-48.1-11.48-14.06-25.68-26-41.91-34.1-16.18-8.16-34.21-12.56-52.31-12.58-18.1-.15-36.16,4.18-52.39,12.23-16.28,8-30.59,19.81-42.13,33.83-11.53,14.05-20.23,30.47-25.42,47.96-4.72,15.93-6.58,32.72-5.55,49.35h249.76v5.27Z" style="fill:none; stroke-width:0px;"/><path d="M334.11,399.69h-.41c-.01.13-.02.26-.03.4l.44-.4Z" style="fill:#7f77a9; stroke-width:0px;"/><path d="M333.66,400.08c.01-.13.02-.26.03-.4h-.03v.4Z" style="fill:#7f77a9; stroke-width:0px;"/><path d="M335.03,372.6c-.7-9.18-2.29-18.31-4.76-27.2-4.9-17.79-13.39-34.6-24.87-49.11-5.73-7.25-12.2-13.94-19.34-19.83-7.12-5.91-14.88-11.06-23.15-15.25-16.5-8.42-34.96-13.04-53.52-13.14-18.56-.06-37.05,4.48-53.6,12.79-16.59,8.27-31.19,20.35-42.7,34.81-11.54,14.44-20.14,31.2-25.17,48.95-5.02,17.75-6.56,36.46-4.56,54.75l.04.4h.39s.05,0,.05,0v-.83l-.05-.05h.05v-4.48h.03c-1.03-16.63.83-33.42,5.55-49.35,5.2-17.49,13.89-33.9,25.42-47.96,11.54-14.02,25.85-25.83,42.13-33.83,16.22-8.05,34.29-12.38,52.39-12.23,18.09.02,36.13,4.42,52.31,12.58,16.24,8.1,30.43,20.04,41.91,34.1,11.46,14.11,20.06,30.58,25.13,48.1,2.55,8.76,4.24,17.77,5.05,26.87.42,4.55.57,9.12.6,13.69-.03,4.44-.27,8.88-.71,13.29h.41l-.44.4v.49h.44s.4,0,.4,0l.05-.4c.52-4.57.83-9.17.92-13.77.03-4.6-.06-9.21-.43-13.81Z" style="fill:#7f77a9; stroke-width:0px;"/><polygon points="83.83 398.9 83.88 398.95 83.88 398.9 83.83 398.9" style="fill:#7f77a9; stroke-width:0px;"/><path d="M84.23,398.9h-.36s0,.04,0,.04l.38.35c-.01-.13-.02-.26-.03-.39Z" style="fill:#7f77a9; stroke-width:0px;"/><path d="M83.91,394.42h-.03v4.48h.36c-.14-1.49-.23-2.98-.32-4.48Z" style="fill:#7f77a9; stroke-width:0px;"/><path d="M269.44,117.24c0-32.53-26.32-58.89-58.78-58.89s-58.78,26.37-58.78,58.89c0,4.18.44,8.26,1.27,12.19-2.44,5.9-3.79,12.28-3.79,18.95,0,5.48.91,10.77,2.59,15.76,7.44,22.11,30.11,38.2,56.94,38.2s49.5-16.09,56.94-38.2c1.68-4.99,2.59-10.28,2.59-15.76,0-4.52-.62-8.91-1.78-13.11,1.82-5.68,2.82-11.74,2.82-18.03Z" style="fill:#aa7e67; stroke-width:0px;"/><path d="M265.82,164.14c-7.44,22.11-30.11,38.2-56.94,38.2s-49.5-16.09-56.94-38.2l23.22,25.55,22.96,68.14,15,14.65,23.68-70.14,29.01-38.2Z" style="fill:#ccc7c7; stroke-width:0px;"/><path d="M125.74,159.96c1.96,34.95-16.06,60.06-19.98,68.04-3.93,7.98-3.47,15.97-2.19,25.23,1.27,9.26-.23,11.75-2.35,15.03-7.66,11.88-8.42,24.3-2.78,34.09,11.08,19.23,45.82,21.39,76.12,2.4,10.67-6.69,23.56-15.96,34.44-36.79" style="fill:#b282b7; stroke-width:0px;"/><path d="M125.74,159.96c.32,5.92.31,11.88-.43,17.79-.74,5.9-1.95,11.74-3.64,17.46-1.72,5.7-3.95,11.24-6.49,16.63-1.28,2.69-2.64,5.34-4.06,7.95-1.41,2.61-2.92,5.19-4.27,7.77-1.36,2.57-2.27,5.32-2.79,8.16-.5,2.84-.64,5.75-.5,8.67.12,2.92.48,5.84.88,8.76.39,2.97.71,6,.27,9.12-.24,1.55-.75,3.12-1.51,4.49-.37.69-.78,1.33-1.18,1.96l-1.13,1.87c-1.45,2.52-2.66,5.16-3.55,7.92-1.78,5.48-2.17,11.44-.67,16.97,1.45,5.53,4.73,10.55,9.33,14,4.57,3.5,10.12,5.61,15.82,6.68,5.72,1.04,11.62,1.14,17.43.48,5.81-.66,11.55-2.01,17.1-3.91,2.77-.97,5.51-2.03,8.17-3.29,1.35-.59,2.64-1.29,3.96-1.93,1.28-.71,2.6-1.37,3.85-2.14,5.08-2.98,10-6.27,14.55-10,9.17-7.43,16.46-17.01,22.13-27.4-5.27,10.6-12.44,20.38-21.51,28.15-4.55,3.86-9.46,7.24-14.54,10.33-1.26.8-2.58,1.49-3.87,2.23-1.33.68-2.63,1.4-3.99,2.02-2.68,1.31-5.45,2.44-8.25,3.47-5.61,2.03-11.46,3.49-17.41,4.17-5.95.7-12.01.64-17.95-.41-5.91-1.08-11.75-3.25-16.64-6.95-2.44-1.84-4.6-4.08-6.31-6.64-1.71-2.56-2.99-5.39-3.78-8.35-1.59-5.95-1.12-12.31.78-18.07.95-2.89,2.23-5.65,3.75-8.26l1.18-1.93c.4-.62.78-1.23,1.12-1.84.68-1.22,1.11-2.51,1.33-3.89.41-2.77.13-5.71-.23-8.6-.39-2.95-.74-5.92-.85-8.93-.12-3.01.02-6.05.59-9.05.6-2.98,1.62-5.9,3.07-8.56,1.44-2.64,2.97-5.16,4.41-7.74,1.45-2.57,2.84-5.18,4.14-7.83,2.6-5.29,4.88-10.75,6.69-16.37,1.82-5.62,3.16-11.39,4.04-17.23l.53-4.4c.17-1.47.19-2.95.3-4.43l.14-2.22c.03-.74,0-1.48,0-2.22l-.02-4.45Z" style="fill:#7f6eab; stroke-width:0px;"/><path d="M292.27,159.96c-1.96,34.95,16.06,60.06,19.98,68.04,3.93,7.98,3.47,15.97,2.19,25.23-1.27,9.26.23,11.75,2.35,15.03,7.66,11.88,8.42,24.3,2.78,34.09-11.08,19.23-45.82,21.39-76.12,2.4-10.67-6.69-23.56-15.96-34.44-36.79" style="fill:#b282b7; stroke-width:0px;"/><path d="M292.27,159.96l-.02,4.45c0,.74-.02,1.48,0,2.22l.14,2.22c.11,1.48.13,2.96.3,4.43l.53,4.4c.88,5.85,2.22,11.62,4.04,17.23,1.81,5.62,4.09,11.08,6.69,16.37,1.31,2.65,2.69,5.25,4.14,7.83,1.44,2.58,2.97,5.1,4.41,7.74,1.45,2.65,2.47,5.57,3.07,8.56.57,2.99.71,6.04.59,9.05-.11,3.01-.46,5.98-.85,8.93-.37,2.89-.64,5.83-.23,8.6.22,1.38.65,2.67,1.33,3.89.34.61.72,1.22,1.12,1.84l1.18,1.93c1.52,2.61,2.8,5.37,3.75,8.26,1.91,5.75,2.37,12.11.78,18.07-.8,2.97-2.08,5.8-3.78,8.35-1.71,2.56-3.87,4.8-6.31,6.64-4.89,3.7-10.73,5.87-16.64,6.95-5.94,1.05-12,1.12-17.95.41-5.95-.68-11.8-2.14-17.41-4.17-2.8-1.03-5.57-2.16-8.25-3.47-1.36-.62-2.66-1.35-3.99-2.02-1.29-.74-2.62-1.43-3.87-2.23-5.08-3.09-10-6.47-14.54-10.33-9.06-7.77-16.23-17.55-21.51-28.15,5.67,10.39,12.96,19.97,22.13,27.4,4.56,3.73,9.47,7.02,14.55,10,1.25.77,2.57,1.43,3.85,2.14,1.32.65,2.61,1.34,3.96,1.93,2.66,1.25,5.4,2.32,8.17,3.29,5.55,1.9,11.29,3.25,17.1,3.91,5.81.66,11.71.56,17.43-.48,5.7-1.07,11.25-3.19,15.82-6.68,4.59-3.45,7.88-8.47,9.33-14,1.51-5.53,1.12-11.49-.67-16.97-.88-2.75-2.1-5.4-3.55-7.92l-1.13-1.87c-.4-.63-.81-1.27-1.18-1.96-.76-1.37-1.27-2.94-1.51-4.49-.44-3.12-.11-6.15.27-9.12.4-2.92.76-5.85.88-8.76.14-2.92,0-5.83-.5-8.67-.53-2.84-1.44-5.59-2.79-8.16-1.35-2.59-2.86-5.16-4.27-7.77-1.42-2.61-2.78-5.26-4.06-7.95-2.54-5.38-4.77-10.93-6.49-16.63-1.69-5.71-2.9-11.56-3.64-17.46-.74-5.91-.75-11.87-.43-17.79Z" style="fill:#7f6eab; stroke-width:0px;"/><path d="M125.74,159.96c1.96,34.95-16.06,60.06-19.98,68.04-3.93,7.98-3.47,15.97-2.19,25.23,1.27,9.26-.23,11.75-2.35,15.03-7.66,11.88-8.42,24.3-2.78,34.09,11.08,19.23,45.82,21.39,76.12,2.4,10.67-6.69,23.56-15.96,34.44-36.79" style="fill:url(#Degradado_sin_nombre_5); stroke-width:0px;"/><path d="M125.74,159.96c.37,5.91.41,11.88-.3,17.8-.7,5.91-1.88,11.78-3.54,17.51-1.7,5.72-3.92,11.29-6.44,16.69-1.27,2.7-2.62,5.36-4.03,7.98-1.4,2.62-2.91,5.21-4.24,7.78-1.33,2.55-2.21,5.26-2.72,8.06-.48,2.81-.61,5.68-.47,8.58.13,2.89.5,5.8.91,8.72.4,2.99.74,6.04.3,9.26-.24,1.6-.77,3.24-1.56,4.66-.39.71-.8,1.37-1.2,1.99l-1.12,1.85c-1.43,2.49-2.63,5.1-3.51,7.81-1.76,5.41-2.15,11.26-.67,16.69,1.43,5.43,4.64,10.34,9.16,13.73,4.49,3.44,9.97,5.51,15.6,6.59,5.66,1.05,11.51,1.17,17.28.54,5.78-.64,11.49-1.95,17.02-3.82,2.76-.96,5.49-2,8.15-3.24,1.34-.58,2.64-1.27,3.95-1.91,1.28-.71,2.6-1.36,3.85-2.12,5.08-2.95,10-6.22,14.56-9.92,9.2-7.35,16.52-16.88,22.29-27.22-5.18,10.66-12.32,20.49-21.35,28.34-4.54,3.89-9.45,7.3-14.54,10.42-1.26.81-2.59,1.5-3.88,2.25-1.33.68-2.64,1.42-4,2.04-2.68,1.33-5.46,2.47-8.27,3.51-2.81,1.05-5.7,1.9-8.61,2.64-2.92.73-5.89,1.24-8.88,1.61-5.98.73-12.09.69-18.09-.36-5.98-1.08-11.88-3.29-16.85-7.05-2.48-1.87-4.68-4.16-6.42-6.76-1.74-2.61-3.04-5.48-3.85-8.51-1.62-6.06-1.15-12.52.78-18.35.96-2.93,2.26-5.72,3.79-8.36l1.19-1.95c.4-.62.77-1.21,1.1-1.81.65-1.18,1.07-2.39,1.29-3.72.41-2.67.15-5.59-.2-8.46-.38-2.96-.73-5.95-.82-8.98-.11-3.03.04-6.11.62-9.14.61-3.02,1.66-5.98,3.14-8.65,1.46-2.66,2.99-5.16,4.44-7.74,1.46-2.57,2.85-5.16,4.16-7.79,2.62-5.27,4.91-10.71,6.74-16.31,1.85-5.59,3.23-11.34,4.14-17.18l.56-4.4c.18-1.47.21-2.95.33-4.42l.15-2.22c.03-.74.01-1.48.02-2.22v-4.45Z" style="fill:#7f77a9; stroke-width:0px;"/><path d="M292.27,159.96c-1.96,34.95,16.06,60.06,19.98,68.04,3.93,7.98,3.47,15.97,2.19,25.23-1.27,9.26.23,11.75,2.35,15.03,7.66,11.88,8.42,24.3,2.78,34.09-11.08,19.23-45.82,21.39-76.12,2.4-10.67-6.69-23.56-15.96-34.44-36.79" style="fill:url(#Degradado_sin_nombre_5-2); stroke-width:0px;"/><path d="M292.27,159.96v4.45c.02.74,0,1.48.04,2.22l.15,2.22c.12,1.47.14,2.95.33,4.42l.56,4.4c.92,5.84,2.29,11.58,4.14,17.18,1.84,5.6,4.13,11.04,6.74,16.31,1.31,2.64,2.71,5.23,4.16,7.79,1.45,2.58,2.99,5.08,4.44,7.74,1.48,2.68,2.53,5.64,3.14,8.65.59,3.03.73,6.11.62,9.14-.1,3.03-.45,6.02-.82,8.98-.36,2.87-.61,5.79-.2,8.46.22,1.33.63,2.54,1.29,3.72.33.59.7,1.19,1.1,1.81l1.19,1.95c1.53,2.64,2.83,5.44,3.79,8.36,1.93,5.83,2.4,12.3.78,18.35-.81,3.02-2.11,5.9-3.85,8.51-1.74,2.61-3.94,4.89-6.42,6.76-4.97,3.76-10.88,5.97-16.85,7.05-6,1.04-12.11,1.08-18.09.36-2.99-.38-5.96-.88-8.88-1.61-2.91-.75-5.8-1.59-8.61-2.64-2.81-1.05-5.59-2.19-8.27-3.51-1.36-.63-2.67-1.36-4-2.04-1.29-.75-2.62-1.45-3.88-2.25-5.08-3.12-9.99-6.53-14.54-10.42-9.03-7.85-16.17-17.68-21.35-28.34,5.77,10.34,13.09,19.87,22.29,27.22,4.56,3.7,9.48,6.96,14.56,9.92,1.25.76,2.57,1.41,3.85,2.12,1.32.64,2.61,1.33,3.95,1.91,2.65,1.24,5.39,2.29,8.15,3.24,5.53,1.87,11.24,3.19,17.02,3.82,5.77.63,11.63.51,17.28-.54,5.63-1.08,11.11-3.15,15.6-6.59,4.51-3.38,7.73-8.29,9.16-13.73,1.48-5.42,1.09-11.28-.67-16.69-.87-2.71-2.07-5.33-3.51-7.81l-1.12-1.85c-.4-.63-.82-1.29-1.2-1.99-.79-1.41-1.32-3.06-1.56-4.66-.44-3.22-.1-6.27.3-9.26.41-2.92.78-5.82.91-8.72.14-2.89.02-5.77-.47-8.58-.51-2.8-1.39-5.52-2.72-8.06-1.33-2.57-2.84-5.16-4.24-7.78-1.41-2.62-2.76-5.28-4.03-7.98-2.53-5.41-4.74-10.97-6.44-16.69-1.66-5.74-2.84-11.6-3.54-17.51-.71-5.92-.67-11.89-.3-17.8Z" style="fill:#7f77a9; stroke-width:0px;"/><path d="M213.66,289.33c-.72,0-1.46-.09-2.19-.29-4.5-1.21-7.16-5.84-5.96-10.34.45-1.68,11.04-41.22,15.89-56.08,1.33-4.08,2.41-7.67,3.44-11.13,2.63-8.78,4.9-16.35,9.46-24.86,2.2-4.11,7.31-5.65,11.41-3.44,4.1,2.21,5.64,7.33,3.43,11.43-3.76,7.01-5.61,13.18-8.17,21.72-1.02,3.39-2.17,7.24-3.57,11.52-4.71,14.43-15.52,54.8-15.63,55.21-1.01,3.77-4.41,6.26-8.14,6.26Z" style="fill:#8b7eb5; stroke-width:0px;"/><path d="M197.89,337.47c.26,30.5,3.98,88.57,4.38,93.54h18.42c0-.2-3.26-32.18-3.28-32.38-.02-.28-2.38-28.21-2.66-61.3-.27-31.79,6.83-53.55,6.9-53.75.93-2.76.36-5.81-1.49-8.06-.2-.24-20.06-24.71-25.67-55.49-4.68-25.72-10.57-40.4-17.49-43.62-4.22-1.96-9.23-.13-11.19,4.1-1.69,3.66-.55,7.9,2.51,10.25.87,1.16,5.13,7.84,9.59,32.29,5.13,28.17,20.16,50.99,26.46,59.58-2.28,8.46-6.69,28.38-6.47,54.84Z" style="fill:#8b7eb5; stroke-width:0px;"/><path d="M151.88,111.05s-13.95-6.44-17.45,18.38c-3.99,28.3,2.52,64.06,2.52,64.06,0,0,24.49,1.68,31.42-2.95,6.93-4.63,11.55-8.33,12.48-6.02.92,2.31-.46,6.96,0,9.27.46,2.31,5.43-4.46,6.82-.99,0,0-3.31-7.37-8.14-15.28-3.21-5.25-15.77-19.44-27.63-66.47Z" style="fill:#a994c4; stroke-width:0px;"/><path d="M267.24,111.05s13.95-6.44,17.45,18.38c3.99,28.3-2.52,64.06-2.52,64.06,0,0-24.49,1.68-31.42-2.95-6.93-4.63-11.55-8.33-12.48-6.02-.92,2.31.46,6.96,0,9.27-.46,2.31-5.43-4.46-6.82-.99,0,0,3.31-7.37,8.14-15.28,3.21-5.25,15.77-19.44,27.63-66.47Z" style="fill:#a994c4; stroke-width:0px;"/><path d="M164.79,187.71c-.03-2.43-1.23-5.99-1.87-8.32-.05.15-.14.29-.21.43.07-.44.18-.87.2-1.31.19-3.39-.97-7.33-3.15-9.94-.03.1-.09.23-.12.35.26-1.42.42-2.85.33-4.29-.12-1.89-1.15-10.52-4.2-9.67,0,0,0,0,0,0,.28-.73.5-1.31.54-1.51.53-2.64,1.28-7.63-.37-9.86.78-.95,1.37-1.7,1.43-1.89.87-2.67.37-8.54-.71-11.18-.08.02-.16.09-.24.13,1.55-3.53,2.22-7.67.22-11.14-.01,0-.03.02-.04.03,0-.82-.06-1.65-.16-2.47-.24-2.02-.49-4.04-.73-6.07,2.14-3.6,3.41-7.72,3.46-11.91.09-7.38-3.46-14.71-9.3-19.21-2.38,8.24-4.29,18.66-3.43,27.84-2.04,3.23-3.09,7.23-2.83,11.16.01.15.05.37.08.55,0,0-.01-.02-.02-.03-.39,3.33-.99,7.55-.56,11.46-.08-.15-.17-.32-.23-.45-.44,3.44-1.72,6.71-2.31,10.13-.29,1.66-.38,3.4-.16,5.07-.11-.08-.2-.16-.32-.24-.94,4.3-.78,9,1.14,12.95-1.87,4.35-1.69,9.53.5,13.73.29.56.7,1.03,1.05,1.55-.06-.03-.13-.08-.19-.11.45,3.59,1.02,8.43,3.17,12.17-.16-.11-.31-.25-.47-.36.16.11-.26,6.92-.17,7.72.12,1.04.34,2.07.57,3.09-.08-.16-.19-.29-.27-.46-2.31,2.49-3.74,6.01-4,9.54-.09-.29-.1-.52.03-.64-4.2,3.59-6.19,11.34-5.5,17.8-.66-.04-1.44.4-2.34,1.58-2.55,3.36-2.51,8.95-.89,12.65.9-.37,1.7-.93,2.44-1.56,2.17.8,4.66.68,6.68-.45,1.29-.72,3.09-2.59,3.37-4.05,1.9-.64,3.53-1.93,4.68-3.74,1.57-2.47,4.13-7.26,4.76-10.12-.23,1.05-1.08,1.76-2.24,2.33,1.68-1.47,3.13-3.27,4.08-5.29,1.13-2.41,1.1-6.05,1.1-6.05,0,0-.06.02-.07.03,3.46-3.3,5.81-9.01,6.21-13.65t0,0c.78-1.97,1.07-4.45,1.05-6.33ZM151.43,163.09c-.04-.52-.11-1.06-.21-1.61.19.23.37.46.56.69-.12.31-.23.62-.35.93ZM147.92,153.1s0,.03,0,.04c-.1-.14-.2-.27-.3-.41.16-.03.33-.06.49-.11-.06.16-.15.33-.18.48ZM149.9,167.36c-.13.37-.24.66-.34.91-.21-.25-.41-.5-.62-.75.33.03.65-.02.96-.16ZM153.65,172.78c-.93-.99-1.9-1.91-2.44-2.52.84.82,1.67,1.65,2.44,2.52ZM157.64,185.85h0s0,0,0,0h0ZM155.99,175.6c-.05.08-.11.17-.16.26-.07-.31-.24-.67-.5-1.06.22.27.45.53.67.81ZM150.19,116.32c-.18.24-.31.49-.46.75-.18-.3-.36-.6-.54-.9.32.14.65.19,1,.15ZM147.04,111.66c-.2-.66-.32-1.33-.38-2.01.1.69.25,1.34.38,2.01ZM149.69,138.24s0,0,0,.01c.1.1.23.13.39.12-.57.75-1.15,1.43-1.75,1.89.02.04.03.07.04.1-.1-.2-.19-.39-.29-.59.8.14,1.3-.5,1.59-1.54ZM153.86,179.62c-.03.22-.1.44-.08.65-.11-.07-.21-.16-.33-.22,0,0,0,0-.01,0,.14-.12.28-.25.42-.42ZM151.3,203.7c-.06.08-.13.15-.18.23-.03-.06-.07-.12-.11-.18.1-.02.19-.03.29-.05ZM146.54,213.53s-.08.06-.11.09c-.06.05-.13.08-.19.12-.03-.07-.06-.15-.09-.22.13,0,.26.02.39.02ZM138.34,229.98s.02-.11.03-.16c.06.08.12.16.19.23-.11.07-.21.14-.32.21.03-.1.08-.19.1-.28ZM146.24,221.05c.04-.05.08-.1.12-.15,0,.04,0,.08,0,.12-.04.01-.07.02-.11.03ZM150.57,210.94c.11-.2.23-.4.32-.63.03.03.03.08.07.1.09.07.19.1.29.15-.23.12-.45.25-.68.37ZM157.91,198.97s-.05-.07-.07-.11c.2-.06.4-.13.59-.2-.18.12-.35.21-.52.31Z" style="fill:#989795; stroke-width:0px;"/><path d="M137.5,239.43s-1.94-3.01-5.97-.68c0,0-2.32,2.46-1.92,6.66.4,4.2,6.06,8.01,3.66,12.08,0,0,4.85-1.14,5.04-5.66.19-4.52,2.06-8.11.08-10.79-1.97-2.68-.91-1.61-.91-1.61Z" style="fill:#989795; stroke-width:0px;"/><path d="M131.58,233.06s-1.07,5.12-.05,6.33c1.02,1.21-.87-.46-.46,0s6.4,1.25,6.89,1.9c.49.65,2.8-4.93,2.59-6.12,0,0-5.06-1.97-8.97-2.11Z" style="fill:#b970a6; stroke-width:0px;"/><path d="M287.47,235.05c.74.63,1.54,1.19,2.44,1.56,1.63-3.69,1.66-9.29-.89-12.65-.9-1.19-1.68-1.63-2.34-1.58.7-6.46-1.3-14.21-5.5-17.8.13.12.12.34.03.64-.26-3.53-1.69-7.05-4-9.54-.08.17-.19.3-.27.46.23-1.03.45-2.05.57-3.09.09-.8-.33-7.62-.17-7.72-.16.11-.31.24-.47.36,2.15-3.75,2.72-8.58,3.17-12.17-.06.03-.13.08-.19.11.35-.52.76-.99,1.05-1.55,2.19-4.2,2.37-9.38.5-13.73,1.92-3.95,2.08-8.65,1.14-12.95-.11.08-.21.16-.32.24.22-1.67.13-3.42-.16-5.07-.59-3.41-1.87-6.69-2.31-10.13-.06.13-.16.3-.23.45.43-3.91-.17-8.13-.56-11.46,0,0-.01.02-.02.03.03-.18.07-.4.08-.55.26-3.93-.79-7.93-2.83-11.16.86-9.18-1.05-19.6-3.43-27.84-5.84,4.5-9.39,11.83-9.3,19.21.05,4.19,1.33,8.32,3.46,11.91-.24,2.02-.49,4.04-.73,6.07-.1.82-.16,1.64-.15,2.47-.01,0-.03-.02-.04-.03-2,3.47-1.32,7.61.22,11.14-.08-.03-.16-.1-.24-.13-1.07,2.64-1.58,8.51-.71,11.18.06.19.65.94,1.43,1.89-1.66,2.23-.9,7.22-.37,9.86.04.2.26.78.54,1.51,0,0,0,0,0,0-3.05-.85-4.08,7.78-4.2,9.67-.09,1.44.07,2.87.33,4.29-.03-.11-.1-.24-.12-.34-2.18,2.61-3.34,6.54-3.15,9.94.02.44.13.87.2,1.31-.07-.14-.15-.28-.21-.43-.64,2.33-1.84,5.89-1.86,8.32-.02,1.88.27,4.36,1.04,6.33h0c.4,4.65,2.75,10.36,6.21,13.65,0,0-.07-.03-.07-.03,0,0-.03,3.64,1.1,6.05.95,2.02,2.39,3.83,4.08,5.29-1.17-.57-2.02-1.27-2.25-2.33.63,2.86,3.19,7.65,4.76,10.12,1.16,1.82,2.78,3.1,4.68,3.74.29,1.46,2.08,3.32,3.37,4.05,2.02,1.13,4.52,1.25,6.68.45ZM284.28,229.83c.01.05.02.11.03.16.02.1.08.19.1.28-.11-.07-.21-.14-.32-.21.07-.07.13-.15.19-.23ZM273.09,168.27c-.09-.25-.2-.54-.34-.91.31.14.63.19.96.16-.21.25-.42.5-.62.75ZM274.73,153.14s0-.02,0-.04c-.04-.15-.13-.32-.18-.48.16.05.32.08.49.11-.1.14-.2.27-.3.41ZM271.22,163.09c-.11-.31-.23-.62-.35-.93.19-.23.37-.45.56-.69-.1.55-.17,1.09-.21,1.61ZM271.44,170.25c-.54.61-1.51,1.54-2.45,2.52.78-.88,1.61-1.7,2.45-2.52ZM265.01,185.85h0s0,0,0,0h0ZM276.41,213.73c-.06-.04-.13-.07-.19-.12-.03-.03-.08-.06-.11-.09.13,0,.26-.01.39-.02-.03.07-.06.15-.09.22ZM271.53,203.93c-.06-.08-.12-.15-.18-.23.1.03.19.04.29.05-.03.06-.07.12-.11.18ZM269.2,180.04c-.12.06-.21.16-.33.22.01-.21-.05-.43-.08-.65.15.16.29.3.43.42,0,0,0,0-.01,0ZM274.26,140.37s.03-.06.04-.1c-.6-.46-1.18-1.14-1.75-1.89.16.01.3-.03.39-.12,0,0,0,0,0-.01.28,1.04.79,1.69,1.59,1.54-.1.19-.19.39-.28.58ZM275.61,111.66c.13-.67.29-1.32.38-2.01-.06.68-.18,1.35-.38,2.01ZM273.46,116.16c-.18.3-.36.6-.54.9-.14-.25-.28-.51-.46-.75.35.04.68-.01,1-.15ZM267.32,174.8c-.26.39-.43.75-.5,1.06-.05-.08-.11-.17-.16-.26.21-.28.45-.53.67-.81ZM264.22,198.66c.2.07.39.14.59.2-.02.04-.05.07-.07.11-.17-.1-.35-.2-.52-.31ZM271.69,210.42s.04-.08.07-.1c.09.23.21.42.32.63-.23-.12-.45-.25-.68-.37.1-.05.2-.08.29-.15ZM276.3,220.9c.04.05.08.1.12.15l-.11-.03s0-.08,0-.12Z" style="fill:#989795; stroke-width:0px;"/><path d="M291.11,238.76c-4.03-2.34-5.97.68-5.97.68,0,0,1.07-1.07-.91,1.61-1.97,2.68-.11,6.27.09,10.79.19,4.52,5.04,5.66,5.04,5.66-2.4-4.07,3.27-7.88,3.66-12.08.4-4.2-1.92-6.66-1.92-6.66Z" style="fill:#989795; stroke-width:0px;"/><path d="M291.07,233.06s1.07,5.12.05,6.33c-1.02,1.21.87-.46.46,0s-6.4,1.25-6.89,1.9-2.8-4.93-2.59-6.12c0,0,5.06-1.97,8.97-2.11Z" style="fill:#b970a6; stroke-width:0px;"/><path d="M271.75,69.17c-6.19-1.65-8.24,0-8.24,0,0,0,1.64-24.28-9.86-30.04-11.5-5.76-24.23-6.99-29.16-12.34-3.17-3.44-8.71-8.91-12.27-12.39h-3.34c-3.56,3.48-9.1,8.95-12.27,12.39-4.93,5.35-17.66,6.58-29.16,12.34-11.5,5.76-9.86,30.04-9.86,30.04,0,0-2.05-1.65-8.24,0-6.19,1.65-5.31,11.11-2.85,17.28,2.46,6.17,7.81,13.95,5.36,21.4-2.44,7.45,5.72,7.82,5.72,7.82l51.28,49.06v3.2l1.67-1.6,1.67,1.6v-3.2l51.28-49.06s8.17-.37,5.72-7.82c-2.44-7.45,2.9-15.22,5.36-21.4,2.46-6.17,3.34-15.64-2.85-17.28Z" style="fill:#aa7e67; stroke-width:0px;"/><path d="M83.82,399.34c-20.03,92.47-23.71,214.36-34.07,327.96,13.36,5.13,27.23,8.96,41.33,11.42,7.8,1.36,15.89,2.29,23.59.44,5.44-1.31,10.48-3.96,15.91-5.34,23.99-6.1,47.55,13.57,72.28,12.64,16.45-.62,31.49-10.34,47.92-11.29,14.36-.83,28.49,5.13,42.84,4.24,27.05-1.68,52.76-27.08,77.72-16.51-4.68-50.15-11.31-120.72-15.99-170.88-4.59-49.16-10-103.82-21.26-151.89,0,0-36.16,30.88-122.76,30.88-95.22,0-127.52-31.67-127.52-31.67Z" style="fill:url(#Degradado_sin_nombre_72); stroke-width:0px;"/><path d="M206.39,432.31c-43.24,0-74.06-8.51-92.5-15.78-20.66-8.14-30.43-16.32-30.84-16.66-.54-.45-.61-1.26-.15-1.8.45-.54,1.25-.6,1.79-.15.39.33,39.77,32.93,125.64,31.81,85.92-1.03,122.6-29.86,122.96-30.15.55-.44,1.36-.35,1.79.19.44.55.36,1.36-.19,1.8-.37.3-37.74,29.67-124.53,30.72-1.34.01-2.67.02-3.98.02Z" style="fill:#7f77a9; stroke-width:0px;"/><ellipse cx="250.16" cy="100.77" rx="10.36" ry="10.38" style="fill:url(#Degradado_sin_nombre_23); stroke-width:0px;"/><ellipse cx="168.82" cy="100.77" rx="10.36" ry="10.38" style="fill:url(#Degradado_sin_nombre_23-2); stroke-width:0px;"/><path d="M158.63,90.52c-1.61,4.87-2.06,9.98-1.59,14.96.49,4.98,1.85,9.87,3.97,14.39,2.09,4.55,4.89,8.77,8.05,12.71,3.17,3.94,6.73,7.58,10.42,11.14-4.21-2.92-8.13-6.29-11.59-10.13-3.47-3.82-6.46-8.15-8.67-12.88-2.18-4.75-3.52-9.9-3.71-15.13-.21-5.2.75-10.51,3.13-15.07Z" style="fill:#956a59; stroke-width:0px;"/><path d="M261.33,90.52c2.38,4.56,3.34,9.86,3.13,15.07-.19,5.22-1.53,10.38-3.71,15.13-2.21,4.73-5.2,9.06-8.67,12.88-3.47,3.83-7.39,7.21-11.59,10.13,3.68-3.56,7.24-7.2,10.42-11.14,3.16-3.94,5.96-8.15,8.05-12.71,2.11-4.52,3.47-9.41,3.97-14.39.48-4.99.02-10.09-1.59-14.96Z" style="fill:#956a59; stroke-width:0px;"/><path d="M183.22,138.46c1.07,2.39,2.85,4.34,4.84,5.92,2,1.59,4.3,2.73,6.68,3.6,4.78,1.72,9.93,2.34,15.06,2.32,5.12,0,10.29-.49,15.07-2.22,2.38-.85,4.69-1.99,6.67-3.6.97-.82,1.92-1.68,2.71-2.7.8-1,1.51-2.1,1.98-3.32-.56,2.58-2.16,4.87-4.04,6.75-1.93,1.87-4.28,3.28-6.74,4.31-1.22.58-2.51.93-3.79,1.32-1.29.34-2.6.59-3.91.85-1.32.15-2.64.34-3.96.44-1.32.05-2.65.12-3.98.15-5.28-.02-10.68-.75-15.62-2.87-2.46-1.05-4.8-2.45-6.74-4.3-1.9-1.86-3.54-4.1-4.2-6.65Z" style="fill:#956a59; stroke-width:0px;"/><path d="M267.95,85.62c-7.24-8.76-3.11-13.76-3.39-22.94-.29-9.18-.85-31.73-14.89-33.4-14.04-1.67-23.78-14.97-27.48-17.99-3.45-2.82-11.45,2.81-12.51,3.58-2.27-1.73-8.4-5.97-11.52-3.72-3.87,2.79-14.39,15.5-28.5,16.33-14.11.83-14.39,23.28-15.22,32.43-.83,9.15,1.38,14.41-6.36,22.73-7.75,8.31-3.44,16.96-3.44,16.96.16-9.65-.71-9.2,5.93-13.91,6.64-4.71,5.53-10.81,9.81-15.8,4.28-4.99,4.85-5.82,8.72-16.35,3.87-10.53,13.83-11.64,13.83-11.64-7.19,4.16-11.9,15.24-11.9,15.24,0,0,6.64-13.3,22.5-14.97,11.29-1.18,15.12-14.17,16.39-21.55.93,7.53,4.11,20.11,15.02,21.91,15.73,2.6,21.57,16.27,21.57,16.27,0,0-4.04-11.35-10.97-15.92,0,0,9.88,1.7,13.12,12.44,3.24,10.74,3.76,11.61,7.74,16.84,3.98,5.23,2.51,11.26,8.86,16.35,6.35,5.1,5.51,4.6,5.1,14.24,0,0,4.81-8.38-2.43-17.14Z" style="fill:#9c9a99; stroke-width:0px;"/><path d="M494,501.23c11.99.58,22.83-4.16,33.96-7.46,18.31-5.44,35.92-13.26,55.06-15.81,14.06-1.88,28.04-2.54,42.09.41,12.95,2.72,23.19,8.94,30.33,20.33,5.5,8.78,10.34,17.83,13.76,27.62.27.46.55.93.82,1.39.23.87.46,1.74.69,2.61-2.38,2.11-1.9,3.44,1.11,4.08.05.86.11,1.72.16,2.58-1.7,2.06-3.3,4.33-1.72,7,2.94,4.98,2.97,11.19,1.01,15.23-5.03,10.37,1.49,19.99.04,29.91-.81,5.56,3.23,10.27,3.21,15.76,2.16,3.58,1.9,7.69,1.8,11.51-.25,9.55,2.99,17.65,8.9,24.9,5.72,7.02,8.64,14.04,7.24,24.04-1.76,12.5.44,25.4,4.27,37.71-.07,6.54-.05,13.18-.12,19.6-.1,8.53-4.62,7.53-9.19,8.06-3.91.46-7.93.2-11.89,0-3.44-.17-8.23.29-9.2-3.38-1.22-4.63.37-11.7,3.87-13.11,9.49-3.83,8.17-10.76,7.75-17.98-.9-28.19-13.03-51.84-31.41-72.1-10.45-11.52-17.09-23.66-17.21-39.21-1.26-4.69-5.06-2.86-7.63-2.45-8.23,1.32-16.51,3.08-23.89,7.03-8.45,4.52-15.18,4.96-23.74-1.38-12.06-8.93-18.58-20.62-15.65-35.17.34-1.7,1.39-3.6-.58-4.74-1.97-1.15-3.19.71-4.48,1.83-8.16,7.14-11.06,17.09-12.24,27.01-1.45,12.14-6.66,21.4-15.98,28.69-2.35,1.84-3.27,4-3.25,6.79-1.29,1.28-2.18,2.8-2.45,4.6-3.27,21.83-6.94,43.62-5.22,65.85-.15,8.97,1.57,18.11-2.47,26.75-.41.88-.12,2.21.14,3.25,1.17,4.74.16,9.19-1.66,13.54-2.33,5.56-3.39,11.39-3.77,17.36-1.29,20.41-2.37,21.15-25.78,21.08-1.53,0-3.05-.7-4.58-.67-4.55.08-4.92-2.68-4.47-6.15.73-5.57,3.61-9.96,7.84-13.37,5.28-4.26,8.02-9.8,9.27-16.28,2.81-14.62,2.35-29.42,2.34-44.19,1.27-18.83-.5-37.29-6.28-55.34-2.23-6.97-6.4-11.32-13.68-12.54.59-2.11-.11-4.06-1.34-5.58-7.15-8.89-10.81-19.39-14.54-29.95-1.21-3.43-1.85-7.5-5.07-10.47-1.53,1.83-1.37,3.37-1.08,4.82,3.03,15.7,9.44,30.43,13.15,45.94.5,2.08,1.99,2.02,3.53,2.11-.28,20.85,3.77,41.49,3.18,62.36-.42,10.15-.77,20.29,1.02,30.38.49,2.79.36,5.49-.64,8.4-2.77,8.07-1.05,17.4-6.82,24.73-.51.65-.05,2.16.12,3.24.81,5.26-1.94,7.78-6.67,8.85-9.43,2.12-18.87,1.37-28.36.42-5.95-.59-4.73-3.47-2.25-6.44,3.86-4.64,8.88-8.05,14.22-10.66,5.22-2.55,7.84-6.5,9.62-11.82,5.29-15.8.61-30.87-2.75-46.07-3.06-18.22-6.31-36.41-12.29-53.95-3.21-9.44-7.95-18.03-14.23-25.88-12.96-16.17-25.09-32.92-34.18-51.68-5.5-11.34-8.23-23.16-7.19-35.8.15-1.78.05-3.52,1.45-4.87,6.27,4.86,7.67,13.18,13.19,18.57,0,1.76-.02,3.52,0,5.28.26,13.32,6.71,18.58,19.77,16.2,2.4-.44,4.72-.04,7.14.49,7.68,1.69,14.98-3.03,15.37-10.26.21-3.97,1.17-7.78,1.48-11.69,4.08-4.97,6.55-10.89,9.44-16.51,3.92-7.64,3.53-8.06-4.13-11.38.37-14.84.22-14.5-8.91-18.54-5.69-2.51-7.31.38-8.19,4.76-1.62,8.11,1.21,11.59,11.8,15.15,0,2.81-2.25,4.16-3.91,5.84-2.39,2.44-4.2,5.08-4.06,8.68-3.15.33-4.45-1.19-5.65-4.13-3.78-9.3-5.49-18.73-5.1-28.85.54-13.93.08-13.75,13.7-10.06,8.91,2.42,18.7,3.45,17.35,16.47.28-.2.6-.37.83-.63.13-.14.1-.42.14-.64,1.47-.02,3.03.22,3.98-1.34,5.28,8.28,10.56,16.56,16.85,26.45-.08-7.53-2.88-13.14.4-18.47,6.63.17,13.26.33,19.9.5.64.96,1.58,1.01,2.59.86Z" style="fill:#281d1b; stroke-width:0px;"/><path d="M375.96,491.78c-6.48,8.57-10.07,18.87-16.75,28.38-1.73-7.28-2.93-13.83-2.96-20.53-.03-6.84.07-13.65-1.49-20.4-.81-3.52-.89-6.93,3.23-9.04,7.82-4.01,15.13-9,23.32-12.31-1.44,6.87-1.6,13.82-1.39,20.8,0,0,.02-.03.02-.03-1.93,4.19-3.31,8.56-3.97,13.13Z" style="fill:#3e3232; stroke-width:0px;"/><path d="M379.91,489.28c1.47-6.83,6.4-9.47,12.69-10.17,4.64-.52,8.98-2.05,13.31-3.58,4.23-1.5,5.72.18,5.87,4.18.48,13.19.4,26.28-5.41,38.62-1.35,2.88-2.98,2.72-5.21,1.48-2.14-4.73-6.65-7.62-9.29-11.96,2.86-1.63,5.82-3.09,8.54-4.92,4.92-3.32,6.3-9.3,3.64-14.42-.98-1.89-2.08-3.27-4.54-2.92-11.84,1.66-14.36,5.42-11.37,17.17.32,1.27.71,2.52,1.07,3.79-2.97.7-5.88,1.77-9.02,1.32-1.7-5.17.08-10.98-2.9-15.93.87-.88,1.75-1.76,2.62-2.64Z" style="fill:#281e1e; stroke-width:0px;"/><path d="M391.86,507.83c2.64,4.34,7.15,7.23,9.29,11.96-2.65,4.42-5.31,8.85-7.96,13.27-5.52-5.39-6.92-13.71-13.19-18.57.06-2.21.12-4.43.18-6.64,3.14.44,6.05-.62,9.02-1.32.89.44,1.77.87,2.66,1.31Z" style="fill:#2c2120; stroke-width:0px;"/><path d="M447.55,457.54c4.09,11.09,2.17,23.35,6.71,34.35-.95,1.56-2.51,1.33-3.98,1.34.49-13.95-1.63-26.79-14.87-34.9,3.83-3.56,7.8-4.98,12.14-.8Z" style="fill:#130d0d; stroke-width:0px;"/><path d="M379.91,478.68c-.21-6.98-.05-13.93,1.39-20.8,4.63-3.7,9.1-3.93,13.33.65-8.08,4.4-12.96,11.14-14.72,20.16Z" style="fill:#130d0d; stroke-width:0px;"/><path d="M379.91,489.28c-.87.88-1.75,1.76-2.62,2.64-.44-.05-.88-.09-1.32-.14.66-4.58,2.04-8.94,3.97-13.13,0,3.54-.01,7.09-.02,10.63Z" style="fill:#130d0d; stroke-width:0px;"/><path d="M494,501.23c-1.01.15-1.95.1-2.59-.86,1.07-.35,1.91.02,2.59.86Z" style="fill:#413635; stroke-width:0px;"/><path d="M739.66,527.69c-.27-.46-.55-.93-.82-1.39.27.46.55.93.82,1.39Z" style="fill:#1e1818; stroke-width:0px;"/><path d="M615.61,686.92c6.99-22.16.03-40.47-15.37-56.6-4.82-5.04-6.53-11.89-9.18-18.12-7-16.45-7.05-16.84-23.75-10.15-14.67,5.88-29.87,8.8-45.43,10.46-.03-2.79.9-4.95,3.25-6.79,9.33-7.29,14.54-16.56,15.98-28.69,1.18-9.92,4.08-19.87,12.24-27.01,1.29-1.13,2.5-2.98,4.48-1.83,1.97,1.14.92,3.03.58,4.74-2.93,14.55,3.59,26.24,15.65,35.17,8.56,6.34,15.29,5.9,23.74,1.38,7.38-3.95,15.66-5.71,23.89-7.03,2.57-.41,6.37-2.24,7.63,2.45-1.28.51-1.32,1.68-1.28,2.74.3,7.76-.63,15.23-3.72,22.5-1.38,3.25-.55,6.9,1.1,10.21,3.9,7.85,7.76,15.72,11.53,23.63,1.31,2.74,3.31,5.62,2.15,8.71-4.26,11.4-2.43,24.03-7.29,35.28-3.43,5.26-5.73,10.84-5.14,17.3.14,1.53.39,3.08-1.4,4.01-7.11,3.66-14.18,7.3-22.62,4.48-3.18-1.06-7.21-1.75-6.96-5.77.26-4.29,1.62-8.78,6.54-10.57,1.03-.37,2.18-.87,3.2-.74,7.53,1,9.48-3.69,10.17-9.75Z" style="fill:#1c1515; stroke-width:0px;"/><path d="M471.13,616.4c-3.63.85-4.76,3.65-5.36,6.87-1.54-.09-3.03-.04-3.53-2.11-3.71-15.5-10.11-30.24-13.15-45.94-.28-1.45-.45-2.99,1.08-4.82,3.22,2.97,3.86,7.04,5.07,10.47,3.73,10.56,7.39,21.06,14.54,29.95,1.23,1.52,1.93,3.47,1.34,5.58Z" style="fill:#130d0d; stroke-width:0px;"/><path d="M436.96,533.07c-2.65-4-5.3-8-7.96-12.01-.14-3.59,1.66-6.24,4.06-8.68,1.65-1.68,3.9-3.03,3.91-5.84,1.93.17,3.66-.43,5.3-1.37,7.66,3.33,8.06,3.74,4.13,11.38-2.89,5.62-5.36,11.55-9.44,16.51Z" style="fill:#2c2120; stroke-width:0px;"/><path d="M442.27,505.18c-1.64.94-3.37,1.54-5.3,1.37-10.59-3.56-13.42-7.04-11.8-15.15.87-4.38,2.5-7.28,8.19-4.76,9.13,4.04,9.28,3.7,8.91,18.54ZM433.31,489.93c-1.96.87-5.14.46-5.07,3.25.08,3.08,2.71,4.08,5.62,4.02,2.15-.04,4.13-.7,4.2-3.08.09-3.04-2.42-3.67-4.75-4.19Z" style="fill:#3c3131; stroke-width:0px;"/><path d="M391.86,507.83c-.89-.44-1.77-.87-2.66-1.31-.36-1.26-.75-2.52-1.07-3.79-2.99-11.75-.48-15.51,11.37-17.17,2.47-.35,3.56,1.03,4.54,2.92,2.66,5.12,1.28,11.1-3.64,14.42-2.72,1.83-5.69,3.29-8.54,4.92ZM403.68,494.01c-.15-2.7-2.34-3.6-4.4-4.16-2.37-.64-4.04,1.21-4.22,3.11-.24,2.5,1.87,3.83,4.24,4.14,2.22.28,3.85-.63,4.38-3.09Z" style="fill:#3c3131; stroke-width:0px;"/><path d="M433.31,489.93c2.33.52,4.84,1.15,4.75,4.19-.07,2.39-2.05,3.04-4.2,3.08-2.91.06-5.54-.95-5.62-4.02-.07-2.79,3.11-2.38,5.07-3.25Z" style="fill:#130d0d; stroke-width:0px;"/><path d="M408.59,536.06c4.33-2.27,8.66-1.86,12.99-.45-4.27,2.35-8.65,1.15-12.99.45Z" style="fill:#413635; stroke-width:0px;"/><path d="M403.68,494.01c-.53,2.46-2.16,3.38-4.38,3.09-2.37-.3-4.47-1.63-4.24-4.14.18-1.9,1.85-3.75,4.22-3.11,2.06.56,4.25,1.45,4.4,4.16Z" style="fill:#130d0d; stroke-width:0px;"/><path d="M390.29,562.26c-1.97,0-3.18-.12-3.48-.15-2.18-.23-3.76-2.18-3.53-4.37.23-2.17,2.15-3.72,4.36-3.54,1.93.2,46.41,3.87,74.81-54.65.96-1.98,3.33-2.8,5.31-1.84,1.98.96,2.8,3.33,1.84,5.31-26.64,54.9-67.18,59.24-79.31,59.24Z" style="fill:url(#Degradado_sin_nombre_72-2); stroke-width:0px;"/><path d="M436.96,533.07c-.31,3.92-1.26,7.72-1.48,11.69-.39,7.23-7.68,11.95-15.37,10.26-2.42-.53-4.74-.93-7.14-.49-13.07,2.38-19.52-2.88-19.77-16.2-.03-1.76,0-3.52,0-5.28,2.65-4.42,5.31-8.85,7.96-13.27,2.23,1.25,3.86,1.4,5.21-1.48,5.81-12.34,5.89-25.42,5.41-38.62-.15-4-1.64-5.68-5.87-4.18-4.33,1.53-8.66,3.06-13.31,3.58-6.29.7-11.22,3.34-12.69,10.17,0-3.54.01-7.09.02-10.63l-.02.03c1.76-9.02,6.64-15.76,14.72-20.16,13.58-2.34,27.18-1.94,40.78-.18,13.24,8.1,15.35,20.94,14.87,34.9-.04.22,0,.5-.14.64-.23.25-.55.42-.83.63,1.34-13.02-8.44-14.05-17.35-16.47-13.62-3.7-13.16-3.87-13.7,10.06-.39,10.12,1.31,19.55,5.1,28.85,1.2,2.94,2.5,4.47,5.65,4.13,2.65,4,5.3,8,7.96,12.01ZM419.4,543c4.33-.69,9.03-.85,7.84-5.68-1-4.07-4.28-7.14-9.37-5.98-2.41.55-4.72.35-7.14-.09-4.69-.84-6.83,2.74-7.93,6.13-1.18,3.6,1.53,4.99,4.93,5.07,1.85.04,3.42.93.99,2.31-2.76,1.58-.92,2.59.19,3.13,3.92,1.9,8.13,1.9,12.03.15,3.99-1.8.38-2.96-1.53-5.03Z" style="fill:#3e3232; stroke-width:0px;"/><path d="M471.52,499.87c-3.28,5.33-.48,10.94-.4,18.47-6.3-9.88-11.58-18.17-16.85-26.45-4.54-11-2.62-23.26-6.71-34.35,9.49,3.62,17.93,9.23,26.7,14.19,1.29.73,3.07,1.73,2.08,3.55-4.19,7.72-2,16.64-4.82,24.58Z" style="fill:#413635; stroke-width:0px;"/><path d="M419.4,543c1.91,2.06,5.52,3.23,1.53,5.03-3.89,1.75-8.11,1.75-12.03-.15-1.11-.54-2.95-1.55-.19-3.13,2.43-1.39.86-2.27-.99-2.31-3.4-.08-6.11-1.47-4.93-5.07,1.11-3.39,3.24-6.97,7.93-6.13,2.42.43,4.72.64,7.14.09,5.09-1.16,8.37,1.92,9.37,5.98,1.19,4.83-3.51,5-7.84,5.68ZM408.59,536.06c4.35.7,8.72,1.9,12.99-.45-4.33-1.41-8.66-1.82-12.99.45Z" style="fill:#281d1b; stroke-width:0px;"/></g></svg>