<svg id="Layer_2" xmlns="http://www.w3.org/2000/svg" viewBox="0 0 365.58 358.21"><g id="Capa_1"><circle cx="182.62" cy="68.44" r="68.44" style="fill:#e24339; stroke-width:0px;"/><circle cx="182.62" cy="289.76" r="68.44" style="fill:#e24339; stroke-width:0px;"/><circle cx="297.14" cy="181.15" r="68.44" style="fill:#e24339; stroke-width:0px;"/><circle cx="68.44" cy="181.15" r="68.44" style="fill:#e24339; stroke-width:0px;"/><path d="M145.31,110.45c-1.8-.5-3.15-1.47-3.47-3.45-.28-1.73.32-3.12,1.76-4.1.69-.47,1.48-.81,2.23-1.19,3.28-1.65,6.55-3.34,9.86-4.94,4.24-2.05,8.42-1.86,12.48.55,1.59.94,3.15,1.94,4.74,2.9,1.46.88,2.99.96,4.52.21,2.47-1.21,4.91-2.47,7.39-3.66,4.23-2.03,8.42-1.9,12.52.39,1.71.96,3.41,1.94,5.09,2.95,1.67,1,3.31,1.03,5.01.06,3.22-1.82,6.46-3.61,9.72-5.38,2.39-1.3,5.03-.44,6.02,1.92.75,1.77.18,3.83-1.44,4.92-.97.65-2.02,1.19-3.04,1.76-2.52,1.4-5.03,2.83-7.58,4.19-4.17,2.22-8.35,2.17-12.48-.11-1.84-1.01-3.63-2.11-5.45-3.14-1.53-.87-3.11-.91-4.69-.14-2.74,1.33-5.42,2.8-8.22,4-3.96,1.69-7.87,1.35-11.59-.84-1.6-.94-3.16-1.94-4.73-2.91-1.52-.94-3.07-1-4.66-.21-3.53,1.76-7.05,3.54-10.59,5.3-.68.34-1.38.62-2.07.93h-1.31Z" style="fill:#b6d3db; stroke-width:0px;"/><path d="M181.65,34.98c4.01,3.29,7.97,6.54,11.94,9.79,4.36,3.58,8.7,7.18,13.1,10.72.99.8,2.17,1.37,3.43,2.16,0,3.11,0,6.51-.02,9.92,0,.21-.2.5-.4.61-1.3.75-2.58,1.53-3.94,2.14-.48.22-1.26.16-1.75-.09-1.53-.77-3.01-1.65-4.47-2.55-2.31-1.43-4.77-2.37-7.62-2.57v-.88c0-3.24,0-6.49,0-9.73,0-1.56-.43-1.98-2-1.98-4.91,0-9.81,0-14.72,0-1.47,0-1.91.43-1.91,1.89,0,4.74,0,9.49,0,14.23,0,.29,0,.58,0,1.03-1.31-.8-2.48-1.52-3.65-2.24-1.59-.97-3.28-1.7-5.13-2.04-3.46-.65-6.77-.29-9.94,1.28-.46.23-.91.45-1.46.72v-10.11c1.61-.14,2.76-1.16,3.94-2.14,7.94-6.53,15.89-13.04,23.83-19.56.23-.19.47-.37.77-.6Z" style="fill:#b6d3db; stroke-width:0px;"/><path d="M161.21,81.63c2.65,0,4.85.6,6.88,1.85,1.6.98,3.2,1.97,4.8,2.96,1.47.9,2.99.94,4.52.21,2.77-1.33,5.47-2.84,8.29-4.04,3.92-1.67,7.82-1.36,11.55.72,1.78.99,3.54,2.03,5.3,3.07,1.57.93,3.13.95,4.72.06,3.28-1.83,6.57-3.66,9.87-5.46,2.36-1.28,4.96-.46,5.98,1.85.79,1.79.22,3.88-1.4,5-.47.32-.98.59-1.48.87-3.05,1.69-6.08,3.42-9.15,5.06-4.16,2.23-8.35,2.17-12.48-.11-1.81-1-3.58-2.07-5.38-3.11-1.58-.91-3.2-.95-4.84-.14-2.73,1.35-5.42,2.81-8.22,4-3.97,1.68-7.88,1.29-11.59-.92-1.57-.93-3.11-1.91-4.66-2.87-1.52-.94-3.07-1-4.66-.21-3.72,1.87-7.45,3.74-11.17,5.61-1.67.84-3.3.87-4.82-.34-2.17-1.73-2.02-5.04.28-6.58.32-.21.65-.39.99-.57,3.65-1.83,7.3-3.65,10.95-5.5,1.88-.95,3.85-1.48,5.7-1.43Z" style="fill:#b6d3db; stroke-width:0px;"/><path d="M205.85,81.59c-3.22-.02-5.34-.59-7.31-1.76-1.76-1.04-3.53-2.06-5.3-3.08-1.56-.9-3.17-.93-4.77-.16-2.52,1.22-5.01,2.53-7.54,3.73-4.15,1.96-8.24,1.75-12.2-.55-1.63-.94-3.2-1.97-4.8-2.95-1.52-.94-3.09-.98-4.67-.19-3.73,1.86-7.45,3.74-11.17,5.61-1.71.86-3.35.86-4.87-.43-2.02-1.71-1.83-5.01.39-6.5.38-.26.8-.47,1.21-.67,3.65-1.83,7.28-3.7,10.96-5.48,4.16-2.01,8.27-1.79,12.26.53,1.6.93,3.15,1.95,4.74,2.91,1.54.93,3.13,1.01,4.75.21,2.47-1.22,4.91-2.47,7.39-3.66,4.16-2,8.28-1.81,12.3.39,1.82.99,3.58,2.07,5.38,3.11,1.54.89,3.09.92,4.66.05,3.29-1.82,6.57-3.65,9.87-5.46,2.11-1.15,4.22-.71,5.52,1.08,1.32,1.84.92,4.44-.93,5.73-.78.54-1.64.97-2.47,1.43-2.74,1.52-5.48,3.03-8.22,4.56-1.9,1.06-3.94,1.54-5.17,1.55Z" style="fill:#b6d3db; stroke-width:0px;"/><path d="M181.62,26.44c.83.39,1.62.6,2.2,1.07,9.61,7.84,19.19,15.71,28.78,23.58.96.79,1.25,1.68.89,2.58-.39.98-1.73,1.79-2.9,1.53-.81-.18-1.67-.56-2.31-1.08-8.64-7.04-17.26-14.12-25.86-21.21-.58-.48-.92-.55-1.55-.03-8.64,7.13-17.31,14.23-25.97,21.34-.91.75-1.87,1.19-3.08.95-1-.21-1.79-.69-2.1-1.71-.31-1.04.22-1.78.98-2.4,5.14-4.22,10.28-8.44,15.43-12.66,4.38-3.6,8.75-7.21,13.17-10.77.64-.52,1.5-.78,2.31-1.2Z" style="fill:#b6d3db; stroke-width:0px;"/><path d="M189.1,65.09c-4.86.5-8.64,3.55-13.01,5.26v-15.01h13.01v9.75Z" style="fill:#b6d3db; stroke-width:0px;"/><path d="M171.22,31.56c-6.1,5.01-12.04,9.88-18.08,14.84-.04-.32-.08-.51-.08-.71,0-3.68-.01-7.36,0-11.04,0-2.02,1.07-3.12,3.06-3.13,4.83-.02,9.65,0,14.48,0,.13,0,.26.02.63.05Z" style="fill:#b6d3db; stroke-width:0px;"/><path d="M192.06,31.55c.47-.02.73-.05,1-.05,4.55,0,9.1,0,13.66,0,2.44,0,3.41.98,3.41,3.43,0,3.49,0,6.98,0,10.47v.98c-6.07-4.98-11.99-9.84-18.06-14.82Z" style="fill:#b6d3db; stroke-width:0px;"/><path d="M86.13,219.04H22.44v-77.53c.42.11.82.21,1.22.33,1.69.48,3.39.92,5.06,1.44.8.25,1.56.63,2.34.97,2.68,1.16,5.36,2.32,8.05,3.48.08.04.16.07.29.13-.11.57-.23,1.14-.34,1.71-.25,1.23-.49,2.46-.74,3.69-.46,2.26-.91,4.52-1.38,6.78-.04.22.06.3.21.39,1.79,1.09,3.59,2.18,5.38,3.28,2.32,1.42,4.65,2.84,6.97,4.26.11.07.2.2.25.33,1.06,3.2,2.11,6.39,3.15,9.59.1.32.31.52.56.71,3.7,2.79,7.4,5.58,11.12,8.35.44.33.62.66.63,1.22.06,4.35.17,8.7.26,13.04.02.85.03.83.88.94,2.41.31,4.83.64,7.24.97,1.87.25,3.75.5,5.62.77.13.02.31.14.36.26.85,1.88,1.68,3.78,2.52,5.66,1.33,2.98,2.65,5.97,3.98,8.95.03.08.06.16.09.25ZM36.8,191.34l-.06-.04s-.09.1-.13.15c-1.35,1.71-2.69,3.43-4.05,5.13-.24.3-.33.59-.32.97.12,4.16.22,8.32.34,12.47,0,.28-.07.47-.29.65-2.48,2.08-4.95,4.17-7.42,6.25-.22.19-.43.38-.71.63,6.54-.08,12.97-.16,19.41-.25,0-.03,0-.05,0-.08-2.65-1.16-5.3-2.32-7.99-3.49,1.36-.95,2.65-1.86,3.98-2.79-.19-.45-.38-.88-.56-1.3-1.57-3.82-3.13-7.65-4.7-11.47-.1-.24-.09-.44,0-.66.55-1.34,1.09-2.68,1.63-4.01.29-.72.58-1.43.87-2.15ZM43.39,173.97c0,.17-.02.3-.02.43-.11,1.56-.22,3.13-.32,4.69-.15,2.23-.29,4.46-.44,6.69-.01.22.01.37.18.53,1.32,1.23,2.64,2.48,3.95,3.72.15.14.31.28.47.42.02-.08,0-.12-.01-.16-.83-1.7-1.65-3.4-2.48-5.09-.07-.15-.14-.26-.01-.45,1.52-2.25,3.02-4.5,4.52-6.76.08-.12.12-.29.09-.43-.49-2.59-1.01-5.17-1.48-7.76-.09-.53-.35-.79-.78-1.03-2.71-1.55-5.4-3.13-8.1-4.7-.55-.32-1.11-.64-1.63-.94,2.12,2.18,4.26,4.38,6.4,6.59-2.03,1.59-4.12,3.22-6.2,4.85l.04.07c1.93-.22,3.86-.44,5.82-.66ZM62.69,189.34s-.06-.02-.09-.02c-.27.51-.54,1.03-.82,1.54-.51.94-1.02,1.86-1.52,2.8-.75,1.41-1.49,2.83-2.25,4.24-.11.21-.11.37-.02.59.81,1.93,1.6,3.86,2.4,5.79.73,1.77,1.47,3.53,2.19,5.3.13.32.28.39.59.27.27-.1.55-.17.83-.25,3.31-.98,6.62-1.97,9.94-2.95.51-.15,1.02-.31,1.52-.46v-.07c-3.87-.78-7.74-1.55-11.61-2.33-.38-4.84-.77-9.65-1.15-14.45ZM28.67,184.19s.03,0,.04-.01c0-.09,0-.17-.02-.26-.32-2.03-.64-4.06-.97-6.09-.34-2.11-.68-4.21-1.01-6.32-.07-.46-.12-.88.16-1.34.67-1.1,1.26-2.25,1.88-3.38.1-.19.17-.34.03-.57-1.46-2.22-2.9-4.45-4.35-6.67-.16-.25-.33-.5-.49-.75-.04.08-.04.13-.02.19.62,2.42,1.24,4.84,1.85,7.26.03.13.03.29,0,.41-.45,1.48-.9,2.95-1.35,4.43-.03.11-.04.25,0,.35.51,1.55,1.03,3.1,1.55,4.64.61,1.8,1.22,3.6,1.82,5.4.3.9.6,1.8.91,2.7ZM37.05,148.38c-.09-.06-.15-.1-.22-.14-1.82-.98-3.63-1.97-5.45-2.94-.33-.18-.67-.36-1.03-.43-1.26-.23-2.52-.41-3.78-.6-.43-.07-.87-.13-1.3-.19.03.07.07.09.11.11,1.57.55,3.14,1.1,4.72,1.64.27.09.41.22.5.5.56,1.72,1.15,3.43,1.72,5.15.19.56.38,1.12.59,1.73,1.41-1.64,2.77-3.22,4.15-4.83Z" style="fill:#b6d3db; stroke-width:0px;"/><path d="M115.83,214.81c0,.82,0,1.63,0,2.44,0,1.08-.71,1.8-1.79,1.81-.53,0-1.07,0-1.6,0-1.04,0-1.78-.76-1.78-1.8,0-.81,0-1.62,0-2.48h-16.38c0,.13-.02.25-.02.36,0,.7,0,1.4,0,2.1,0,1.1-.71,1.81-1.82,1.81-.53,0-1.07,0-1.6,0-.99-.02-1.69-.73-1.7-1.72-.01-.83,0-1.67,0-2.54-.11-.02-.22-.04-.32-.06-1.39-.18-2.41-1.29-2.43-2.69-.02-.99-.03-1.98,0-2.97.08-2.04,1.05-3.54,2.87-4.47.21-.11.28-.23.3-.45.14-1.71.28-3.41.46-5.12.15-1.41,1.42-2.55,2.88-2.58,1-.03,2,0,3,0,5.36,0,10.73,0,16.09,0,1.23,0,2.38.77,2.79,1.92.17.47.23.99.27,1.5.14,1.42.25,2.84.36,4.26.02.25.11.37.34.5,1.82.96,2.79,2.46,2.83,4.52.02.97,0,1.94-.02,2.9-.02,1.21-.73,2.19-1.87,2.58-.26.09-.54.12-.86.18ZM92.07,204.07h20.79c0-.09,0-.15,0-.2-.12-1.36-.25-2.72-.36-4.09-.05-.64-.21-.8-.84-.8-4.4,0-8.81,0-13.21,0-1.76,0-3.51,0-5.27,0-.42,0-.66.22-.7.63-.07.74-.13,1.48-.2,2.23-.07.74-.13,1.48-.2,2.24ZM112.41,211.41c1.04.01,1.94-.88,1.97-1.95.02-1.07-.87-2-1.94-2.01-1.07,0-1.96.86-1.99,1.93-.02,1.09.87,2.02,1.96,2.03ZM94.49,209.39c0-1.09-.9-1.96-1.99-1.95-1.06.01-1.93.91-1.92,1.99.01,1.09.9,1.98,1.98,1.97,1.08-.01,1.94-.91,1.94-2.01Z" style="fill:#b6d3db; stroke-width:0px;"/><path d="M74.45,197.37c-1.33-1.73-2.64-3.45-3.94-5.16-.69-.9-1.37-1.8-2.07-2.7-.15-.19-.2-.35-.14-.6.71-2.77,1.4-5.53,2.09-8.3.06-.25.18-.4.41-.51,1.61-.73,3.21-1.47,4.81-2.21.21-.1.4-.12.63-.02,1.89.77,3.79,1.54,5.68,2.3.62.25,1.24.49,1.86.73.18.07.26.17.29.38.27,2.05.55,4.1.82,6.15.18,1.32.35,2.64.53,3.97.02.17-.03.25-.19.33-2.36,1.23-4.72,2.47-7.09,3.71-1.23.64-2.46,1.28-3.72,1.94Z" style="fill:#b6d3db; stroke-width:0px;"/><path d="M62.05,161.9c.95,0,1.89,0,2.84,0,.24,0,.33.08.39.3.58,2.2,1.17,4.4,1.76,6.6.18.68.37,1.35.53,2.03.03.11-.02.29-.1.36-1.97,1.71-3.95,3.41-5.93,5.12-.17.15-.28.13-.46.04-1.23-.64-2.47-1.27-3.71-1.89-.46-.23-.93-.43-1.38-.67-.1-.05-.2-.21-.19-.32.09-2.11.17-4.22.32-6.33.03-.41.34-.81.55-1.19.69-1.26,1.4-2.5,2.09-3.76.09-.17.21-.23.39-.22.97,0,1.93,0,2.9,0v-.07Z" style="fill:#b6d3db; stroke-width:0px;"/><path d="M54.6,160.69c-3.65.43-7.27.86-10.92,1.29-.12-.67-.23-1.32-.34-1.97-.35-2.09-.71-4.18-1.06-6.28-.04-.2-.02-.37.12-.55,1.31-1.57,2.6-3.15,3.9-4.73.04-.05.08-.1.13-.16,1.01.55,1.99,1.09,2.98,1.63,1.46.8,2.92,1.6,4.39,2.39.21.12.29.25.31.49.16,2.57.33,5.15.5,7.72,0,.04,0,.09,0,.17Z" style="fill:#b6d3db; stroke-width:0px;"/><path d="M160.52,251.52c-.16,1.67-.4,3.33-.44,5-.01.49.51.99.79,1.48.32-.46.92-.92.92-1.39.12-10.29,8.99-17.86,16.6-19.56,8.93-1.99,16.48.44,22.83,7.29-1.44.73-2.79,1.33-4.03,2.11-.47.29-.69,1-1.02,1.52.65,0,1.42.23,1.92-.04,8.8-4.87,18.88-2.8,24.4,5.25,3.97,5.78,4.43,12.05,1.35,18.33-3.15,6.42-8.54,10.07-15.67,10.15-17.88.2-35.77.2-53.65,0-6.49-.07-11.24-3.59-13.75-9.58-2.51-6-1.52-11.71,2.86-16.52,4.32-4.75,9.77-6.21,16-4.5.22.06.44.13.66.23.1.04.17.15.24.22ZM207.99,247.85c-.23.16-.77.52-1.31.88.56.34,1.1.92,1.69.97,3.68.33,6.75,1.82,9.35,4.44.38.38,1.12.39,1.7.58-.13-.6-.08-1.36-.43-1.76-2.78-3.13-6.35-4.7-10.99-5.11ZM223.41,262.83c-.55-2-.96-3.74-1.56-5.42-.14-.41-.9-.59-1.37-.88-.09.51-.33,1.04-.24,1.51.29,1.59.65,3.17,1.09,4.72.16.57.59,1.07.9,1.61.39-.51.79-1.02,1.18-1.54Z" style="fill:#b6d3db; stroke-width:0px;"/><path d="M173.46,318.01c1.41-3.65,2.81-7.31,4.22-10.96,1.44-3.73,2.9-7.45,4.34-11.19.66-1.72.41-2.08-1.41-2.09-3.42-.02-6.84,0-10.62,0,1.63-3.41,3.12-6.57,4.67-9.7.13-.26.65-.46.99-.46,5.5-.03,11-.02,16.92-.02-1.63,2.39-3.11,4.49-4.5,6.65-.4.62-.53,1.42-.79,2.14.7.16,1.4.45,2.11.47,2.08.06,4.16.02,6.71.02-7.62,8.64-14.98,16.98-22.33,25.32-.1-.06-.2-.12-.3-.17Z" style="fill:#b6d3db; stroke-width:0px;"/><path d="M221.33,308.14c0,1.22.09,2.44-.04,3.65-.05.48-.61.91-.94,1.36-.31-.42-.87-.83-.88-1.25-.08-2.55-.09-5.1,0-7.65.01-.4.61-.79.94-1.18.31.42.84.81.88,1.25.12,1.26.04,2.55.04,3.82Z" style="fill:#b6d3db; stroke-width:0px;"/><path d="M160.15,324.66c0-1.16-.09-2.33.04-3.47.06-.51.56-.97.87-1.45.33.45.94.88.96,1.34.09,2.49.08,4.98,0,7.47-.01.43-.56.85-.86,1.27-.33-.45-.9-.87-.96-1.34-.14-1.26-.05-2.54-.05-3.82Z" style="fill:#b6d3db; stroke-width:0px;"/><path d="M162.06,291.51c0,1.27.07,2.55-.04,3.82-.03.4-.53.75-.81,1.13-.35-.37-.99-.73-1-1.12-.09-2.6-.09-5.21,0-7.82.01-.39.64-.76.98-1.14.29.38.8.73.83,1.13.11,1.32.04,2.66.04,3.99Z" style="fill:#b6d3db; stroke-width:0px;"/><path d="M160.15,307.96c0-1.22-.08-2.44.04-3.65.05-.44.58-.84.89-1.25.32.4.92.79.93,1.2.08,2.55.08,5.1,0,7.65-.01.42-.57.83-.88,1.25-.33-.46-.88-.89-.93-1.37-.13-1.26-.04-2.55-.04-3.82Z" style="fill:#b6d3db; stroke-width:0px;"/><path d="M153.71,316.54c0,1.28.06,2.56-.04,3.82-.03.39-.52.75-.8,1.12-.34-.37-.95-.74-.96-1.13-.09-2.61-.09-5.22-.02-7.82.01-.39.52-.76.8-1.14.34.38.94.74.98,1.15.13,1.32.05,2.66.04,3.99Z" style="fill:#b6d3db; stroke-width:0px;"/><path d="M151.85,333.14c0-1.27-.08-2.55.04-3.81.04-.44.56-.83.87-1.24.32.4.9.78.92,1.19.08,2.54.08,5.08,0,7.62-.01.42-.56.82-.86,1.24-.32-.39-.88-.77-.92-1.19-.12-1.26-.04-2.54-.05-3.81Z" style="fill:#b6d3db; stroke-width:0px;"/><path d="M221.33,291.41c0,1.27.08,2.56-.04,3.82-.04.44-.57.83-.88,1.24-.32-.4-.92-.78-.93-1.19-.09-2.54-.09-5.1-.01-7.64.01-.42.58-.82.9-1.23.32.4.88.77.92,1.19.12,1.26.04,2.54.04,3.82Z" style="fill:#b6d3db; stroke-width:0px;"/><path d="M153.71,300c0,1.22.08,2.44-.05,3.65-.04.42-.61.78-.94,1.17-.29-.37-.81-.73-.83-1.11-.08-2.61-.09-5.22-.01-7.82.01-.4.61-.78.94-1.18.29.43.8.84.84,1.29.11,1.32.04,2.66.04,4h0Z" style="fill:#b6d3db; stroke-width:0px;"/><path d="M221.33,324.98c0,1.16.09,2.33-.04,3.47-.06.49-.6.93-.93,1.39-.31-.41-.88-.82-.9-1.24-.08-2.55-.08-5.1,0-7.64.01-.41.6-.8.92-1.2.31.41.86.8.9,1.24.12,1.32.04,2.66.04,3.99h0Z" style="fill:#b6d3db; stroke-width:0px;"/><path d="M212.98,299.87c0,1.22.08,2.44-.04,3.64-.04.45-.54.87-.83,1.3-.33-.39-.92-.77-.93-1.17-.09-2.6-.08-5.21-.01-7.81.01-.38.53-.74.82-1.11.33.39.91.75.95,1.16.12,1.32.05,2.66.05,3.99Z" style="fill:#b6d3db; stroke-width:0px;"/><path d="M204.63,291.52c0,1.27.08,2.55-.05,3.81-.04.41-.61.76-.94,1.14-.28-.37-.78-.74-.79-1.13-.07-2.6-.07-5.2,0-7.8.01-.39.51-.76.78-1.15.34.38.93.73.96,1.14.12,1.32.05,2.65.04,3.98Z" style="fill:#b6d3db; stroke-width:0px;"/><path d="M145.39,308.25c0,1.21.08,2.44-.04,3.64-.04.44-.55.84-.85,1.26-.32-.39-.9-.78-.91-1.18-.08-2.6-.08-5.2,0-7.8.01-.37.54-.73.83-1.09.33.4.89.77.93,1.19.12,1.32.04,2.66.05,3.99Z" style="fill:#b6d3db; stroke-width:0px;"/><path d="M193.52,316.25c0-1.22-.08-2.44.04-3.64.04-.43.59-.8.9-1.2.3.42.84.82.85,1.25.08,2.54.08,5.09,0,7.64-.01.41-.58.8-.89,1.2-.3-.42-.82-.81-.86-1.25-.11-1.32-.04-2.66-.04-3.99Z" style="fill:#b6d3db; stroke-width:0px;"/><path d="M212.98,316.54c0,1.27.08,2.56-.05,3.82-.04.41-.63.76-.97,1.14-.28-.38-.78-.75-.8-1.13-.07-2.6-.08-5.21,0-7.81.01-.38.52-.75.8-1.13.34.37.93.72.97,1.13.12,1.32.05,2.66.05,3.99Z" style="fill:#b6d3db; stroke-width:0px;"/><path d="M145.39,324.73c0,1.21.08,2.43-.04,3.63-.05.5-.55.96-.84,1.44-.33-.44-.92-.88-.93-1.33-.09-2.48-.08-4.97,0-7.45.01-.43.54-.85.82-1.27.33.45.89.87.94,1.35.14,1.2.05,2.42.05,3.63Z" style="fill:#b6d3db; stroke-width:0px;"/><path d="M204.63,324.86c0,1.27.08,2.55-.05,3.82-.04.41-.62.77-.95,1.15-.27-.38-.77-.75-.78-1.13-.07-2.6-.08-5.21,0-7.81.01-.39.62-.76.95-1.13.28.37.77.73.8,1.12.1,1.32.04,2.66.04,3.99,0,0,0,0,0,0Z" style="fill:#b6d3db; stroke-width:0px;"/><path d="M193.51,333.17c0-1.21-.08-2.43.04-3.63.05-.5.55-.95.84-1.43.32.44.91.87.92,1.32.09,2.48.08,4.97,0,7.45-.01.43-.53.85-.82,1.28-.33-.45-.88-.87-.94-1.35-.14-1.2-.04-2.42-.05-3.63Z" style="fill:#b6d3db; stroke-width:0px;"/><path d="M212.97,333.18c0,1.27.08,2.55-.05,3.81-.04.41-.61.77-.94,1.16-.28-.37-.8-.73-.81-1.11-.08-2.6-.09-5.2,0-7.79.01-.39.62-.76.95-1.14.29.42.78.83.82,1.27.11,1.26.04,2.54.04,3.81,0,0,0,0,0,0Z" style="fill:#b6d3db; stroke-width:0px;"/><path d="M143.54,291.37c0-1.27-.06-2.55.04-3.81.03-.4.5-.77.76-1.16.35.37.99.74,1,1.12.09,2.6.09,5.2,0,7.8-.01.39-.62.76-.95,1.13-.28-.37-.78-.71-.81-1.1-.1-1.32-.04-2.66-.04-3.99,0,0,0,0,0,0Z" style="fill:#b6d3db; stroke-width:0px;"/><path d="M204.64,308.14c0,1.21.09,2.44-.04,3.64-.05.48-.6.91-.92,1.37-.29-.42-.81-.84-.83-1.26-.08-2.54-.08-5.09,0-7.63.01-.4.59-.79.91-1.19.29.42.8.82.84,1.26.12,1.26.04,2.54.04,3.81Z" style="fill:#b6d3db; stroke-width:0px;"/><path d="M183.34,324.74c0-1.22-.09-2.44.04-3.64.05-.48.61-.9.93-1.35.29.42.81.84.82,1.27.08,2.49.09,4.98,0,7.46-.02.46-.59.91-.91,1.36-.29-.48-.79-.94-.84-1.45-.12-1.2-.04-2.43-.04-3.64Z" style="fill:#b6d3db; stroke-width:0px;"/><path d="M294.26,170.51c0,10.96,0,21.92-.02,32.89,0,.83.2,1.43.81,2.04,5.35,5.35,6.86,13.42,3.86,20.3-3.07,7.03-10.06,11.55-17.67,11.09-7.77-.47-13.45-4.37-16.32-11.6-2.89-7.27-1.39-13.97,3.97-19.72.62-.66.84-1.29.84-2.15-.02-21.64-.02-43.27,0-64.91,0-9.65,10.25-15.57,18.53-10.66,3.91,2.32,5.97,5.89,5.99,10.46.05,10.76.02,21.51.02,32.27ZM290.05,172c0-11.17.02-22.34,0-33.51-.01-5.9-5.76-9.82-11.12-7.62-3.12,1.28-4.98,4.21-4.98,7.89,0,22.18,0,44.35.02,66.53,0,1-.32,1.62-1.07,2.26-3.73,3.2-5.46,7.29-5,12.2.61,6.54,5.48,11.68,11.91,12.71,6.21,1,12.49-2.39,15.1-8.14,2.7-5.94,1.09-12.83-4.01-16.95-.66-.53-.85-1.07-.85-1.86.02-11.17.01-22.34.01-33.51Z" style="fill:#b6d3db; stroke-width:0px;"/><path d="M299.99,148.08c4.47-1.29,11.14,1.46,14.56,6,3.96,5.26,4.29,12.34.82,17.85-3.32,5.28-9.76,8.33-15.38,7.22v-31.07Z" style="fill:#b6d3db; stroke-width:0px;"/><path d="M340.81,218.55c-1.05-.22-2.04-.42-3.03-.64-3.72-.84-7.2-.3-10.5,1.64-2.65,1.56-5.4,2.86-8.45,3.47-5.14,1.02-10.87-1.65-13.07-6.18,1.34.32,2.63.68,3.94.94,4.01.81,7.69-.21,11.18-2.15,2.69-1.49,5.48-2.71,8.57-3.14,4.71-.65,9.73,1.97,11.36,6.06Z" style="fill:#b6d3db; stroke-width:0px;"/><path d="M333.73,208.02c-1.29-.22-2.4-.42-3.53-.59-2.92-.45-5.59.24-8.08,1.78-2.42,1.48-4.93,2.74-7.78,3.18-4.61.71-7.81-1.52-10.65-5.14,1.22.27,2.19.5,3.17.7,3.28.65,6.3-.1,9.23-1.62,2.06-1.07,4.15-2.16,6.36-2.83,4.61-1.41,8.81.33,11.28,4.54Z" style="fill:#b6d3db; stroke-width:0px;"/><path d="M322.15,173.03c.23.09.71.21,1.12.45,2.13,1.21,4.26,2.43,6.37,3.68,1.38.81,1.78,1.94,1.15,3.04-.65,1.14-1.87,1.37-3.3.56-2.17-1.23-4.32-2.48-6.48-3.74-.95-.55-1.42-1.38-1.12-2.47.27-.96.97-1.48,2.25-1.52Z" style="fill:#b6d3db; stroke-width:0px;"/><path d="M313.82,145.79c-1.89-.05-2.92-1.63-2.18-3.01,1.33-2.49,2.76-4.92,4.22-7.33.59-.98,1.76-1.19,2.7-.67.98.54,1.44,1.72.88,2.74-1.35,2.47-2.76,4.92-4.24,7.31-.32.52-1.07.76-1.37.96Z" style="fill:#b6d3db; stroke-width:0px;"/><path d="M321.68,154.44c-.58-.54-1.33-.99-1.71-1.66-.47-.82-.16-1.78.64-2.27,2.51-1.53,5.05-3.01,7.64-4.41.92-.5,2.02,0,2.53.87.51.89.38,2.09-.51,2.63-2.51,1.53-5.08,2.97-7.63,4.43-.2.12-.47.11-.71.16-.08.08-.16.16-.25.23Z" style="fill:#b6d3db; stroke-width:0px;"/><path d="M319.9,190.83c-.55.58-1.02,1.31-1.68,1.69-.84.48-1.79.13-2.27-.65-1.52-2.47-2.98-4.98-4.37-7.53-.53-.96-.06-2.07.88-2.64.85-.51,2.08-.37,2.63.53,1.53,2.51,2.96,5.09,4.42,7.64.12.2.11.47.17.71.08.08.15.16.23.24Z" style="fill:#b6d3db; stroke-width:0px;"/><path d="M304.06,136.49c0,1.31.02,2.61,0,3.92-.03,1.4-.8,2.23-2.05,2.25-1.23.01-2.09-.84-2.1-2.2-.03-2.65-.03-5.31,0-7.97.01-1.26.88-2.12,2.05-2.13,1.16-.02,2.05.83,2.09,2.09.04,1.35,0,2.7,0,4.04,0,0,0,0,0,0Z" style="fill:#b6d3db; stroke-width:0px;"/><path d="M329.07,165.7c-1.31,0-2.61.02-3.92,0-1.37-.03-2.23-.86-2.23-2.09,0-1.23.85-2.05,2.23-2.07,2.61-.03,5.23-.03,7.84,0,1.37.01,2.24.86,2.24,2.07,0,1.22-.87,2.05-2.24,2.09-1.31.03-2.61,0-3.92,0Z" style="fill:#b6d3db; stroke-width:0px;"/><path d="M299.9,190.76c0-1.35-.02-2.7,0-4.05.03-1.27.87-2.16,2-2.19,1.22-.03,2.13.84,2.14,2.17.03,2.66.03,5.31,0,7.97-.01,1.3-.96,2.23-2.13,2.21-1.13-.02-1.99-.92-2.02-2.18-.03-1.31,0-2.62,0-3.92h0Z" style="fill:#b6d3db; stroke-width:0px;"/><path d="M286.28,177.27c0,10.02.01,20.05-.02,30.07,0,1.05.27,1.66,1.2,2.24,4.19,2.6,5.93,7.44,4.47,12.04-1.43,4.49-5.65,7.37-10.54,7.2-4.53-.16-8.49-3.52-9.57-8.13-1.01-4.28.94-8.93,4.81-11.17.88-.51,1.14-1.06,1.14-2.03-.02-19.6-.02-39.2-.02-58.79,0-.86-.02-1.72.04-2.58.14-2.11,1.88-3.78,4.02-3.91,2.02-.12,3.97,1.38,4.35,3.4.11.6.13,1.22.13,1.83,0,9.94,0,19.88,0,29.83Z" style="fill:#b6d3db; stroke-width:0px;"/></g></svg>