<?xml version="1.0" encoding="UTF-8"?><svg id="Layer_2" xmlns="http://www.w3.org/2000/svg" viewBox="0 0 97 97"><g id="Capa_1"><circle cx="48.5" cy="48.5" r="48.5" style="fill:#e24339; stroke-width:0px;"/><path d="M75.11,69.7c1.52,3.12,1.19,5.06-1.31,7.85.76,1.38,1.11,2.85.75,4.45-.58,2.61-2.87,4.59-5.54,4.6-8.88.03-17.77.04-26.65-.02-1.08,0-2.16-.44-3.39-.71-.48.7-1.37.76-2.34.76-3.95-.02-7.9,0-11.86-.01-1.71,0-2.42-.71-2.42-2.44,0-10.14,0-20.28,0-30.41,0-1.78.69-2.47,2.47-2.47,3.95,0,7.9,0,11.86,0,2.07,0,2.67.61,2.68,2.67,0,.24,0,.49,0,.95,1.82-1.52,4.12-2.13,5.24-4.31.76-1.47,2.04-2.75,2.48-4.29.44-1.54.12-3.3.12-4.96,0-1.61,0-3.22,0-4.82,0-1.49.79-2.29,2.28-2.23,1.06.05,2.13.14,3.15.38,4.01.96,6.23,3.94,6.32,8.42.05,2.4.02,4.8.02,7.19,0,.3,0,.59,0,1h.91c3.68,0,7.36.02,11.04,0,2.55-.02,4.53.94,5.7,3.23,1.15,2.25.83,4.43-.7,6.43-.03.04-.04.1-.06.15,2.13,3.48,1.94,5.56-.78,8.61ZM51.15,38.42v.81c0,2.32-.03,4.63.01,6.95.02.89-.21,1.64-.69,2.38-1,1.56-2.07,3.09-2.88,4.74-.56,1.14-1.39,1.82-2.39,2.45-1.75,1.11-3.46,2.27-5.21,3.38-.46.29-.65.61-.64,1.17.02,6.21.01,12.43.01,18.64,0,2.49,1.28,3.76,3.78,3.76,8.37,0,16.73,0,25.1,0,.22,0,.44,0,.65,0,1.09-.09,1.89-.95,1.86-2-.02-1.02-.82-1.84-1.87-1.91-.43-.03-.87,0-1.31-.01-1.2-.04-2.06-.88-2.04-1.99.02-1.08.86-1.89,2.02-1.93.79-.02,1.58,0,2.37,0,1.27-.02,2.15-.84,2.14-1.98-.01-1.14-.89-1.92-2.17-1.94-.74,0-1.47,0-2.21,0-1.28-.02-2.15-.83-2.15-1.97,0-1.14.88-1.94,2.16-1.95,1.17-.01,2.34,0,3.52,0,1.28-.01,2.16-.82,2.16-1.96,0-1.14-.87-1.95-2.15-1.96-1.14-.01-2.29,0-3.43,0-1.36,0-2.24-.78-2.25-1.95-.01-1.17.88-1.97,2.22-1.98,1.23,0,2.45.02,3.68-.01.95-.02,1.68-.64,1.89-1.52.19-.79-.16-1.72-.92-2.09-.42-.2-.94-.29-1.41-.29-4.41-.02-8.83-.01-13.24-.01-2.08,0-2.69-.6-2.7-2.66,0-2.73.01-5.45,0-8.17,0-.79-.05-1.58-.15-2.36-.27-2.11-1.56-3.34-3.77-3.61ZM35.41,55.28h-9.06v27.37h9.06v-27.37Z" style="fill:#b6d3db; stroke-width:0px;"/><path d="M40.06,28.08c.34-1.97.65-3.98,1.04-5.99.15-.79.07-1.35-.58-1.92-1.4-1.25-2.7-2.61-4.06-3.91-.63-.61-1.02-1.28-.74-2.18.28-.92.96-1.32,1.88-1.45,2.02-.28,4.04-.61,6.06-.87.51-.07.75-.29.96-.72.87-1.81,1.78-3.61,2.66-5.42.4-.83.99-1.39,1.94-1.38.91.01,1.48.55,1.87,1.35.89,1.84,1.78,3.67,2.72,5.48.15.29.56.58.88.64,2.06.35,4.14.65,6.21.95.86.12,1.46.55,1.73,1.39.28.86-.05,1.54-.66,2.13-1.43,1.39-2.83,2.8-4.29,4.15-.49.45-.58.89-.47,1.5.36,1.98.68,3.97,1.04,5.95.16.85-.1,1.51-.76,2.01-.67.5-1.39.54-2.15.14-1.85-.98-3.71-1.94-5.56-2.94-.43-.23-.77-.24-1.2,0-1.84,1-3.69,1.97-5.56,2.92-1.47.75-3.05-.22-2.97-1.83ZM49.19,10.64c-.59,1.17-1.14,2.17-1.58,3.21-.45,1.05-1.21,1.53-2.32,1.64-1.11.11-2.21.32-3.25.48.76.82,1.42,1.66,2.22,2.36.99.86,1.23,1.84.94,3.07-.24,1.02-.36,2.06-.56,3.24,1.21-.63,2.28-1.16,3.31-1.75.84-.48,1.63-.47,2.47,0,1.04.58,2.1,1.11,3.3,1.74-.19-1.14-.28-2.14-.53-3.1-.36-1.37-.04-2.42,1.06-3.33.77-.65,1.42-1.45,2.17-2.23-1.13-.17-2.2-.38-3.28-.47-1.19-.1-1.96-.64-2.43-1.74-.42-1-.95-1.95-1.53-3.12Z" style="fill:#b6d3db; stroke-width:0px;"/><path d="M84.02,25.32c0,.6.09,1.22-.02,1.79-.3,1.54.29,2.52,1.61,3.31,1.28.77,2.41,1.78,3.62,2.66.75.55,1.29,1.2,1.1,2.19-.19.97-.88,1.42-1.8,1.66-1.89.5-3.77,1.07-5.66,1.58-.52.14-.81.38-.99.91-.62,1.91-1.31,3.81-1.93,5.72-.28.86-.79,1.43-1.7,1.55-.91.13-1.55-.3-2.05-1.05-1.1-1.69-2.24-3.35-3.33-5.04-.3-.47-.64-.63-1.19-.63-2.01,0-4.03-.08-6.04-.1-.9,0-1.6-.31-2-1.14-.4-.84-.15-1.57.41-2.27,1.26-1.57,2.49-3.17,3.76-4.73.32-.4.41-.74.24-1.25-.63-1.91-1.18-3.84-1.79-5.76-.28-.88-.24-1.68.47-2.33.68-.62,1.45-.62,2.28-.3,1.88.72,3.78,1.37,5.65,2.11.54.21.89.12,1.32-.19,1.59-1.15,3.21-2.25,4.8-3.4.74-.53,1.5-.8,2.35-.36.9.46,1.1,1.26,1.05,2.21-.04.95,0,1.9,0,2.86-.06,0-.12,0-.18,0ZM71.12,27.06c.22.74.39,1.3.56,1.87,1.01,3.37,1.21,2.7-1.03,5.55-.37.47-.75.95-1.26,1.6,1.41,0,2.55.03,3.69,0,1.03-.04,1.76.36,2.31,1.24.62,1.01,1.31,1.98,2.04,3.06.42-1.21.84-2.27,1.15-3.37.31-1.1.97-1.68,2.07-1.93,1.09-.24,2.16-.61,3.38-.96-.97-.73-1.75-1.41-2.62-1.95-1.2-.75-1.57-1.75-1.41-3.12.11-.97.02-1.97.02-3.05-1.01.71-1.98,1.36-2.91,2.06-.8.6-1.62.68-2.53.32-1.08-.43-2.19-.82-3.45-1.3Z" style="fill:#b6d3db; stroke-width:0px;"/><path d="M16.2,19.94c.43.21.89.37,1.28.64,1.68,1.15,3.33,2.36,5.03,3.5.28.19.77.25,1.08.15,1.93-.67,3.84-1.38,5.74-2.11.87-.33,1.66-.32,2.35.34.66.64.69,1.43.42,2.27-.61,1.94-1.23,3.89-1.78,5.85-.09.32,0,.82.21,1.08,1.23,1.63,2.5,3.23,3.79,4.82.56.7.79,1.42.4,2.26-.39.83-1.07,1.15-1.98,1.15-1.99,0-3.98.09-5.96.09-.61,0-.98.17-1.32.7-1.05,1.66-2.17,3.26-3.24,4.91-.5.77-1.13,1.25-2.09,1.12-.95-.13-1.44-.74-1.72-1.63-.62-1.91-1.3-3.81-1.93-5.72-.15-.46-.39-.7-.87-.83-1.97-.52-3.93-1.1-5.89-1.63-.9-.24-1.52-.76-1.66-1.69-.14-.88.29-1.5.98-2.01,1.62-1.2,3.22-2.43,4.84-3.61.42-.31.58-.62.56-1.15-.11-2.12-.19-4.24-.23-6.37-.03-1.21.83-2.04,2.03-2.13ZM18.38,26c0,1.2-.06,2.32.02,3.43.07,1.08-.26,1.89-1.16,2.52-.95.66-1.85,1.38-2.9,2.17,1.28.36,2.39.71,3.52.98,1,.24,1.6.81,1.9,1.8.34,1.13.76,2.23,1.18,3.46.75-1.12,1.43-2.1,2.07-3.11.51-.81,1.2-1.21,2.17-1.18,1.18.03,2.37,0,3.79,0-.85-1.09-1.52-2.01-2.26-2.86-.75-.85-.9-1.73-.5-2.79.39-1.05.67-2.15,1.03-3.35-1.2.44-2.27.77-3.29,1.21-1.07.46-1.98.32-2.88-.4-.85-.67-1.77-1.25-2.69-1.9Z" style="fill:#b6d3db; stroke-width:0px;"/><path d="M32.82,79.55c.02,1.07-.87,1.98-1.94,1.99-1.07,0-1.97-.89-1.97-1.97,0-1.04.86-1.92,1.9-1.95,1.07-.03,1.99.85,2.01,1.92Z" style="fill:#b6d3db; stroke-width:0px;"/></g></svg>