<?xml version="1.0" encoding="UTF-8"?><svg id="Layer_2" xmlns="http://www.w3.org/2000/svg" viewBox="0 0 97 97"><g id="Capa_1"><circle cx="48.5" cy="48.5" r="48.5" style="fill:#e24339; stroke-width:0px;"/><path d="M46.27,92.66c-.64-.12-1.29-.23-1.92-.37-6.65-1.48-11.84-7.12-12.82-13.9-.75-5.23.58-9.81,4.13-13.75.26-.29.38-.8.38-1.2.02-13.11.02-26.23.02-39.34,0-2.5.48-4.88,1.81-7.03,1.88-3.04,4.65-4.73,8.13-5.33.2-.03.4-.1.59-.16.9,0,1.79,0,2.69,0,.79.18,1.6.31,2.38.54,4.77,1.43,7.96,5.6,8.23,10.69.02.47.03.95.03,1.42,0,13.06,0,26.12,0,39.18,0,.56.16.97.53,1.4,4.32,4.95,5.39,10.63,3.18,16.74-2.26,6.22-6.77,9.96-13.42,10.96-.15.02-.29.09-.44.14h-3.48ZM55.14,44.43h0c0-7.05.05-14.09-.02-21.14-.03-2.95-1.51-5.15-4.21-6.35-2.69-1.2-5.27-.82-7.55,1.07-1.83,1.52-2.54,3.53-2.53,5.89.02,13.88.01,27.76,0,41.64,0,.39-.16.91-.44,1.15-3,2.65-4.45,5.93-4.27,9.95.33,7.1,7.13,12.49,14.07,11.04,4.78-1,8.02-3.87,9.29-8.59,1.28-4.77-.13-8.9-3.76-12.25-.4-.37-.58-.72-.58-1.27.02-7.05.01-14.09.01-21.14Z" style="fill:#b6d3db; stroke-width:0px;"/><path d="M71.23,21.58c-2.01,1.5-3.84,2.87-5.75,4.3-.94-1.25-1.87-2.48-2.84-3.77.18-.16.34-.31.52-.45,3.29-2.47,6.58-4.94,9.87-7.41.33-.25.57-.43,1.01-.09,3.36,2.56,6.74,5.08,10.12,7.61.12.09.23.21.38.35-.95,1.26-1.87,2.5-2.83,3.77-1.9-1.42-3.74-2.8-5.72-4.28v40.49h-4.76V21.58Z" style="fill:#b6d3db; stroke-width:0px;"/><path d="M17,23.4v-4.68h14.21v4.68h-14.21Z" style="fill:#b6d3db; stroke-width:0px;"/><path d="M31.23,37.81v4.67h-14.21v-4.67h14.21Z" style="fill:#b6d3db; stroke-width:0px;"/><path d="M17.01,56.9h14.21v4.66h-14.21v-4.66Z" style="fill:#b6d3db; stroke-width:0px;"/><path d="M31.23,28.27v4.65h-9.45v-4.65h9.45Z" style="fill:#b6d3db; stroke-width:0px;"/><path d="M21.76,52.05v-4.68h9.45v4.68h-9.45Z" style="fill:#b6d3db; stroke-width:0px;"/><path d="M45.61,25.79h4.77c0,.34,0,.65,0,.96,0,9.84,0,31.69-.02,41.53,0,.67.17,1,.8,1.29,2.91,1.38,4.36,4.32,3.83,7.61-.48,3.01-2.85,5.4-5.79,5.82-3.31.48-6.23-1.01-7.61-3.88-1.39-2.9-.79-6.32,1.54-8.41.54-.49,1.18-.9,1.84-1.21.52-.24.65-.53.65-1.07-.01-9.9-.01-31.79-.01-41.69v-.95ZM47.98,73.6c-1.36,0-2.35.98-2.36,2.34-.01,1.3,1.04,2.38,2.34,2.4,1.31.02,2.45-1.11,2.42-2.41-.03-1.33-1.05-2.33-2.39-2.33Z" style="fill:#b6d3db; stroke-width:0px;"/></g></svg>