<?xml version="1.0" encoding="UTF-8"?><svg id="Layer_2" xmlns="http://www.w3.org/2000/svg" viewBox="0 0 97 97"><g id="Capa_1"><circle cx="48.5" cy="48.5" r="48.5" style="fill:#e24339; stroke-width:0px;"/><path d="M55.06,59.43h-12.06v17.93c-.25.17-.46.12-.66.12-5.78,0-11.55,0-17.33,0-1.89,0-3.16-1.28-3.16-3.18,0-7.35,0-14.71,0-22.06,0-.39.07-.69.41-.97,4.92-4.04,9.84-8.09,14.75-12.14,3.93-3.24,7.86-6.49,11.79-9.73.06-.05.12-.09.21-.17,1.04.86,2.08,1.71,3.12,2.56,4.38,3.61,8.76,7.21,13.14,10.82,3.32,2.74,6.64,5.48,9.97,8.22.1.08.19.18.3.25.49.28.63.69.63,1.26-.02,7.3-.02,14.59-.01,21.89,0,1.39-.56,2.41-1.84,3.01-.36.17-.75.23-1.15.23-5.87,0-11.74,0-17.61,0-.15,0-.29-.02-.49-.04v-18.02Z" style="fill:#b6d3db; stroke-width:0px;"/><path d="M49,25.12c-1.6,1.34-3.2,2.67-4.79,4-5.09,4.24-10.19,8.48-15.28,12.73-4.1,3.42-8.2,6.84-12.3,10.26-.94.79-1.78.71-2.56-.24-.84-1.01-1.68-2.01-2.53-3.01-.77-.91-.72-1.76.2-2.54,2.74-2.3,5.5-4.59,8.25-6.88,3.51-2.92,7.03-5.85,10.54-8.77,3.97-3.3,7.94-6.61,11.91-9.91.92-.77,1.88-1.49,2.76-2.31,2.01-1.86,5.52-1.86,7.8.13,3.49,3.06,7.11,5.98,10.67,8.96.1.08.2.15.4.29v-.66c0-2.74,0-5.48,0-8.22,0-1.2.54-1.76,1.75-1.76,2.87-.01,5.74-.01,8.61,0,1.21,0,1.72.56,1.72,1.84,0,6.1,0,12.19,0,18.29,0,.43.13.71.47.99,3.25,2.68,6.49,5.38,9.73,8.07.79.65.89,1.52.25,2.31-.9,1.1-1.81,2.2-2.73,3.28-.69.81-1.61.88-2.43.2-4.17-3.48-8.33-6.96-12.5-10.44-4.86-4.06-9.73-8.11-14.6-12.16-1.77-1.47-3.53-2.95-5.33-4.45Z" style="fill:#b6d3db; stroke-width:0px;"/></g></svg>