<?xml version="1.0" encoding="UTF-8"?><svg id="Layer_2" xmlns="http://www.w3.org/2000/svg" viewBox="0 0 170.34 187.35"><g id="Capa_1"><path d="M79.53,187.35c-2.02-.25-4.04-.44-6.05-.74-13.67-2.09-25.42-8.04-35.13-17.87-10.21-10.33-16.3-22.76-18.2-37.16-1.74-13.21.63-25.74,6.83-37.55.12-.22.23-.44.36-.68-8.03-4.7-11.59-11.58-9.46-20.72,1.65-7.07,6.59-11.29,13.59-12.69,8.46-1.69,14.94,1.5,19.4,9,4.55-2.66,9.33-4.79,14.39-6.29,5.02-1.49,10.16-2.31,15.59-2.57-.3-.84-.48-1.58-.82-2.24-1.49-2.89-3.77-5.11-6.22-7.17-.25-.21-.71-.25-1.07-.25-13.16-.27-23.36-11.06-22.87-24.23.07-1.76.87-2.7,2.62-2.75,9.32-.25,16.41,3.69,21.27,11.6,2.04,3.32,2.98,7.01,3.11,10.91,0,.3.04.7.22.88,1.32,1.28,2.68,2.51,4.05,3.78.36-1.89.6-3.77,1.09-5.6.48-1.81,1.21-3.55,1.79-5.33.12-.36.18-.81.09-1.17-4.37-17.15,5.65-33.97,22.83-38.26.24-.06.47-.17.7-.26.51,0,1.02,0,1.53,0,1.12.54,1.62,1.5,1.96,2.65,1.16,4,1.54,8.05,1.13,12.19-1.23,12.46-10.47,23.39-22.58,26.61-.88.23-1.33.68-1.63,1.49-1.15,3.07-1.7,6.27-1.96,9.51-.2,2.5-.26,5.01-.38,7.62,14.9.7,27.93,5.81,39.29,15.46.02-.38.04-.59.04-.81,0-2.93-.03-5.86,0-8.79.15-10.84,9.91-18.9,20.57-17.02,8.42,1.49,14.42,8.73,14.42,17.47,0,22.72,0,45.43-.01,68.15,0,.84.24,1.4.88,1.95,4.75,4.09,7.77,9.2,8.96,15.38.18.93.32,1.87.48,2.81v4.59c-.06.28-.15.55-.18.83-.79,6.55-3.41,12.24-8.09,16.91-11,10.98-29.3,10.35-39.79-1.32-.29-.32-.58-.63-.86-.94-.18.12-.26.17-.34.23-8.49,6.21-17.92,10.11-28.32,11.67-1.92.29-3.84.48-5.77.72h-7.46ZM31.29,123.93c-.46.25-.75.37-1,.55-2.12,1.56-3.8,3.49-4.77,5.96-.23.59-.32,1.32-.23,1.94.93,6.35,2.86,12.4,5.83,18.1,12.25,23.49,37.77,35.78,63.74,30.71,1.63-.32,3.24-.76,4.95-1.17-2.74-5.18-2.22-9.92,1.14-14.42-.29-.32-.54-.6-.8-.88-2.58-2.84-4.98-5.8-6.72-9.24-1-1.98-1.72-4.06-1.8-6.29-.12-3.43,1.37-6.18,3.82-8.42,1.81-1.65,3.75-3.15,5.67-4.68,1.41-1.13,2.06-2.52,2.12-4.36.16-4.55.45-9.1.77-13.64.44-6.21,5.33-9.71,11.36-8.18,2.54.64,4.65,2.02,6.52,3.81.95.91,1.95,1.77,3.06,2.76v-29.14c-2.07-.5-4.14-.69-5.9-1.53-1.77-.84-2.86-.58-4.43.48-4.75,3.25-9.91,4.1-15.26,1.47-1.13-.56-2-.63-3.16-.17-2.5,1.01-5.12,1.37-7.75.49-3.37-1.13-5.22-3.74-6.38-6.9-1.59-4.32-1.81-8.83-1.69-13.38.02-.85.08-1.7.12-2.54-4.34-.57-18.89,3.02-21.69,5.32.04.05.07.11.11.15,4.37,3.27,6.57,7.6,6.39,13.08-.02.57.29.63.71.79,2.22.85,4.57,1.5,6.6,2.7,4.13,2.44,6.64,6.01,6.35,11.06-.31,5.45-4.97,9.02-10.27,7.92-1.91-.4-3.58-1.28-5.11-2.48-1.73-1.35-3.45-2.73-5.26-3.97-1.94-1.33-3.52-1.02-5.03.76-1.09,1.28-.97,2.36.41,3.28,1.83,1.22,3.68,2.4,5.53,3.58,4.88,3.13,9.78,6.23,14.12,10.11,1.74,1.56,3.35,3.23,4.49,5.29,2.07,3.75,1.16,7.39-2.6,9.45-1.73.95-3.69,1.54-5.61,2.08-1.71.48-3.51.61-5.25,1-3.28.75-4.8,2.8-4.54,6.16.09,1.1.36,2.2.64,3.27.95,3.67,1.55,7.36.87,11.15-.98,5.47-4.98,8.28-10.45,7.33-3.03-.53-5.61-2.02-7.93-3.98-4.94-4.2-8-9.6-9.89-15.71-1.58-5.1-2.12-10.34-1.81-15.67.07-1.26.01-2.52.01-3.99ZM155.04,101.12c0-4.33,0-8.67,0-13,0-7.36.04-14.72-.01-22.08-.05-7.93-7.32-13.75-15.09-12.14-5.79,1.21-9.91,6.33-9.91,12.4,0,23.48,0,46.96.01,70.44,0,1.22-.4,2.09-1.35,2.87-6.81,5.62-9.62,12.87-8.02,21.51,3.08,16.6,19.72,22.48,32.23,16.36,13.92-6.81,17.55-27.48,3.63-38.12-1.06-.81-1.52-1.73-1.52-3.07.03-11.72.02-23.45.02-35.17ZM24.64,122.67c.39-.34.63-.54.85-.74,1.37-1.22,2.87-2.21,4.67-2.7,2.99-.81,5.34.54,5.93,3.57.27,1.39.3,2.85.22,4.27-.26,4.38-.07,8.72.97,13,1.29,5.29,3.53,10.09,7.39,14.02,1.97,2.01,4.21,3.62,6.99,4.3,2.32.57,4.09-.37,4.55-2.7.35-1.78.43-3.68.22-5.48-.29-2.49-1.1-4.91-1.45-7.39-.6-4.3.44-8.06,4.25-10.62,2.06-1.38,4.44-1.85,6.85-2.21,2.36-.35,4.73-.78,6.8-2.08,1.19-.75,1.43-1.46.7-2.64-.68-1.1-1.5-2.15-2.43-3.04-3.8-3.63-8.22-6.42-12.6-9.28-2.67-1.74-5.37-3.43-8.01-5.21-2.11-1.43-3.19-3.45-2.94-6.04.48-5.04,6.53-9.89,12.15-6.77,2.02,1.12,3.8,2.66,5.72,3.96,1.15.78,2.32,1.57,3.56,2.2,1.25.64,2.55.56,3.67-.38,1.2-1.01,1.65-2.31,1.35-3.85-.35-1.85-1.46-3.23-2.88-4.38-2.5-2.03-5.45-2.96-8.56-3.5-2.17-.38-2.88-1.41-2.51-3.55.9-5.2-1.22-9.4-5.93-11.77-.56-.28-1-.32-1.58.05-10.44,6.56-18.21,15.44-23.16,26.74-3.06,7-4.63,14.33-4.8,22.21ZM118.56,170.6c-.57-1.31-1.14-2.48-1.6-3.7-3.96-10.57-1.01-22.57,7.35-30.16.35-.32.68-.87.69-1.32.05-4.14.04-8.28,0-12.42,0-.35-.3-.79-.6-1.02-1.16-.89-2.38-1.7-3.55-2.58-1.88-1.42-3.6-3.08-5.61-4.26-3.12-1.83-5.9-.23-6.26,3.36-.02.16-.02.32-.03.48-.26,4.55-.58,9.09-.76,13.64-.11,2.69-1.14,4.86-3.1,6.63-.69.62-1.42,1.18-2.13,1.77-1.54,1.28-3.15,2.48-4.59,3.87-1.35,1.3-1.97,3.04-1.6,4.89.28,1.41.76,2.84,1.43,4.11,1.93,3.64,4.76,6.59,7.61,9.51,1.45,1.49,1.43,2.65.03,4.23-.69.78-1.35,1.62-1.86,2.52-1.5,2.66-1.15,6,.78,8.13,4.94-1.93,9.53-4.5,13.8-7.69ZM124.41,81.99c-.12-.21-.14-.28-.18-.32-10.61-10.18-23.24-15.72-37.94-16.55-.66-.04-.83.21-.83.81.02,2.39-.08,4.78.04,7.16.13,2.58.57,5.13,1.72,7.49,1.2,2.46,2.94,3.38,5.61,2.77,1.38-.32,2.7-.93,4.01-1.47,1.07-.44,2.03-.43,2.95.32,2.89,2.36,6.09,2.69,9.51,1.35,2.02-.79,3.72-2.07,5.28-3.55,1.23-1.17,1.92-1.26,3.41-.44.64.35,1.26.75,1.89,1.12,1.37.78,2.81,1.29,4.52,1.3ZM106.68,5.58c-12.86,3.5-21.3,17.61-17.87,30.85,12.21-3.13,21.35-16.97,17.87-30.85ZM46.38,71.53c-1.27-3.44-5.97-7.74-12.92-6.91-6.1.73-10.65,5.39-11.15,11.5-.45,5.51,3.13,11.45,7.45,12.66,2.61-3.12,5.01-6.32,7.76-9.17,2.75-2.85,5.86-5.36,8.87-8.07ZM54.96,28.5c.29,9.39,9.15,16.81,16.76,16.73-.23-8.18-7.68-16.34-16.76-16.73Z" style="fill:#32677f; stroke-width:0px;"/><path d="M0,76.47c.59-1.39,1.66-1.83,3.13-1.77,2.13.08,4.26.02,6.39.02,1.88,0,2.9.9,2.88,2.52-.02,1.61-1.04,2.47-2.94,2.47-2.1,0-4.2-.06-6.29.02-1.46.06-2.54-.37-3.16-1.74v-1.53Z" style="fill:#32677f; stroke-width:0px;"/><path d="M60.63,54.57c-.18.31-.38.91-.77,1.32-1.74,1.81-3.51,3.6-5.32,5.34-1.1,1.06-2.61,1.01-3.58-.01-.97-1.03-.94-2.51.13-3.59,1.72-1.75,3.45-3.47,5.19-5.19.78-.77,1.69-1.01,2.7-.53,1.01.47,1.54,1.28,1.63,2.68Z" style="fill:#32677f; stroke-width:0px;"/><path d="M16.94,62.01c-.3-.16-.97-.37-1.42-.8-1.82-1.73-3.59-3.52-5.33-5.32-1.02-1.05-.94-2.46.11-3.48,1.03-1,2.36-1.05,3.41-.04,1.83,1.77,3.62,3.57,5.4,5.39.77.78.89,1.74.44,2.73-.43.95-1.19,1.46-2.6,1.51Z" style="fill:#32677f; stroke-width:0px;"/><path d="M12.27,102.77c-1.33-.06-2.08-.54-2.51-1.45-.43-.91-.43-1.87.26-2.59,1.89-1.97,3.82-3.91,5.8-5.79.91-.86,2.32-.64,3.25.33.9.95,1.04,2.29.18,3.19-1.84,1.93-3.73,3.82-5.66,5.66-.4.39-1.05.52-1.33.65Z" style="fill:#32677f; stroke-width:0px;"/><path d="M32.53,48.27c0-1.18-.01-2.35,0-3.53.02-1.57.97-2.52,2.48-2.53,1.52,0,2.49.93,2.5,2.51.02,2.42.02,4.84,0,7.25-.01,1.61-1.02,2.69-2.47,2.7-1.47,0-2.5-1.13-2.51-2.76-.01-1.21,0-2.42,0-3.63Z" style="fill:#32677f; stroke-width:0px;"/><path d="M140.29,105.82c0-12.11,0-24.21,0-36.32,0-2.05,1.46-3.2,3.3-2.63.99.3,1.54.98,1.67,2,.04.35.02.7.02,1.05,0,24.05,0,48.11-.02,72.16,0,.89.22,1.22,1.12,1.45,6.91,1.77,11.39,8.42,10.53,15.48-.86,7.04-6.99,12.46-14.1,12.46-7.12,0-13.22-5.32-14.12-12.31-.92-7.16,3.48-13.79,10.44-15.62.97-.25,1.2-.63,1.19-1.6-.04-12.04-.03-24.09-.03-36.13ZM133.58,157.17c-.05,5.05,4.03,9.23,9.08,9.3,5.06.07,9.31-4.09,9.35-9.15.03-5.12-4.11-9.26-9.3-9.31-4.95-.04-9.08,4.1-9.13,9.15Z" style="fill:#32677f; stroke-width:0px;"/></g></svg>