<?xml version="1.0" encoding="UTF-8"?><svg id="Layer_2" xmlns="http://www.w3.org/2000/svg" viewBox="0 0 1673.57 176.68"><g id="Capa_1"><line x1="375" y1="78.85" x2="449" y2="78.85" style="fill:none; stroke:#ef9948; stroke-dasharray:0 12; stroke-miterlimit:10; stroke-width:6px;"/><text transform="translate(148.76 95.33)" style="fill:#32677f; font-family:Cunia, Cunia; font-size:38px;"><tspan x="0" y="0">Co</tspan><tspan x="54.04" y="0" style="letter-spacing:0em;">n</tspan><tspan x="81.21" y="0">tacto</tspan></text><rect x="1036.35" y="0" width="637.22" height="176.68" rx="14.17" ry="14.17" style="fill:#d3d4d4; opacity:.89; stroke-width:0px;"/><rect x="445.56" y="20.5" width="531.44" height="135.68" rx="14.17" ry="14.17" style="fill:#d3d4d4; opacity:.89; stroke-width:0px;"/><text transform="translate(1070.16 54.74)" style="font-family:D-DIN, D-DIN; font-size:33px;"><tspan style="fill:#32677f;"><tspan x="0" y="0">Proyecto Salud Urbana en América Latina </tspan></tspan><tspan style="fill:#32677f;"><tspan x="196.1" y="39.6">(SALURBAL): </tspan></tspan><tspan style="fill:#ab454b;"><tspan x="-.91" y="79.2">https://drexel.edu/lac/salurbal/overview/</tspan></tspan></text><path d="M566.3,65.16v-5.91c0-3.01.72-5.22,2.15-6.62s3.36-2.1,5.78-2.1,4.31.7,5.73,2.1c1.42,1.4,2.13,3.6,2.13,6.62v5.91c0,3.01-.72,5.22-2.15,6.62-1.43,1.4-3.34,2.1-5.74,2.1s-4.34-.7-5.76-2.1c-1.42-1.4-2.13-3.6-2.13-6.62ZM579.67,59.35c0-4.42-1.82-6.63-5.45-6.63-1.83,0-3.2.52-4.13,1.57-.92,1.04-1.39,2.73-1.39,5.07v5.94c0,2.22.47,3.84,1.4,4.85.94,1.01,2.31,1.52,4.11,1.52,3.63,0,5.45-2.12,5.45-6.37v-5.94Z" style="fill:#32677f; stroke-width:0px;"/><path d="M586.73,69.22v-18.38h2.24v18.25c0,.86.17,1.49.5,1.88.33.4.87.59,1.62.59h1.35v2.05h-1.58c-1.34,0-2.37-.37-3.07-1.12s-1.06-1.84-1.06-3.27Z" style="fill:#32677f; stroke-width:0px;"/><path d="M595.5,74.43h2.24c.11.73.49,1.31,1.14,1.77.65.45,1.5.68,2.56.68,2.62,0,3.93-1.46,3.93-4.39v-2.34c-.44.79-1.04,1.4-1.8,1.82s-1.67.63-2.72.63c-1.65,0-3-.56-4.06-1.67-1.06-1.11-1.58-2.86-1.58-5.23v-2.31c0-2.35.53-4.08,1.58-5.18,1.06-1.1,2.42-1.65,4.09-1.65,2.05,0,3.54.85,4.49,2.54v-2.34h2.28v15.54c0,2.02-.54,3.62-1.63,4.79s-2.61,1.75-4.57,1.75c-1.76,0-3.16-.4-4.21-1.19-1.04-.79-1.62-1.86-1.73-3.2ZM605.37,65.52v-1.82c0-1.56-.34-2.81-1.02-3.75-.68-.94-1.69-1.4-3.04-1.4-2.55,0-3.83,1.66-3.83,4.98v2.01c0,3.32,1.23,4.98,3.7,4.98,1.39,0,2.43-.46,3.14-1.39.7-.92,1.06-2.13,1.06-3.63Z" style="fill:#32677f; stroke-width:0px;"/><path d="M624.05,62.22v11.39h-2.21v-1.78c-.51.68-1.13,1.18-1.88,1.5-.75.32-1.66.48-2.74.48-1.76,0-3.12-.42-4.09-1.25-.97-.84-1.45-2.06-1.45-3.66,0-1.5.49-2.67,1.47-3.51.98-.85,2.36-1.27,4.14-1.27h4.52v-1.91c0-1.21-.33-2.12-.99-2.74s-1.6-.92-2.81-.92c-1.14,0-2.04.26-2.69.78-.65.52-.97,1.23-.97,2.13v.1h-2.18v-.17c0-1.43.52-2.57,1.55-3.43,1.03-.86,2.45-1.29,4.26-1.29,1.96,0,3.46.47,4.51,1.42,1.04.95,1.57,2.33,1.57,4.16ZM621.81,67.93v-2.18h-4.19c-2.46,0-3.7,1.03-3.7,3.1s1.22,3.14,3.66,3.14c1.47,0,2.55-.34,3.22-1.01.67-.67,1.01-1.69,1.01-3.05Z" style="fill:#32677f; stroke-width:0px;"/><path d="M638.73,50.83v20.59h11.35v2.18h-13.76v-22.77h2.41Z" style="fill:#32677f; stroke-width:0px;"/><path d="M653.62,67.47v-10.59h2.24v10.3c0,1.54.3,2.7.89,3.46.59.77,1.6,1.16,3,1.16s2.41-.37,3-1.12.89-1.91.89-3.5v-10.3h2.24v10.59c0,2.05-.51,3.61-1.53,4.7-1.02,1.09-2.57,1.63-4.64,1.63s-3.55-.54-4.57-1.63c-1.02-1.09-1.53-2.66-1.53-4.7Z" style="fill:#32677f; stroke-width:0px;"/><path d="M670.31,66.94v-3.43c0-2.38.59-4.11,1.77-5.21,1.18-1.1,2.76-1.65,4.74-1.65s3.43.51,4.54,1.52c1.11,1.01,1.67,2.37,1.67,4.06v.17h-2.18v-.17c0-1.12-.35-1.99-1.06-2.61s-1.66-.92-2.87-.92c-1.36,0-2.43.37-3.2,1.11s-1.16,2.02-1.16,3.84v3.17c0,1.85.38,3.14,1.14,3.88.76.74,1.82,1.11,3.19,1.11,1.23,0,2.2-.31,2.9-.92s1.06-1.49,1.06-2.61v-.17h2.18v.13c0,1.69-.56,3.05-1.68,4.06-1.12,1.01-2.62,1.52-4.49,1.52-2,0-3.59-.54-4.77-1.63s-1.77-2.83-1.77-5.23Z" style="fill:#32677f; stroke-width:0px;"/><path d="M693.41,50.6l-3.96,4.12h-2.08l3.27-4.12h2.77ZM689.95,56.87v16.73h-2.24v-16.73h2.24Z" style="fill:#32677f; stroke-width:0px;"/><path d="M706.61,62.22v11.39h-2.21v-1.78c-.51.68-1.13,1.18-1.88,1.5-.75.32-1.66.48-2.74.48-1.76,0-3.12-.42-4.09-1.25-.97-.84-1.45-2.06-1.45-3.66,0-1.5.49-2.67,1.47-3.51.98-.85,2.36-1.27,4.14-1.27h4.52v-1.91c0-1.21-.33-2.12-.99-2.74-.66-.62-1.6-.92-2.81-.92-1.14,0-2.04.26-2.69.78-.65.52-.97,1.23-.97,2.13v.1h-2.18v-.17c0-1.43.52-2.57,1.55-3.43,1.03-.86,2.45-1.29,4.26-1.29,1.96,0,3.46.47,4.51,1.42,1.04.95,1.57,2.33,1.57,4.16ZM704.37,67.93v-2.18h-4.19c-2.46,0-3.7,1.03-3.7,3.1s1.22,3.14,3.66,3.14c1.47,0,2.55-.34,3.22-1.01.67-.67,1.01-1.69,1.01-3.05Z" style="fill:#32677f; stroke-width:0px;"/><path d="M717.34,67.17h2.38c.31,3.01,2.11,4.52,5.41,4.52,1.72,0,3.02-.36,3.91-1.09.89-.73,1.34-1.78,1.34-3.17,0-1.25-.35-2.2-1.06-2.84-.7-.64-1.77-1.08-3.2-1.32l-2.57-.43c-1.85-.31-3.27-.94-4.26-1.9-.99-.96-1.49-2.3-1.49-4.04,0-2,.67-3.56,2.01-4.69s3.11-1.68,5.31-1.68c2.02,0,3.68.52,4.97,1.57,1.29,1.05,2.05,2.63,2.29,4.77h-2.38c-.26-2.84-1.9-4.26-4.92-4.26-1.56,0-2.78.37-3.65,1.11-.87.74-1.3,1.74-1.3,3.02,0,1.12.34,2,1.01,2.62.67.63,1.69,1.06,3.05,1.3l2.64.46c1.91.33,3.38.99,4.39,1.98,1.01.99,1.52,2.39,1.52,4.19,0,2.07-.69,3.67-2.08,4.8-1.39,1.13-3.29,1.7-5.71,1.7-2.29,0-4.08-.56-5.38-1.68s-2.05-2.77-2.24-4.95Z" style="fill:#32677f; stroke-width:0px;"/><path d="M748.19,62.22v11.39h-2.21v-1.78c-.51.68-1.13,1.18-1.88,1.5-.75.32-1.66.48-2.74.48-1.76,0-3.12-.42-4.09-1.25-.97-.84-1.45-2.06-1.45-3.66,0-1.5.49-2.67,1.47-3.51.98-.85,2.36-1.27,4.14-1.27h4.52v-1.91c0-1.21-.33-2.12-.99-2.74-.66-.62-1.6-.92-2.81-.92-1.14,0-2.04.26-2.69.78-.65.52-.97,1.23-.97,2.13v.1h-2.18v-.17c0-1.43.52-2.57,1.55-3.43,1.03-.86,2.45-1.29,4.26-1.29,1.96,0,3.46.47,4.51,1.42,1.04.95,1.57,2.33,1.57,4.16ZM745.95,67.93v-2.18h-4.19c-2.46,0-3.7,1.03-3.7,3.1s1.22,3.14,3.66,3.14c1.47,0,2.55-.34,3.22-1.01.67-.67,1.01-1.69,1.01-3.05Z" style="fill:#32677f; stroke-width:0px;"/><path d="M755.35,56.87v2.24c.46-.84,1.07-1.46,1.83-1.86.76-.41,1.61-.61,2.56-.61.42,0,.83.03,1.22.1v2.24c-.53-.18-1.1-.26-1.72-.26-1.14,0-2.07.4-2.79,1.19-.72.79-1.07,1.83-1.07,3.1v10.59h-2.24v-16.73h2.21Z" style="fill:#32677f; stroke-width:0px;"/><path d="M766.47,56.87v2.05c.48-.73,1.12-1.28,1.9-1.67.78-.39,1.66-.58,2.62-.58,1.14,0,2.12.24,2.94.73.81.48,1.44,1.18,1.88,2.08,1.1-1.87,2.79-2.81,5.08-2.81,1.78,0,3.17.52,4.16,1.57.99,1.04,1.49,2.5,1.49,4.37v10.99h-2.25v-10.66c0-1.39-.33-2.44-1.01-3.17-.67-.73-1.61-1.09-2.82-1.09s-2.19.37-2.89,1.11-1.04,1.75-1.04,3.05v10.76h-2.28v-10.66c0-1.39-.33-2.44-1.01-3.17-.67-.73-1.61-1.09-2.82-1.09s-2.14.37-2.86,1.11c-.71.74-1.07,1.79-1.07,3.15v10.66h-2.24v-16.73h2.21Z" style="fill:#32677f; stroke-width:0px;"/><path d="M794.06,51.16v2.97h-2.38v-2.97h2.38ZM794,56.87v16.73h-2.24v-16.73h2.24Z" style="fill:#32677f; stroke-width:0px;"/><path d="M800.93,66.68c0,1.89.39,3.22,1.16,3.98.77.76,1.84,1.14,3.2,1.14,1.19,0,2.12-.29,2.79-.86.67-.57,1.01-1.36,1.01-2.38v-.1h2.18v.17c0,1.56-.54,2.82-1.63,3.76-1.09.95-2.59,1.42-4.51,1.42s-3.52-.58-4.69-1.75c-1.17-1.17-1.75-2.98-1.75-5.45v-2.9c0-2.4.58-4.17,1.75-5.33s2.71-1.73,4.62-1.73,3.45.58,4.6,1.73c1.16,1.16,1.73,2.93,1.73,5.33v1.98h-10.46v.99ZM800.93,63.64v.36h8.22v-.59c0-1.74-.36-2.96-1.09-3.66-.73-.7-1.73-1.06-3-1.06s-2.26.37-3,1.11-1.12,2.02-1.12,3.84Z" style="fill:#32677f; stroke-width:0px;"/><path d="M818.02,56.87v2.05c.48-.75,1.12-1.31,1.9-1.68.78-.37,1.66-.56,2.62-.56,1.78,0,3.15.52,4.11,1.57.96,1.04,1.44,2.5,1.44,4.37v10.99h-2.24v-10.66c0-1.39-.34-2.44-1.02-3.17-.68-.73-1.63-1.09-2.84-1.09s-2.14.37-2.86,1.11c-.71.74-1.07,1.79-1.07,3.15v10.66h-2.24v-16.73h2.21Z" style="fill:#32677f; stroke-width:0px;"/><path d="M836.56,69.35c0,1.52.71,2.28,2.15,2.28h1.32v1.98h-1.68c-1.28,0-2.27-.37-2.99-1.11-.71-.74-1.07-1.75-1.07-3.05v-10.79h-2.61v-1.78h2.61v-3.83l2.28-1.06v4.88h3.76v1.78h-3.76v10.69Z" style="fill:#32677f; stroke-width:0px;"/><path d="M843.72,66.94v-3.43c0-2.38.58-4.11,1.75-5.21,1.17-1.1,2.73-1.65,4.69-1.65s3.45.55,4.6,1.65c1.16,1.1,1.73,2.84,1.73,5.21v3.43c0,2.38-.58,4.11-1.73,5.21s-2.69,1.65-4.6,1.65-3.52-.54-4.69-1.63-1.75-2.83-1.75-5.23ZM854.25,66.81v-3.17c0-1.83-.37-3.11-1.11-3.84s-1.73-1.11-2.99-1.11-2.32.37-3.07,1.11-1.12,2.02-1.12,3.84v3.17c0,1.85.37,3.14,1.12,3.88s1.77,1.11,3.07,1.11,2.25-.37,2.99-1.11,1.11-2.03,1.11-3.88Z" style="fill:#32677f; stroke-width:0px;"/><path d="M518.53,88.78h1.68c-1.1,2.16-1.93,4.39-2.49,6.7s-.84,4.61-.84,6.9.28,4.63.84,6.95,1.39,4.54,2.49,6.65h-1.72c-2.6-4.31-3.89-8.85-3.89-13.6s1.31-9.33,3.93-13.6Z" style="fill:#ab454b; stroke-width:0px;"/><path d="M524.11,106.54v-3.43c0-2.38.58-4.11,1.75-5.21,1.17-1.1,2.73-1.65,4.69-1.65s3.45.55,4.6,1.65c1.16,1.1,1.73,2.84,1.73,5.21v3.43c0,2.38-.58,4.11-1.73,5.21s-2.69,1.65-4.6,1.65-3.52-.54-4.69-1.63c-1.17-1.09-1.75-2.83-1.75-5.23ZM534.64,106.41v-3.17c0-1.83-.37-3.11-1.11-3.84s-1.73-1.11-2.99-1.11-2.32.37-3.07,1.11c-.75.74-1.12,2.02-1.12,3.84v3.17c0,1.85.37,3.14,1.12,3.88.75.74,1.77,1.11,3.07,1.11s2.25-.37,2.99-1.11,1.11-2.03,1.11-3.88Z" style="fill:#ab454b; stroke-width:0px;"/><path d="M540.38,108.52v-.13h2.18v.1c0,.92.36,1.66,1.07,2.2.71.54,1.68.81,2.89.81s2.24-.25,2.95-.76c.71-.51,1.07-1.23,1.07-2.18,0-.84-.25-1.45-.74-1.85s-1.29-.69-2.39-.89l-2.08-.36c-1.63-.29-2.82-.77-3.56-1.45-.75-.68-1.12-1.67-1.12-2.97,0-1.45.54-2.61,1.62-3.48s2.48-1.3,4.19-1.3c1.85,0,3.32.42,4.42,1.27,1.1.85,1.65,1.95,1.65,3.32v.2h-2.18v-.1c0-.88-.34-1.57-1.02-2.08-.68-.51-1.62-.76-2.81-.76s-2.07.25-2.72.76c-.65.51-.97,1.2-.97,2.08,0,.73.23,1.29.69,1.7.46.41,1.2.7,2.21.88l2.18.4c1.65.31,2.87.81,3.65,1.5.78.69,1.17,1.7,1.17,3.02,0,1.58-.57,2.81-1.72,3.68s-2.67,1.3-4.59,1.3-3.29-.44-4.39-1.32c-1.1-.88-1.65-2.07-1.65-3.56Z" style="fill:#ab454b; stroke-width:0px;"/><path d="M568,101.82v11.39h-2.21v-1.78c-.51.68-1.13,1.18-1.88,1.5-.75.32-1.66.48-2.74.48-1.76,0-3.12-.42-4.09-1.25-.97-.84-1.45-2.06-1.45-3.66,0-1.5.49-2.67,1.47-3.51.98-.85,2.36-1.27,4.14-1.27h4.52v-1.91c0-1.21-.33-2.12-.99-2.74s-1.6-.92-2.81-.92c-1.14,0-2.04.26-2.69.78-.65.52-.97,1.23-.97,2.13v.1h-2.18v-.17c0-1.43.52-2.57,1.55-3.43,1.03-.86,2.45-1.29,4.26-1.29,1.96,0,3.46.47,4.51,1.42,1.04.95,1.57,2.33,1.57,4.16ZM565.76,107.53v-2.18h-4.19c-2.46,0-3.7,1.03-3.7,3.1s1.22,3.14,3.66,3.14c1.47,0,2.55-.34,3.22-1.01.67-.67,1.01-1.69,1.01-3.05Z" style="fill:#ab454b; stroke-width:0px;"/><path d="M575.16,96.47v2.24c.46-.84,1.07-1.46,1.83-1.86.76-.41,1.61-.61,2.56-.61.42,0,.83.03,1.22.1v2.24c-.53-.18-1.1-.26-1.72-.26-1.14,0-2.07.4-2.79,1.19-.72.79-1.07,1.83-1.07,3.1v10.59h-2.24v-16.73h2.21Z" style="fill:#ab454b; stroke-width:0px;"/><path d="M586.28,96.47v2.05c.48-.73,1.12-1.28,1.9-1.67.78-.39,1.66-.58,2.62-.58,1.14,0,2.12.24,2.94.73.81.48,1.44,1.18,1.88,2.08,1.1-1.87,2.79-2.81,5.08-2.81,1.78,0,3.17.52,4.16,1.57.99,1.04,1.48,2.5,1.48,4.37v10.99h-2.24v-10.66c0-1.39-.34-2.44-1.01-3.17-.67-.73-1.61-1.09-2.82-1.09s-2.19.37-2.89,1.11c-.69.74-1.04,1.75-1.04,3.05v10.76h-2.28v-10.66c0-1.39-.34-2.44-1.01-3.17-.67-.73-1.61-1.09-2.82-1.09s-2.14.37-2.85,1.11c-.72.74-1.07,1.79-1.07,3.15v10.66h-2.24v-16.73h2.21Z" style="fill:#ab454b; stroke-width:0px;"/><path d="M613.87,90.76v2.97h-2.38v-2.97h2.38ZM613.8,96.47v16.73h-2.24v-16.73h2.24Z" style="fill:#ab454b; stroke-width:0px;"/><path d="M620.73,106.28c0,1.89.39,3.22,1.16,3.98s1.84,1.14,3.2,1.14c1.19,0,2.12-.29,2.79-.86.67-.57,1.01-1.36,1.01-2.38v-.1h2.18v.17c0,1.56-.54,2.82-1.63,3.76-1.09.95-2.59,1.42-4.5,1.42s-3.52-.58-4.69-1.75c-1.17-1.17-1.75-2.98-1.75-5.45v-2.9c0-2.4.58-4.17,1.75-5.33,1.17-1.16,2.71-1.73,4.62-1.73s3.45.58,4.6,1.73,1.73,2.93,1.73,5.33v1.98h-10.46v.99ZM620.73,103.24v.36h8.22v-.59c0-1.74-.36-2.96-1.09-3.66s-1.73-1.06-3-1.06-2.26.37-3,1.11c-.75.74-1.12,2.02-1.12,3.84Z" style="fill:#ab454b; stroke-width:0px;"/><path d="M637.83,96.47v2.05c.48-.75,1.12-1.31,1.9-1.68s1.66-.56,2.62-.56c1.78,0,3.15.52,4.11,1.57.96,1.04,1.44,2.5,1.44,4.37v10.99h-2.24v-10.66c0-1.39-.34-2.44-1.02-3.17-.68-.73-1.63-1.09-2.84-1.09s-2.14.37-2.85,1.11c-.72.74-1.07,1.79-1.07,3.15v10.66h-2.24v-16.73h2.21Z" style="fill:#ab454b; stroke-width:0px;"/><path d="M653.88,111.47c-1.05-1.88-1.57-4.04-1.57-6.49v-2.25c0-2.42.53-4.56,1.58-6.42s2.52-3.31,4.41-4.34,4.03-1.55,6.45-1.55,4.54.52,6.44,1.55c1.89,1.03,3.37,2.48,4.42,4.34s1.58,3.98,1.58,6.35v2.21c0,2.16-.46,3.77-1.39,4.85-.92,1.08-2.12,1.62-3.6,1.62-.9,0-1.68-.2-2.34-.61s-1.16-.98-1.49-1.73c-.33.77-.85,1.35-1.57,1.75-.71.4-1.6.59-2.66.59-1.69,0-2.94-.52-3.73-1.57s-1.19-2.51-1.19-4.41v-2.64c0-1.91.4-3.39,1.19-4.44.79-1.05,2.01-1.57,3.66-1.57.84,0,1.57.16,2.21.48.64.32,1.13.76,1.48,1.34v-1.49h2.15v9.54c0,.95.21,1.66.64,2.14.43.48.98.73,1.67.73.86,0,1.51-.35,1.95-1.06.44-.7.66-1.87.66-3.5v-2.21c0-2.05-.41-3.83-1.22-5.36-.81-1.53-1.99-2.71-3.52-3.55-1.53-.84-3.32-1.25-5.36-1.25s-3.83.42-5.36,1.25c-1.53.84-2.7,2.02-3.52,3.55s-1.22,3.31-1.22,5.33v2.34c0,2.02.41,3.81,1.22,5.36.81,1.55,1.98,2.76,3.5,3.61s3.31,1.29,5.38,1.29c1.45,0,2.73-.14,3.83-.41,1.1-.28,2.19-.7,3.27-1.27l.79,1.88c-1.19.68-2.4,1.18-3.65,1.49-1.24.31-2.66.46-4.24.46-2.42,0-4.58-.52-6.47-1.57-1.89-1.05-3.36-2.51-4.41-4.39ZM667.69,102.68c0-2.68-1.02-4.03-3.07-4.03s-3.1,1.38-3.1,4.12v2.44c0,1.36.24,2.41.73,3.14.48.73,1.28,1.09,2.38,1.09,2.05,0,3.07-1.35,3.07-4.06v-2.71Z" style="fill:#ab454b; stroke-width:0px;"/><path d="M681.62,107.07v-10.59h2.24v10.3c0,1.54.3,2.7.89,3.46.59.77,1.6,1.16,3,1.16s2.41-.37,3-1.12.89-1.91.89-3.5v-10.3h2.24v10.59c0,2.05-.51,3.61-1.53,4.7-1.02,1.09-2.57,1.63-4.64,1.63s-3.55-.54-4.57-1.63c-1.02-1.09-1.53-2.66-1.53-4.7Z" style="fill:#ab454b; stroke-width:0px;"/><path d="M701.05,96.47v2.05c.48-.75,1.12-1.31,1.9-1.68s1.66-.56,2.62-.56c1.78,0,3.15.52,4.11,1.57.96,1.04,1.44,2.5,1.44,4.37v10.99h-2.24v-10.66c0-1.39-.34-2.44-1.02-3.17-.68-.73-1.63-1.09-2.84-1.09s-2.14.37-2.85,1.11c-.72.74-1.07,1.79-1.07,3.15v10.66h-2.24v-16.73h2.21Z" style="fill:#ab454b; stroke-width:0px;"/><path d="M718.64,90.76v2.97h-2.38v-2.97h2.38ZM718.58,96.47v16.73h-2.24v-16.73h2.24Z" style="fill:#ab454b; stroke-width:0px;"/><path d="M735.24,101.82v11.39h-2.21v-1.78c-.51.68-1.13,1.18-1.88,1.5-.75.32-1.66.48-2.74.48-1.76,0-3.12-.42-4.09-1.25-.97-.84-1.45-2.06-1.45-3.66,0-1.5.49-2.67,1.47-3.51.98-.85,2.36-1.27,4.14-1.27h4.52v-1.91c0-1.21-.33-2.12-.99-2.74s-1.6-.92-2.81-.92c-1.14,0-2.04.26-2.69.78-.65.52-.97,1.23-.97,2.13v.1h-2.18v-.17c0-1.43.52-2.57,1.55-3.43,1.03-.86,2.45-1.29,4.26-1.29,1.96,0,3.46.47,4.51,1.42,1.04.95,1.57,2.33,1.57,4.16ZM733,107.53v-2.18h-4.19c-2.46,0-3.7,1.03-3.7,3.1s1.22,3.14,3.66,3.14c1.47,0,2.55-.34,3.22-1.01.67-.67,1.01-1.69,1.01-3.05Z" style="fill:#ab454b; stroke-width:0px;"/><path d="M742.4,96.47v2.05c.48-.75,1.12-1.31,1.9-1.68s1.66-.56,2.62-.56c1.78,0,3.15.52,4.11,1.57.96,1.04,1.44,2.5,1.44,4.37v10.99h-2.24v-10.66c0-1.39-.34-2.44-1.02-3.17-.68-.73-1.63-1.09-2.84-1.09s-2.14.37-2.85,1.11c-.72.74-1.07,1.79-1.07,3.15v10.66h-2.24v-16.73h2.21Z" style="fill:#ab454b; stroke-width:0px;"/><path d="M756.89,106.54v-3.43c0-2.35.53-4.09,1.58-5.2,1.06-1.11,2.42-1.67,4.09-1.67,2.02,0,3.52.86,4.49,2.58v-8.38h2.28v22.77h-2.28v-2.21c-.44.79-1.04,1.39-1.8,1.8-.76.41-1.67.61-2.72.61-1.65,0-3-.56-4.06-1.67-1.06-1.11-1.58-2.84-1.58-5.2ZM767.05,106.38v-2.94c0-1.56-.34-2.81-1.02-3.75-.68-.93-1.69-1.4-3.04-1.4-2.55,0-3.83,1.65-3.83,4.95v3.17c0,3.32,1.23,4.98,3.7,4.98,1.39,0,2.43-.46,3.13-1.39.7-.92,1.06-2.13,1.06-3.63Z" style="fill:#ab454b; stroke-width:0px;"/><path d="M776,106.28c0,1.89.39,3.22,1.16,3.98.77.76,1.84,1.14,3.2,1.14,1.19,0,2.12-.29,2.79-.86.67-.57,1.01-1.36,1.01-2.38v-.1h2.18v.17c0,1.56-.54,2.82-1.63,3.76-1.09.95-2.59,1.42-4.51,1.42s-3.52-.58-4.69-1.75c-1.17-1.17-1.75-2.98-1.75-5.45v-2.9c0-2.4.58-4.17,1.75-5.33s2.71-1.73,4.62-1.73,3.45.58,4.6,1.73c1.16,1.16,1.73,2.93,1.73,5.33v1.98h-10.46v.99ZM776,103.24v.36h8.22v-.59c0-1.74-.36-2.96-1.09-3.66-.73-.7-1.73-1.06-3-1.06s-2.26.37-3,1.11-1.12,2.02-1.12,3.84Z" style="fill:#ab454b; stroke-width:0px;"/><path d="M789.95,108.52v-.13h2.18v.1c0,.92.36,1.66,1.07,2.2.72.54,1.68.81,2.89.81s2.24-.25,2.95-.76c.71-.51,1.07-1.23,1.07-2.18,0-.84-.25-1.45-.74-1.85-.49-.4-1.29-.69-2.39-.89l-2.08-.36c-1.63-.29-2.82-.77-3.56-1.45-.75-.68-1.12-1.67-1.12-2.97,0-1.45.54-2.61,1.62-3.48s2.48-1.3,4.19-1.3c1.85,0,3.32.42,4.42,1.27,1.1.85,1.65,1.95,1.65,3.32v.2h-2.18v-.1c0-.88-.34-1.57-1.02-2.08-.68-.51-1.62-.76-2.8-.76s-2.07.25-2.72.76c-.65.51-.97,1.2-.97,2.08,0,.73.23,1.29.69,1.7s1.2.7,2.21.88l2.18.4c1.65.31,2.87.81,3.65,1.5s1.17,1.7,1.17,3.02c0,1.58-.57,2.81-1.72,3.68s-2.67,1.3-4.59,1.3-3.29-.44-4.39-1.32c-1.1-.88-1.65-2.07-1.65-3.56Z" style="fill:#ab454b; stroke-width:0px;"/><path d="M808.3,110.17v3.04h-2.9v-3.04h2.9Z" style="fill:#ab454b; stroke-width:0px;"/><path d="M814.24,106.28c0,1.89.39,3.22,1.16,3.98.77.76,1.84,1.14,3.2,1.14,1.19,0,2.12-.29,2.79-.86.67-.57,1.01-1.36,1.01-2.38v-.1h2.18v.17c0,1.56-.54,2.82-1.63,3.76-1.09.95-2.59,1.42-4.51,1.42s-3.52-.58-4.69-1.75c-1.17-1.17-1.75-2.98-1.75-5.45v-2.9c0-2.4.58-4.17,1.75-5.33s2.71-1.73,4.62-1.73,3.45.58,4.6,1.73c1.16,1.16,1.73,2.93,1.73,5.33v1.98h-10.46v.99ZM814.24,103.24v.36h8.22v-.59c0-1.74-.36-2.96-1.09-3.66-.73-.7-1.73-1.06-3-1.06s-2.26.37-3,1.11-1.12,2.02-1.12,3.84Z" style="fill:#ab454b; stroke-width:0px;"/><path d="M828.6,106.54v-3.43c0-2.35.53-4.09,1.58-5.2,1.06-1.11,2.42-1.67,4.09-1.67,2.02,0,3.52.86,4.49,2.58v-8.38h2.28v22.77h-2.28v-2.21c-.44.79-1.04,1.39-1.8,1.8-.76.41-1.67.61-2.72.61-1.65,0-3-.56-4.06-1.67-1.06-1.11-1.58-2.84-1.58-5.2ZM838.76,106.38v-2.94c0-1.56-.34-2.81-1.02-3.75-.68-.93-1.69-1.4-3.04-1.4-2.55,0-3.83,1.65-3.83,4.95v3.17c0,3.32,1.23,4.98,3.7,4.98,1.39,0,2.43-.46,3.14-1.39.7-.92,1.06-2.13,1.06-3.63Z" style="fill:#ab454b; stroke-width:0px;"/><path d="M845.99,107.07v-10.59h2.24v10.3c0,1.54.3,2.7.89,3.46.59.77,1.6,1.16,3,1.16s2.41-.37,3-1.12c.59-.75.89-1.91.89-3.5v-10.3h2.24v10.59c0,2.05-.51,3.61-1.53,4.7-1.02,1.09-2.57,1.63-4.64,1.63s-3.55-.54-4.57-1.63c-1.02-1.09-1.53-2.66-1.53-4.7Z" style="fill:#ab454b; stroke-width:0px;"/><path d="M865.39,110.17v3.04h-2.9v-3.04h2.9Z" style="fill:#ab454b; stroke-width:0px;"/><path d="M869.09,106.54v-3.43c0-2.38.59-4.11,1.77-5.21,1.18-1.1,2.76-1.65,4.74-1.65s3.43.51,4.54,1.52c1.11,1.01,1.67,2.37,1.67,4.06v.17h-2.18v-.17c0-1.12-.35-1.99-1.06-2.61s-1.66-.92-2.87-.92c-1.36,0-2.43.37-3.2,1.11-.77.74-1.16,2.02-1.16,3.84v3.17c0,1.85.38,3.14,1.14,3.88.76.74,1.82,1.11,3.19,1.11,1.23,0,2.2-.31,2.9-.92s1.06-1.49,1.06-2.61v-.17h2.18v.13c0,1.69-.56,3.05-1.68,4.06-1.12,1.01-2.62,1.52-4.49,1.52-2,0-3.59-.54-4.77-1.63-1.18-1.09-1.77-2.83-1.77-5.23Z" style="fill:#ab454b; stroke-width:0px;"/><path d="M885.68,106.54v-3.43c0-2.38.58-4.11,1.75-5.21,1.17-1.1,2.73-1.65,4.69-1.65s3.45.55,4.6,1.65c1.16,1.1,1.73,2.84,1.73,5.21v3.43c0,2.38-.58,4.11-1.73,5.21s-2.69,1.65-4.6,1.65-3.52-.54-4.69-1.63-1.75-2.83-1.75-5.23ZM896.21,106.41v-3.17c0-1.83-.37-3.11-1.11-3.84s-1.73-1.11-2.99-1.11-2.32.37-3.07,1.11-1.12,2.02-1.12,3.84v3.17c0,1.85.37,3.14,1.12,3.88s1.77,1.11,3.07,1.11,2.25-.37,2.99-1.11,1.11-2.03,1.11-3.88Z" style="fill:#ab454b; stroke-width:0px;"/><path d="M905.72,102.38c0-2.29-.29-4.59-.86-6.9-.57-2.31-1.41-4.54-2.51-6.7h1.68c2.62,4.22,3.93,8.76,3.93,13.6s-1.3,9.29-3.89,13.6h-1.72c1.1-2.11,1.94-4.33,2.51-6.67.57-2.33.86-4.64.86-6.93Z" style="fill:#ab454b; stroke-width:0px;"/><path d="M51.5,121.84c-13.78,0-27.56.01-41.34,0-5.48,0-10.15-4.71-10.15-10.22C0,84.34,0,57.07,0,29.79c0-6.6,4.36-10.93,11-10.93,27.22-.01,54.44,0,81.66,0,5.65,0,10.32,4.63,10.32,10.22.01,27.28.02,54.55,0,81.83,0,5.66-3.21,9.67-8.62,10.77-.94.19-1.93.16-2.9.16-13.32,0-26.65,0-39.97,0h0ZM20.63,101.13h61.74c0-2.67.11-5.24-.03-7.79-.13-2.49-1.36-4.48-3.52-5.75-1.72-1.01-3.47-1.99-5.31-2.75-10.98-4.58-22.37-5.17-33.94-3.06-5.6,1.02-10.87,2.99-15.54,6.37-1.89,1.37-3.24,3.13-3.36,5.51-.13,2.44-.03,4.9-.03,7.48ZM36.06,54.87c-.06,8.5,6.64,15.4,15.03,15.48,9,.08,15.78-6.48,15.86-15.34.08-8.52-6.6-15.47-14.95-15.55-9.12-.09-15.87,6.44-15.93,15.41Z" style="fill:#32677f; stroke-width:0px;"/></g></svg>