<?xml version="1.0" encoding="UTF-8"?><svg id="Layer_2" xmlns="http://www.w3.org/2000/svg" viewBox="0 0 103 103"><g id="Capa_1"><path d="M51.5,102.99c-13.78,0-27.56.01-41.34,0-5.48,0-10.15-4.71-10.15-10.22C0,65.49,0,38.22,0,10.94.01,4.34,4.37.01,11.01,0,38.23,0,65.45,0,92.67.01c5.65,0,10.32,4.63,10.32,10.22.01,27.28.02,54.55,0,81.83,0,5.66-3.21,9.67-8.62,10.77-.94.19-1.93.16-2.9.16-13.32,0-26.65,0-39.97,0h0ZM20.63,82.28h61.74c0-2.67.11-5.24-.03-7.79-.13-2.49-1.36-4.48-3.52-5.75-1.72-1.01-3.47-1.99-5.31-2.75-10.98-4.58-22.37-5.17-33.94-3.06-5.6,1.02-10.87,2.99-15.54,6.37-1.89,1.37-3.24,3.13-3.36,5.51-.13,2.44-.03,4.9-.03,7.48ZM36.06,36.02c-.06,8.5,6.64,15.4,15.03,15.48,9,.08,15.78-6.48,15.86-15.34.08-8.52-6.6-15.47-14.95-15.55-9.12-.09-15.87,6.44-15.93,15.41Z" style="fill:#32677f; stroke-width:0px;"/></g></svg>