<?xml version="1.0" encoding="UTF-8"?><svg id="Layer_2" xmlns="http://www.w3.org/2000/svg" viewBox="0 0 97 97"><g id="Capa_1"><circle cx="48.5" cy="48.5" r="48.5" style="fill:#e24339; stroke-width:0px;"/><path d="M68.77,55.26c-.7,0-1.27.57-1.27,1.27.02,1.74.07,3.25-.07,4.75,0,.05-.01.11-.03.16-.27,1-1.65,1.14-2.23.28-.07-.11-.14-.22-.21-.33-.11-.17-.07-.47-.02-.69.88-4.33-1.05-7.07-4.66-9.33-3.29-2.06-6.26-4.64-9.24-7.15-.76-.64-1.39-1.9-1.4-2.88-.1-11.39-.07-22.44-.05-33.83,0-2.19,2.52-1.97,2.52-.22,0,10.61.15,21.23-.01,31.84-.03,1.65.44,2.74,1.38,3.62.79.73,2.08.14,2.08-.94,0-1.2,0-2.33,0-3.47,0-3.98,0-7.96,0-11.94.01-4.41,1.64-7.14,4.98-8.4,3.38-1.28,7.13-.15,9.82,3.06,1.86,2.21,3.66,4.46,5.42,6.75,2.37,3.09,4.77,6.17,6.99,9.37,7.1,10.24,8.01,21.25,3.39,32.64-3.51,8.67-15.63,13.71-24.39,10.5-3.69-1.35-6.1-5.2-6.18-10.13-.08-5.07.06-10.15-.09-15.21-.03-1.05-.68-2.33-1.45-3.07-1.47-1.41-3.14-2.6-4.89-3.94-.45-.35-1.08-.34-1.53.01-1.91,1.5-3.86,2.98-5.7,4.6-.46.4-.52,1.41-.53,2.15-.05,5.15.04,10.3-.05,15.45-.09,5.24-2.84,9.56-6.85,10.28-2.72.49-5.63.66-8.35.28-10.46-1.46-15.78-6.88-17.7-19.18-1.51-9.66.89-18.37,6.94-26.08,3.66-4.66,7.23-9.39,10.87-14.06,1.92-2.47,4.43-3.99,7.61-3.92,4.27.09,7.41,3.35,7.48,7.73.09,5.46.02,10.92.03,16.39,0,.08,0,.15,0,.23.02,1.07,1.3,1.64,2.08.91.92-.85,1.4-1.93,1.38-3.6-.18-10.38-.07-21.22-.07-31.6,0-2.04,2.58-2.01,2.58-.18,0,11.24-.04,22.47.04,33.71.01,1.61-.57,2.57-1.79,3.49-3.87,2.9-7.62,5.95-11.52,8.81-1.52,1.12-2.36,2.31-2.12,4.27.16,1.31.12,2.66-.05,3.97-.02.12-.06.23-.12.34-.41.74-1.48.81-2.01.16-.15-.18-.26-.37-.27-.56-.13-1.62-.09-3.24-.07-5.01,0-.7-.57-1.27-1.27-1.27-1.68.02-3.23.06-4.77-.07-.11,0-.21-.04-.32-.08-.89-.37-.99-1.62-.22-2.2.18-.13.7-.2,2.05.06,5.07.95,8.98-2.28,12.8-5.83.62-.58,1.02-1.71,1.04-2.59.09-6.01.05-12.02.04-18.03,0-3.37-1.13-5.23-3.65-6.1-2.17-.75-4.73.09-6.57,2.43-3.96,5.02-7.88,10.07-11.7,15.19-6.62,8.89-7.69,18.68-4.25,29.03,2.52,7.59,7.1,10.09,14.62,11.08,1.15.15,2.34.09,3.51.05,4.91-.19,7.39-2,7.79-6.85.37-4.43.18-8.91.12-13.58-.01-1.02-1.18-1.59-2-.98-.38.29-.76.54-1.17.76-.19.1-.41.14-.65.14-.79.01-1.39-.7-1.25-1.48.05-.27.13-.49.29-.63,4.38-3.64,8.79-7.24,13.33-10.67.56-.42,2.12-.14,2.82.36,3.7,2.73,7.32,5.58,10.86,8.52.06.05.12.11.17.17.77.88-.09,2.24-1.24,2-.2-.04-.39-.08-.59-.13-.27-.06-.51-.26-.72-.37,0,5.64-.33,11.24.11,16.77.32,3.99,2.88,5.81,6.84,5.92,2.02.06,4.08.09,6.05-.27,8.3-1.52,12.32-5.71,14.15-15.97,1.65-9.26-.53-17.6-6.38-25-3.58-4.53-7.05-9.13-10.6-13.68-1.5-1.93-3.38-3.32-5.97-3.06-2.55.25-4.5,2.38-4.54,5.14-.09,6.63-.06,13.27,0,19.9,0,.6.42,1.29.84,1.76.57.63,1.4,1,1.99,1.61,3.12,3.24,6.85,4.65,11.34,3.93.53-.08,1.17-.15,1.61.07.21.1.39.25.56.42.5.48.48,1.29-.02,1.77-.23.22-.46.39-.71.41-1.62.13-3.25.09-5.03.07Z" style="fill:#b6d3db; stroke-width:0px;"/></g></svg>