<?xml version="1.0" encoding="UTF-8"?><svg id="Layer_2" xmlns="http://www.w3.org/2000/svg" viewBox="0 0 97 97"><g id="Capa_1"><circle cx="48.5" cy="48.5" r="48.5" style="fill:#e24339; stroke-width:0px;"/><path d="M21.3,79.52c1.09,1.71,3.1,2.86,5.65,2.86h42.85c2.37,0,4.56-1.14,5.65-2.86.36-.71.73-1.57,1.09-2.29H20.2c.36.71.73,1.57,1.09,2.29Z" style="fill:#b6d3db; stroke-width:0px;"/><path d="M72.89,62.09h-20.78c-.91,0-1.64-.57-1.64-1.29v-15.29c0-.71.73-1.14,1.64-1.14h16.77c.73,0,1.28.29,1.46.71,2.73,5,4.01,8.86,4.19,14.29,0,.57-.73,2.71-1.64,2.71ZM46.27,60.8c0,.71-.73,1.29-1.64,1.29h-20.78c-.91,0-1.64-.57-1.64-1.29.18-5.43,1.46-10.71,4.19-15.71.18-.43.73-.71,1.46-.71h16.77c.91,0,1.64.43,1.64,1.14v15.29ZM75.45,41.09c-1.09-1.71-3.28-2.86-5.65-2.86h-8.93c0-1.29-1.46-2.43-3.28-2.43h-8.02v-.71c0-2.29,1.64-4.14,4.19-5,4.01-1.29,6.56-4.29,6.56-7.71v-.29h14.4c.91,0,1.82-.57,1.82-1.43,0-.71-.91-1.43-1.82-1.43h-3.83c.91-.86,1.64-2,1.64-3.29,0-2.57-2.73-4.57-6.02-4.57s-6.02,2-6.02,4.57c0,1.29.73,2.43,1.64,3.29h-6.56c.91-.86,1.64-2,1.64-3.29,0-2.57-2.73-4.57-6.02-4.57s-6.02,2-6.02,4.57c0,1.29.73,2.43,1.64,3.29h-3.65c-1.09,0-1.82.71-1.82,1.43,0,.86.73,1.43,1.82,1.43h13.31v.29c0,2.14-1.64,4.14-4.19,5-4.01,1.29-6.56,4.29-6.56,7.71v.71h-5.65c-1.64,0-3.1,1.14-3.28,2.43h-9.85c-2.55,0-4.56,1.14-5.65,2.86-5.83,10.71-6.56,22.43-2.37,33.14h58.89c4.19-10.71,3.28-22.43-2.37-33.14Z" style="fill:#b6d3db; stroke-width:0px;"/></g></svg>