<?xml version="1.0" encoding="UTF-8"?><svg id="Layer_2" xmlns="http://www.w3.org/2000/svg" viewBox="0 0 102 102"><g id="Capa_1"><circle cx="51" cy="51" r="51" style="fill:#32677f; stroke-width:0px;"/><path d="M78.44,63.21c0,1.7,0,3.21,0,4.72,0,6.39-3.48,9.96-9.82,9.97-11.54.02-23.07.02-34.61,0-5.76,0-9.45-3.7-9.46-9.45-.02-7.55,0-15.11,0-22.66,0-.64,0-1.28,0-2.18-1.61,0-3.12-.12-4.6.07-.49.06-.98.82-1.3,1.36-1.8,3.05-5.32,4.58-8.74,3.73-3.38-.84-5.83-3.92-5.89-7.42-.07-3.65,2.21-6.72,5.71-7.71,3.38-.96,7.08.41,8.75,3.52.71,1.33,1.51,1.69,2.87,1.56.98-.1,1.97-.02,3.21-.02,0-1.81,0-3.48,0-5.15.04-5.89,3.68-9.53,9.56-9.53,11.54,0,23.07-.01,34.61,0,6.12,0,9.72,3.62,9.73,9.72,0,7.44,0,14.87,0,22.31,0,.69,0,1.38,0,2.26,1.62,0,3.08.11,4.51-.06.5-.06,1.03-.76,1.35-1.29,1.81-2.94,4.41-4.33,7.83-3.93,3.28.38,5.46,2.27,6.49,5.39,1.23,3.72-.57,7.75-4.12,9.42-3.52,1.66-7.91.52-9.84-2.86-.83-1.46-1.71-1.97-3.27-1.78-.91.11-1.84.02-2.94.02ZM51.42,28.9h0c-5.74,0-11.47-.02-17.21,0-3.27,0-4.77,1.46-4.77,4.69,0,11.59,0,23.18.01,34.77,0,3.15,1.49,4.63,4.63,4.63,11.59.01,23.18.01,34.77,0,3.15,0,4.67-1.49,4.68-4.6.01-11.59.02-23.18,0-34.77,0-3.25-1.48-4.71-4.73-4.71-5.8-.02-11.59,0-17.39,0Z" style="fill:#b6d3db; stroke-width:0px;"/><path d="M42.3,58.07c1.04-1,1.95-2,3-2.81.33-.25,1.16-.15,1.6.08.97.51,1.77,1.44,2.78,1.76,1.04.33,2.33.42,3.37.12,1.54-.43,1.7-2.2.35-3.11-.71-.48-1.59-.7-2.37-1.1-1.76-.89-3.71-1.57-5.22-2.77-3.93-3.12-2.98-8.76,1.71-10.56,1.23-.47,2.06-.87,1.85-2.39-.04-.3.6-.9,1.01-1,.66-.17,1.43-.19,2.08,0,.46.14,1.15.77,1.11,1.11-.15,1.39.59,1.7,1.7,2.11,1.29.47,2.45,1.32,3.61,2.08.84.55.97,1.28.16,2.02-.21.2-.41.42-.61.63-1.86,1.99-1.81,1.9-4.13.64-.92-.5-2.09-.72-3.14-.7-.57.01-1.49.72-1.59,1.24-.09.49.57,1.31,1.1,1.7.64.46,1.49.63,2.26.92,1.2.46,2.43.85,3.58,1.41,5.05,2.44,5.5,8.57.86,11.74-.76.52-1.63.97-2.52,1.19-1,.24-1.39.7-1.24,1.69.23,1.44-.6,1.57-1.76,1.62-1.65.06-2.94,0-2.63-2.23.04-.31-.6-.89-1.04-1.06-2.28-.88-4.29-2.09-5.91-4.34Z" style="fill:#b6d3db; stroke-width:0px;"/></g></svg>